<svg width="17" height="17" fill="none" xmlns="http://www.w3.org/2000/svg"><g clip-path="url(#clip0_1_1506)" fill="#2E1A1E"><path d="M12.816 7.637a.664.664 0 100-1.328.664.664 0 000 1.328z"/><path d="M14.344 1.328h-.864V.664a.664.664 0 10-1.328 0v.664H9.131V.664a.664.664 0 10-1.328 0v.664H4.814V.664a.664.664 0 10-1.328 0v.664h-.83A2.66 2.66 0 000 3.984v10.36A2.66 2.66 0 002.656 17h5.08a.664.664 0 100-1.328h-5.08a1.33 1.33 0 01-1.328-1.328V3.984a1.33 1.33 0 011.328-1.328h.83v.664a.664.664 0 101.328 0v-.664h2.989v.664a.664.664 0 101.328 0v-.664h3.021v.664a.664.664 0 101.329 0v-.664h.863a1.33 1.33 0 011.328 1.328V7.77a.664.664 0 101.328 0V3.984a2.66 2.66 0 00-2.656-2.656z"/><path d="M12.982 8.965a4.022 4.022 0 00-4.017 4.017A4.022 4.022 0 0012.982 17 4.022 4.022 0 0017 12.982a4.022 4.022 0 00-4.018-4.017zm0 6.707a2.693 2.693 0 01-2.689-2.69 2.692 2.692 0 012.69-2.689 2.692 2.692 0 012.689 2.69 2.693 2.693 0 01-2.69 2.689z"/><path d="M13.945 12.318h-.299v-.697a.664.664 0 10-1.328 0v1.361c0 .367.298.665.664.665h.963a.664.664 0 100-1.329zM9.928 7.637a.664.664 0 100-1.328.664.664 0 000 1.328zM7.04 10.525a.664.664 0 100-1.328.664.664 0 000 1.328zM4.15 7.637a.664.664 0 100-1.328.664.664 0 000 1.328zm0 2.888a.664.664 0 100-1.328.664.664 0 000 1.328zm0 2.889a.664.664 0 100-1.328.664.664 0 000 1.328zm2.89 0a.664.664 0 100-1.328.664.664 0 000 1.328zm0-5.777a.664.664 0 100-1.328.664.664 0 000 1.328z"/></g><defs><clipPath id="clip0_1_1506"><path fill="#fff" d="M0 0h17v17H0z"/></clipPath></defs></svg>