<svg width="24" height="17" fill="none" xmlns="http://www.w3.org/2000/svg"><g clip-path="url(#clip0_1_1490)" fill="#2E1A1E"><path d="M19.942 16.938H3.962c-1.892 0-3.485-1.394-3.706-3.244-.341-2.852-.341-7.495 0-10.348C.476 1.496 2.07.103 3.962.103h15.997c1.886 0 3.478 1.388 3.705 3.23l.128 1.047c.266 2.161.278 5.679.027 7.84l-.17 1.463c-.216 1.855-1.81 3.255-3.707 3.255zM3.962 1.706c-1.066 0-1.964.786-2.088 1.827-.33 2.75-.33 7.224 0 9.974.124 1.042 1.022 1.828 2.088 1.828h15.98c1.07 0 1.967-.789 2.088-1.835l.17-1.462c.24-2.058.229-5.407-.025-7.466l-.128-1.046c-.128-1.037-1.026-1.82-2.088-1.82H3.962z"/><path d="M15.213 8.52L9.525 5.715v5.611l5.688-2.806z"/><path d="M9.526 12.128a.82.82 0 01-.428-.12.798.798 0 01-.386-.682V5.714a.8.8 0 01.386-.682.822.822 0 01.793-.034l5.688 2.806c.276.135.45.412.45.716s-.174.581-.45.717l-5.688 2.806a.82.82 0 01-.365.085zm.815-5.115v3.014l3.055-1.507-3.055-1.507z"/></g><defs><clipPath id="clip0_1_1490"><path fill="#fff" d="M0 0h24v17H0z"/></clipPath></defs></svg>