<svg width="369" height="835" fill="none" xmlns="http://www.w3.org/2000/svg"><g clip-path="url(#clip0_1_246)"><mask id="a" style="mask-type:alpha" maskUnits="userSpaceOnUse" x="0" y="331" width="442" height="420"><path fill="#FFF7EE" d="M0 331h442v420H0z"/></mask><g mask="url(#a)" stroke="#F8EBDD" stroke-width="2.5" stroke-miterlimit="10"><path d="M243.371 446.359a155.863 155.863 0 01-112.463-30.75m-42.605-9.68a47.882 47.882 0 00-24.692-1.864"/><path d="M271.298.504a161.383 161.383 0 015.014 73.212c-2.801 16.615-8.137 32.823-9.145 49.634-.953 16.125 2.143 32.221 1.596 48.402a127.378 127.378 0 01-30.013 77.372c-16.036 18.717-37.115 33.706-61.778 37.363-13.095 1.933-26.4 1.835-39.607 2.802a5.826 5.826 0 00-3.628 1.12 5.716 5.716 0 00-1.4 3.11 182.138 182.138 0 00-3.88 33.034c-.182 6.766.182 14.009 4.202 19.459 14.005 18.87 50.839 22.862 71.609 28.942a864.315 864.315 0 0193.01 33.09c23.207 9.806 47.395 21.826 59.873 43.694 7.675 13.463 10.042 29.42 10.042 44.83 0 45.543-19.019 88.565-35.013 131.181-24.398 64.862-50.812 137.78-57.212 207.055"/><path d="M170.488.504C161.049 57.27 95.489 75.79 52.758 107.59c-57.547 42.854-85.642 107.506-94.186 178.645-9.075 75.453 17.48 153.077 42.213 224.44 20.154 58.096 54.495 110.364 89.508 160.516 34.3 49.228 67.997 100.194 60.686 163.599"/></g></g><defs><clipPath id="clip0_1_246"><path fill="#fff" transform="matrix(-1 0 0 1 369 0)" d="M0 0h414v835H0z"/></clipPath></defs></svg>