<svg width="441" height="555" fill="none" xmlns="http://www.w3.org/2000/svg"><g clip-path="url(#clip0_1_227)"><mask id="a" style="mask-type:alpha" maskUnits="userSpaceOnUse" x="-5" y="135" width="446" height="420"><path fill="#FFF7EE" d="M-5 135h446v420H-5z"/></mask><g mask="url(#a)" fill="#F1E0CE"><path d="M198.548 409.637c-2.8.184-5.54.893-8.077 2.092a29.04 29.04 0 01-7.799 2.202c-5.234.799-10.45.878-15.608-.523-5.634-1.534-10.738-4.467-15.756-7.378-2.61-1.507-5.201-3.06-7.817-4.57l-1.678-.969-.9-.52c-.085.541.012.718.259.598.139.03.477-.088.534-.211.138-.24-.321-.896-.448-1.082-.552-.816-2.545-1.178-3.417-1.525-1.383-.557-3.516-1.697-4.989-.807-.45.34-.879.706-1.287 1.097-.52.409-1.175.67-1.455 1.29a3.9 3.9 0 00-.138 1.469 2.339 2.339 0 01-1.153 1.998 17.888 17.888 0 01-8.288 3.738c-1.893.278-3.826.377-5.725.516-2.341.168-4.612-.29-6.883.444a18.592 18.592 0 00-9.707 7.685c-2.112 3.277-1.966 6.678-1.546 10.429.204 1.823.327 3.641.396 5.464.12 1.387.162 2.78.128 4.172-.06.988-.279 1.97-.291 2.964-.072 2.253 1.115 4.096 2.843 5.47a14.8 14.8 0 008.009 3.353c2.016.198 2.574.733 2.581 2.91a8.962 8.962 0 01-.211 2.592c-.099.319-.458.695-.316.868l.452 1.086c.035-.946 4.488 1.17 4.816 1.317 2.768 1.356 5.388 2.969 8.342 3.857a8.72 8.72 0 006.437-.446c1.024-.445 1.988-.983 3.024-1.45a15.07 15.07 0 013.877-.958c2.841-.49 4.603-2.35 6.725-4.093a17.373 17.373 0 016.607-3.559c2.952-.781 5.931-1.107 8.857-2.053 2.925-.946 5.575-1.966 8.434-2.773 6.069-1.716 11.598-5.436 16.994-8.606 2.733-1.597 5.542-3.314 7.783-5.571a29.891 29.891 0 004.867-6.942c1.199-2.284.613-4.825 1.015-7.306a13.969 13.969 0 011.325-4.498c.83-1.523 2.338-2.031 3.284-3.374.805-1.148 1.212-2.333 2.321-3.27 1.109-.936 2.435-1.535 3.545-2.449 2.268-1.873 3.621-4.636 5.045-7.138 3.338-5.843 6.514-11.787 10.341-17.334 3.728-5.412 6.67-11.257 10.534-16.597 3.865-5.34 7.959-10.697 11.287-16.511 1.652-2.86 3.111-5.868 5.06-8.542a46.206 46.206 0 004.775-7.606c10.912-23.255 18.298-48.006 23.908-73.028 5.689-25.355 9.588-51.053 13.475-76.744l1.404-9.247c.058-.371-.65-1.15-.639-1.193-5.395 35.24-10.333 70.624-19.555 105.089-4.606 17.229-10.3 34.227-17.657 50.499-.94 2.071-1.822 4.226-2.954 6.2-1.133 1.974-2.62 3.651-3.888 5.504-2.549 3.714-4.436 7.867-6.836 11.68-4.922 7.812-10.96 14.739-15.491 22.784-2.172 3.86-4.838 7.371-7.114 11.164-2.442 4.059-4.739 8.209-7.081 12.327a47.549 47.549 0 01-3.237 5.311c-1.325 1.743-2.933 2.718-4.688 3.949a8.494 8.494 0 00-1.922 1.731c-.557.73-.79 1.675-1.372 2.376-.582.701-1.469 1.056-2.111 1.701a7.298 7.298 0 00-1.565 2.598 19.154 19.154 0 00-1.148 5.68c-.041.907.158 1.817.068 2.724a7.587 7.587 0 01-1.258 3.152c-2.151 3.552-4.497 6.559-7.916 8.925a130.163 130.163 0 01-11.359 6.781 81.494 81.494 0 01-5.664 2.959 43.845 43.845 0 01-6.129 2.065c-4.037 1.221-7.792 2.903-11.971 3.608-3.927.652-7.105 1.85-10.171 4.405-1.373 1.147-2.639 2.504-4.294 3.267-1.656.764-3.699.649-5.475 1.35-3.212 1.271-5.774 3.272-9.404 2.326-4.054-1.061-7.445-3.651-11.323-5.116-.715-.263-3.395-1.022-2.23.652 1.012 1.457 1.072-2.485 1.071-2.976-.013-1.527-.248-3.531-1.474-4.63-1.326-1.185-3.783-.707-5.388-1.236a16.387 16.387 0 01-3.665-1.945 11.89 11.89 0 01-2.038-1.574c-1.066-1.07-.967-2.214-.8-3.609.444-3.785.06-7.721-.363-11.503a25.74 25.74 0 01-.238-5.493 11.75 11.75 0 012.439-5.687 18.081 18.081 0 019.53-6.8c1.889-.529 3.795-.139 5.725-.246 1.93-.108 4.118-.244 6.141-.525a17.225 17.225 0 007.699-3.197c1.11-.78 1.927-1.246 2.019-2.649.038-.582-.093-1.154.261-1.682.414-.606 1.298-1.019 1.879-1.507 1.296-1.113 2.148-1.026 3.835-.492 1.103.353 2.159.849 3.236 1.272.329.132 1.5.368 1.692.65l-.453-1.086c-.092.16-.552.058-.682.26-.131.201.161.803.28.978.266.438.65.792 1.107 1.023 1.468.89 2.983 1.722 4.475 2.583 5.779 3.387 11.522 7.108 17.817 9.492a35.458 35.458 0 0016.957 1.977 34.087 34.087 0 008.975-2.014 36.503 36.503 0 014.385-1.8 24.613 24.613 0 014.793-.785s-.278-1.29-.602-1.271l-.024.043z"/><path d="M203.32 409.529a30.11 30.11 0 00-1.11 6.966c-.04 2.407.539 4.787 1.074 7.12.296 1.272.592 2.543.807 3.832.108 1.107.301 2.204.577 3.281.327.984.807 1.887 1.208 2.829a16.408 16.408 0 011.138 3.81 17.27 17.27 0 01.104 3.782 34.043 34.043 0 00-.004 3.698 24.726 24.726 0 01-.756 7.043 87.3 87.3 0 00-2.402 13.607c-.42 4.55-.112 9.137.913 13.589a24.45 24.45 0 002.407 6.362 37.64 37.64 0 004.049 5.633c3.313 3.944 6.623 8.029 10.626 11.306a88.898 88.898 0 0013.373 8.822 24.96 24.96 0 003.424 1.6 9.74 9.74 0 003.372.79c1.579-.041 2.179-1.818 2.989-2.877.216-.319.494-.589.819-.795a2.788 2.788 0 011.067-.404 7.253 7.253 0 002.731-.781c.82-.45 1.576-1.008 2.407-1.451a8.482 8.482 0 012.85-.827 12.068 12.068 0 004.96-1.788 14.401 14.401 0 003.48-3.567c1.171-1.597 2.518-3.341 2.994-5.296.559-2.298.207-4.775.297-7.109.046-1.242.159-2.481.339-3.711a9.105 9.105 0 01.997-3.402c.717-1.241 2.121-2.234 2.181-3.776.081-1.715-1.087-3.469-2.106-4.768a29.922 29.922 0 00-4.217-4.075c-.349-.294-.703-.591-1.046-.895l-.432-.384a3.145 3.145 0 00-.341-.332c-.141-.174-.142-.147-.03.053.112.2.117.252.095.055.177-.35.256-.741.228-1.132-.394-1.926-2.794-3.034-4.384-3.675-1.184-.485-2.407-.864-3.584-1.359a33.6 33.6 0 01-3.625-1.902c-2.456-1.417-4.835-2.968-7.331-4.317-2.165-1.172-4.491-1.989-6.679-3.096a16.39 16.39 0 01-3.249-2.061 22.814 22.814 0 01-2.731-2.997 75.042 75.042 0 01-5.048-6.622c-.71-1.12-1.409-2.234-2.113-3.351a33.549 33.549 0 01-2.077-3.33c-.998-2.06-1.864-4.152-3.376-5.913a25.213 25.213 0 00-5.469-4.577 41.135 41.135 0 01-6.25-4.923c-1.732-1.71-2.385-4.296-2.596-6.648a5.636 5.636 0 01.454-2.373c.347-1.08.539-2.203.569-3.337.007-.244-.42-1.116-.676-1.178-.959-.221-.851 1.007-.644 1.595.099.321.269.615.497.862.154.139.23.204.134-.072-.172-.489-.044-1.339.638-1.179l-.671-1.176a12.16 12.16 0 01-.569 3.336 5.607 5.607 0 00-.444 2.479c.184 2.008.74 3.965 1.641 5.77.451.899 1.01 1.739 1.666 2.503a25.146 25.146 0 002.652 2.369 28.414 28.414 0 002.96 2.341c1.094.724 2.203 1.4 3.241 2.198 2.084 1.594 3.869 3.313 4.997 5.726.481.988.92 2.023 1.464 2.976.614 1.065 1.326 2.095 1.997 3.135 1.356 2.118 2.662 4.272 4.19 6.276a114.02 114.02 0 004.993 6.114c1.552 1.777 3.63 2.927 5.749 3.895 2.299 1.05 4.598 2.001 6.794 3.255 2.375 1.371 4.681 2.852 7.079 4.186a27.686 27.686 0 003.612 1.716c1.17.434 2.402.833 3.548 1.396.541.255 1.059.554 1.55.895l.364.28c.154.09.387.487.204.04-.182-.446-.084-.112-.134.072-.131.486-.28.719-.079 1.233.644 1.615 2.219 2.652 3.517 3.749a53.998 53.998 0 012.276 2.025 8.642 8.642 0 011.872 2.33 3.17 3.17 0 01.06 2.727 9.938 9.938 0 01-1.258 1.724c-1.343 1.711-1.625 3.75-1.84 5.856-.244 2.402-.098 4.795-.184 7.195a8.93 8.93 0 01-.67 3.35 18.47 18.47 0 01-1.696 2.778 20.488 20.488 0 01-3.254 3.938 10.62 10.62 0 01-4.194 2.245c-.967.273-1.945.355-2.915.547a8.058 8.058 0 00-2.629 1.146c-.767.529-1.58.987-2.43 1.367-.83.331-1.758.215-2.561.56-1.42.601-1.787 2.321-2.851 3.326a2.205 2.205 0 01-2.016.527 15.907 15.907 0 01-3.882-1.162 68.275 68.275 0 01-6.639-3.719 58.871 58.871 0 01-12.84-9.857c-1.844-1.924-3.562-3.967-5.295-5.997a45.786 45.786 0 01-4.42-5.706c-2.413-3.964-3.109-9.033-3.254-13.591a60.544 60.544 0 011.271-13.507c.442-2.267 1.04-4.485 1.517-6.738.458-2.249.612-4.548.46-6.838-.138-2.43.329-4.825-.184-7.209a18.357 18.357 0 00-.984-3.217c-.415-1.028-.983-1.988-1.31-3.058a25.246 25.246 0 01-.612-3.528c-.21-1.187-.484-2.361-.753-3.532-.555-2.408-1.134-4.838-1.043-7.321a30.912 30.912 0 011.1-6.617c.057-.209-.257-.625-.36-.791-.054-.03-.332-.482-.362-.357l.037-.015z"/><path d="M201.404 425.001a170.63 170.63 0 00-1.156 6.493 39.08 39.08 0 01-1.189 6.033c-.614 1.875-1.495 3.647-2.19 5.49a29.082 29.082 0 01-2.59 5.607c-3.896 6.083-10.086 10.087-15.674 14.39a57.432 57.432 0 00-8.136 7.448c-2.525 2.861-4.578 6.023-6.715 9.171a17.853 17.853 0 00-2.666 5.564 25.646 25.646 0 00-.819 5.209 54.272 54.272 0 00.636 9.97c.395 3.006 1.015 6.177 3.321 8.31a11.367 11.367 0 003.082 2.313c1.069.429 2.164.788 3.279 1.076 2.159.614 4.565 1.023 6.572 2.075a2.118 2.118 0 011.057 2.365c-.162 1.043-.119 1.891.674 2.683.614.646 1.402 1.101 2.049 1.666a13.08 13.08 0 002.538 1.657c1.41.708 2.729 1.647 4.273 2.048 1.253.326 2.55.172 3.806.457 1.148.286 2.274.654 3.37 1.101 2.09.809 4.338 1.922 6.625 1.935a3.778 3.778 0 002.486-.787c.879-.736 1.201-1.921 2.045-2.705 3.092-2.896 7.688.376 10.552 2.022 2.391 1.381 5.185.75 7.498-.501a18.35 18.35 0 006.996-7.197 14.263 14.263 0 001.922-5.482 9.67 9.67 0 00.157-2.608 2.09 2.09 0 00-.914-1.295c-.171-.049-.108.186.002.193.11.006.08-.053.114-.062a.864.864 0 00.242-.137c.165-.09.328-.187.486-.288a13.174 13.174 0 002.292-1.83 14.874 14.874 0 003.848-7.119c1.075-4.422.639-9.128-.271-13.531-1.595-7.683-4.693-15.025-8.167-22.024-5.703-11.504-12.654-22.371-20.018-32.867a436.9 436.9 0 00-7.027-9.789c-.441-.602-1.686-.156-1.156.562 8.364 11.349 16.368 23.038 23.185 35.405 4.253 7.704 8.16 15.748 10.633 24.222 1.418 4.754 2.438 10.024 1.925 14.948a15.783 15.783 0 01-2.995 8.214 8.877 8.877 0 01-.987 1.143c-.343.347-.709.672-1.094.973-.171.136-.352.265-.537.4l-.247.17a.899.899 0 01-.141.096c-.337.203-.706.374-1.049.588-1.238.827.406 1.449.473 2.269a8.33 8.33 0 01-.106 1.537c-.033.4-.079.8-.144 1.195a12.34 12.34 0 01-.96 3.054 17.93 17.93 0 01-6.719 7.947 9.344 9.344 0 01-4.002 1.433 4.965 4.965 0 01-3.048-.872 26.376 26.376 0 00-5.311-2.612c-1.926-.614-4.092-.7-5.83.477a8.174 8.174 0 00-2.23 2.633 2.225 2.225 0 01-1.909 1.029c-2.161.052-4.328-1.114-6.311-1.875a25.417 25.417 0 00-3.407-1.087c-1.256-.284-2.563-.137-3.803-.462-1.481-.387-2.774-1.346-4.136-2.026a12.517 12.517 0 01-2.431-1.695c-.569-.477-1.452-.916-1.809-1.591-.356-.674.138-1.739-.01-2.541a3.541 3.541 0 00-1.819-2.336c-1.974-1.083-4.382-1.514-6.537-2.112a31.395 31.395 0 01-3.189-.996 9.979 9.979 0 01-2.99-2.203c-2.298-2.171-2.643-5.659-2.964-8.608-.366-3.365-.779-6.721-.403-10.105.193-1.799.593-3.57 1.194-5.277.724-2.018 2.105-3.721 3.27-5.492a60.74 60.74 0 017.021-8.987c4.933-5.1 11.131-8.688 16.367-13.414a32.722 32.722 0 006.587-7.903 40.71 40.71 0 002.296-5.415c.71-1.784 1.556-3.519 2.105-5.369a47.469 47.469 0 001.098-5.95c.334-2.03.685-4.065 1.096-6.08.149-.751-1.217-1.079-1.369-.335l.003-.006z"/><path d="M200.825 424.958c-1.231 2.131-2.354 4.324-3.672 6.446a38.002 38.002 0 01-4.688 5.931c-1.726 1.845-3.5 3.662-5.067 5.676-1.466 1.874-2.843 3.693-4.816 5.032-.916.615-1.876 1.169-2.769 1.818a16.264 16.264 0 00-2.451 2.4 5.444 5.444 0 01-2.67 1.697c-.956.193-1.922.33-2.893.41-2.05.315-3.903 1.298-6.017 1.243a18.365 18.365 0 01-3.07-.416c-1.035-.2-2.079-.348-3.094-.607a13.819 13.819 0 01-3.379-1.454 7.548 7.548 0 00-2.508-.738c-1.645-.239-4.119-.247-4.445-2.289-.116-.649-1.361-1.077-1.216-.219.303 1.823 1.575 2.856 3.295 3.323.879.223 1.783.319 2.681.461a7.35 7.35 0 012.433.879c2.019 1.166 4.206 1.498 6.465 1.929 2.09.403 4.161.641 6.231-.004a19.92 19.92 0 013.409-.873 17.127 17.127 0 003.024-.513c2.263-.696 3.33-2.864 5.163-4.193.994-.726 2.068-1.32 3.073-2.026a14.02 14.02 0 002.765-2.587c.796-.961 1.507-1.971 2.298-2.935a69.537 69.537 0 012.727-3.063c2.01-2.164 4.097-4.254 5.76-6.704 1.663-2.449 3.043-5.197 4.547-7.801.329-.57-.756-1.446-1.129-.801l.013-.022zm-53.621-20.566c.684-1.985.833-4.15 1.687-6.072a9.857 9.857 0 012.835-3.57 5.545 5.545 0 014.165-1.395c1.935.282 3.829.791 5.644 1.518.908.311 1.783.603 2.679 1.007.893.45 1.84.782 2.818.988 1.891.317 3.813-.355 5.695-.022a3.8 3.8 0 011.832 1.058 13.87 13.87 0 002.641 1.738c1.798.981 3.692 1.847 5.232 3.24a7.392 7.392 0 011.994 2.352c.438.963.739 1.968 1.219 2.92a9.515 9.515 0 001.477 2.486c.719.735 1.584.567 2.474.882.588.212.582-1.191.083-1.373-.872-.311-1.733-.099-2.362-.916-.5-.757-.929-1.559-1.281-2.395-.45-.906-.665-1.911-1.15-2.794a7.936 7.936 0 00-1.691-1.992 14.178 14.178 0 00-2.319-1.815c-.927-.535-1.887-1.012-2.82-1.536a18.583 18.583 0 01-2.83-1.719 6.972 6.972 0 00-1.907-1.371 5.714 5.714 0 00-2.301-.185 30.599 30.599 0 01-3.057.153c-2.087-.076-3.99-1.295-5.91-1.992a29.919 29.919 0 00-5.683-1.611 5.873 5.873 0 00-4.323.906 11.185 11.185 0 00-3.513 3.845c-1.149 2.065-1.237 4.493-2.003 6.693a1.025 1.025 0 00.136.994c.184.199.469.271.594-.069l-.055.047zm56.25 11.657c2.424 1.4 4.808 3.238 7.648 3.621 1.224.122 2.454.172 3.684.152 1.298.039 2.618-.044 3.928-.013 1.626.037 2.531 1.128 3.842 1.956a30.247 30.247 0 004.135 2.004 80.922 80.922 0 017.798 4.282c1.29.744 2.584 1.492 3.815 2.337 1.231.846 2.39 1.863 3.561 2.838a36.32 36.32 0 007.576 4.9 6.366 6.366 0 012.558 1.966 12.87 12.87 0 011.515 3.823c.36 1.251.81 2.474 1.346 3.66.496 1.097.262 2.155-.151 3.251a5.395 5.395 0 01-2.096 2.832 5.575 5.575 0 01-3.312.531c-1.588-.114-3.15-.498-4.743-.494-1.097.006-1.545.351-2.207 1.177l.298-.049-.416-.14c-.591-.207-.735 1.187-.276 1.339l.411.138c.096.055.22.049.301-.054.218-.368.518-.681.876-.915a3.842 3.842 0 011.719-.087c1.416.107 2.825.41 4.251.487 2.206.116 4.02-.627 5.144-2.599 1.073-1.859 1.746-4.255.857-6.295a37.109 37.109 0 01-1.481-4.201 13.004 13.004 0 00-1.48-3.489 6.462 6.462 0 00-2.543-2.129 42.344 42.344 0 01-4.046-2.194c-2.689-1.751-4.943-4.047-7.615-5.817-2.556-1.724-5.333-3.249-8.036-4.768a44.351 44.351 0 00-4.367-2.13 17.453 17.453 0 01-4.052-2.247 6.182 6.182 0 00-1.906-1.164 6.843 6.843 0 00-2.412-.128c-1.534.073-3.091-.01-4.621-.055a10.244 10.244 0 01-4.439-.922c-1.648-.837-3.196-1.845-4.757-2.746-.49-.283-.718 1.084-.282 1.336l-.025.006z"/><path d="M199.128 439.967c-.243 1.515-.347 3.06-.597 4.563-.25 1.504-.577 2.92-.839 4.381a39.99 39.99 0 01-2.4 8.772 84.004 84.004 0 01-4.268 8.438c-1.538 2.664-2.969 5.389-4.454 8.083a45.568 45.568 0 01-2.476 4.068c-.838 1.192-1.765 2.319-2.558 3.545-1.595 2.467-3.013 5.058-5.313 6.962-2.166 1.796-4.852 2.795-7.116 4.415-1.089.791-2.056 1.803-3.288 2.398-1.232.596-2.604.734-3.907 1.083-1.142.306-2.171 1.055-3.36 1.171a7.384 7.384 0 01-3.011-.531c-2.266-.775-4.34-1.476-6.746-.926-1.92.447-3.888 1.371-5.789.358a4.337 4.337 0 00-1.13-.503 6.41 6.41 0 00-1.541-.051 7.128 7.128 0 01-1.416-.008 1.93 1.93 0 01-1.225-.793c-.389-.459-.824-.873-1.216-1.327a4.345 4.345 0 01-.552-.766 6.377 6.377 0 00-.352-.793c-.261-.371-.679-.349-1.004-.622-.444-.363-.543-1.372-.765-1.912a7.212 7.212 0 01-.657-1.863 2.312 2.312 0 00-.437-1.248c-.388-.436-.97-.78-1.38-1.165-.413-.371-.799-.77-1.157-1.194a4.559 4.559 0 01-1.042-1.887 1.9 1.9 0 01.042-.97c.204-.92.47-1.91.053-2.811a3.687 3.687 0 00-1.11-1.252c-.759-.629-1.571-1.191-2.38-1.757a22.9 22.9 0 01-4.72-3.919 7.103 7.103 0 01-1.461-2.747 12.206 12.206 0 01-.144-3.847 10.67 10.67 0 011.96-5.425c.366-.499.9-.993 1.437-.434.174.178.482-1.057.202-1.347-1.17-1.208-2.354 1.383-2.724 2.171a14.94 14.94 0 00-1.401 6.585c-.003 2.342.313 4.378 1.821 6.258 1.359 1.693 3.209 2.918 4.976 4.151a30.27 30.27 0 012.476 1.863c.357.281.633.654.798 1.078-.049-.149-.034.059-.056.096-.045.201-.098.405-.153.622a6.444 6.444 0 00-.165 1.701c.058 1.597.964 2.894 2.067 3.985.447.457.98.886 1.495 1.311.515.425.475.899.604 1.549.18.583.416 1.147.704 1.685.241.579.29 1.417.707 1.9.283.334.807.324 1.077.657.184.234.271.675.433.96.166.259.353.504.556.734.389.458.824.873 1.213 1.332.271.387.665.672 1.117.808.991.253 2.041-.065 3.04.086a5.892 5.892 0 011.516.648c.453.207.941.33 1.439.362 2.102.134 4.044-1.088 6.157-1.069 2.49.017 4.605 1.558 7.046 1.71 1.227.076 2.077-.485 3.176-.901 1.3-.492 2.699-.615 4.015-1.049a11.334 11.334 0 003.524-2.227 26.05 26.05 0 013.747-2.382 29.436 29.436 0 003.675-2.268 16.035 16.035 0 003.018-3.123c.89-1.198 1.656-2.489 2.454-3.747.847-1.344 1.819-2.572 2.739-3.859 1.851-2.59 3.25-5.468 4.768-8.257 1.561-2.877 3.272-5.668 4.766-8.613a43.168 43.168 0 003.581-8.884c.361-1.461.621-2.945.886-4.426.265-1.48.618-2.988.853-4.479.236-1.491.383-3.124.621-4.692.02-.158.089-.794-.121-.872-.211-.079-.298.318-.324.474l-.004-.017zm-52.08-36.042a17.86 17.86 0 01-3.799 4.327c-1.639 1.228-3.627 1.706-5.365 2.748a28.474 28.474 0 00-5.174 4.201 16.954 16.954 0 00-3.709 4.677 8.568 8.568 0 00-.537 5.742 27.332 27.332 0 001.064 3.2c.234.541.43 1.098.586 1.666.104.565.106 1.144.008 1.71a15.522 15.522 0 00-.238 2.959c.079.936.32 1.851.711 2.705.418.926.956 1.793 1.601 2.579.699.83 1.689 1.146 2.639 1.58 1.178.531 1.861 1.501 2.863 2.25 1.002.749 1.981.505 3.128.733a5.18 5.18 0 011.748.86 14.07 14.07 0 001.801.941c1.285.578 2.615 1.055 3.853 1.741.239.139.37-1.207.082-1.373-2-1.112-4.181-1.789-6.142-2.992a4.66 4.66 0 00-2.457-.666 3.729 3.729 0 01-2.639-1.26 7.858 7.858 0 00-2.534-1.762 5.29 5.29 0 01-2.558-1.881 9.617 9.617 0 01-1.362-2.562 6.16 6.16 0 01-.011-2.848c.148-.922.178-1.859.091-2.789a12.796 12.796 0 00-.884-2.861 15.201 15.201 0 01-1.019-3.316 5.58 5.58 0 01.527-2.991c.797-1.799 2.162-3.205 3.545-4.566a31.121 31.121 0 014.748-3.992c1.813-1.184 3.954-1.695 5.719-2.942a17.375 17.375 0 004.021-4.504c.14-.268.177-.577.104-.87-.01-.056-.161-.669-.294-.475l-.117.031zm143.725-210.493a227.704 227.704 0 00-10.757 21.092c-3.239 7.208-5.829 14.697-9.215 21.841-1.632 3.44-3.41 6.803-5.255 10.135-.948 1.704-1.95 3.377-2.884 5.082-.923 1.598-1.642 3.25-2.585 4.808a10.879 10.879 0 01-3.186 3.551 25.537 25.537 0 01-4.625 2.302c-3.194 1.288-6.509 2.294-9.782 3.337-3.423 1.093-6.858 2.171-10.165 3.593a47.256 47.256 0 00-9.294 5.579 24.685 24.685 0 01-4.433 2.868c-1.514.667-3.233.974-4.591 1.923-1.283.907-2.156 2.222-3.711 2.737-1.837.637-3.428.23-3.786-1.845a11.583 11.583 0 012.463-8.792c1.922-2.321 4.84-3.463 7.712-4.07 6.415-1.269 13.053-.057 19.438-1.521 4.316-.981 8.56-2.451 12.838-3.611 3.247-.874 6.603-1.692 9.064-4.135 2.273-2.239 4.567-10.149 8.82-6.663l-.408-.747c-.022 5.747-3.661 10.316-7.121 14.562a50.247 50.247 0 00-4.787 6.47 19.43 19.43 0 00-2.29 6.895c-.783 5.181-.597 10.31-2.91 15.14a41.27 41.27 0 01-4.701 7.393c-1.879 2.417-3.963 4.623-5.662 7.172-2.816 4.227-5.037 8.726-7.328 13.235a22.814 22.814 0 01-3.294 5.151 8.986 8.986 0 01-2.448 1.939c-.648.336-2.108 1.056-2.755.541-1.19-.978-.06-3.587.412-4.614a36.693 36.693 0 012.663-4.464c3.104-4.75 5.67-9.895 8.458-14.834 1.77-3.141 3.562-6.268 5.462-9.326 1.828-2.958 4.18-5.493 6.295-8.234 1.686-2.181 2.769-4.795 4.602-6.876 1.601-1.838 3.808-2.326 6.162-2.38l-.758-1.148c-2.997 7.134-4.551 15.129-11.029 20.062-2.983 2.276-6.375 3.955-9.619 5.811a49.71 49.71 0 01-10.01 4.605 79.441 79.441 0 01-9.828 2.43 10.43 10.43 0 01-3.828.198c-.51-.103-1.001-.223-1.128-.765-.183-.766.398-1.823.712-2.465 1.649-3.31 4.576-5.797 7.672-7.752 1.464-.924 3-1.727 4.41-2.717 1.41-.991 2.798-2.029 4.188-3.059 3.184-2.352 6.455-4.427 10.455-4.945 3.638-.47 7.321-.034 10.946-.506l-.651-1.221c-3.025 1.635-4.769 4.655-7.187 6.974-2.673 2.562-5.956 4.509-9.113 6.408a88.163 88.163 0 00-9.278 6.044c-3.063 2.415-6.202 4.764-9.179 7.286a30.433 30.433 0 00-7.108 8.795c-1.985 3.585-4.048 7.109-6.067 10.667a90.335 90.335 0 00-5.162 10.345c-1.529 3.741-2.482 7.68-4.112 11.391-1.383 3.158-3.155 6.141-4.677 9.232-1.068 2.168-2.602 5.736-5.366 6.022l.718.564c-1.313-3.102.137-6.733 1.31-9.649 1.62-4.037 3.144-8.129 4.86-12.11a102.674 102.674 0 016.434-12.558c2.478-4.046 5.667-7.503 9.006-10.838 1.658-1.643 3.277-3.315 4.981-4.938 1.588-1.519 3.283-2.721 5.524-2.947l-.796-.886c.422 8.348 1.191 16.797.052 25.117-1.152 8.455-5.441 15.958-7.764 24.078l.872.162c-.602-.852-.685-2.05-.759-3.052a35.52 35.52 0 01-.024-4.204c.105-2.482.402-4.953.499-7.433.14-4.183.554-8.352 1.24-12.481.741-4.324 1.497-8.745 2.888-12.914.852-2.57 3.266-5.509 1.852-8.3-.116-.23-.498-.749-.829-.521-5.831 3.949-11.844 7.659-17.847 11.352-2.971 1.836-5.939 3.582-8.908 5.377a32.986 32.986 0 00-3.925 2.628c-1.144.937-2.052 1.968-3.605 2.123l.796.885c-.391-3.308 1.955-5.846 4.388-7.736 2.609-1.996 5.564-3.486 8.487-4.981 2.923-1.494 5.872-3.208 9.024-4.435 3.801-1.478 7.733-2.802 10.941-5.417.348-.283.012-.881-.268-1.086-5.827-4.216-13.448-1.251-19.844-.383-4.027.552-8.089.6-12.135.928-1.98.156-3.948.391-5.933.495-1.73.047-3.461.008-5.187-.118-1.373-.083-2.72-.1-4.082-.226-.882-.083-3.203-.123-3.682-1.004.006.273.011.547.025.817 5.947-4.223 13.311-5.192 20.424-5.503 7.875-.354 16.158-.381 22.438 5.141l-.269-1.085c-4.752 3.925-11.221 4.992-16.582 7.807-5.226 2.728-9.579 6.75-14.63 9.765a29.57 29.57 0 01-14.688 4.305c-5.619.136-11.236.615-16.866.66-6.705.036-13.546-1.144-18.595-5.87l.263.776c.638-1.918 3.964-2.143 5.607-2.331 2.201-.256 4.45-.215 6.633-.588 2.996-.515 5.697-1.811 8.817-1.359 3.467.503 6.696 1.998 10.225 2.196 3.53.198 7.224.577 10.762.318 2.009-.147 3.924-1.137 5.846-1.675.746-.209 1.976-.678 2.756-.405.78.273.911 1.165.886 1.847-.065 1.959-1.167 3.893-2.126 5.542-.959 1.648-2.091 3.253-3.18 4.855-1.51 2.21-2.742 4.603-4.238 6.836a55.512 55.512 0 01-6.449 7.996c-1.97 2.01-4.145 3.772-6.246 5.628-3.185 2.821-6.567 6.01-10.574 7.61-1.053.422-3.716 1.208-4.305-.354-.494-1.287 1.112-3.158 1.853-4.023 2.562-3.095 5.859-5.595 9.044-8.011 5.058-3.841 10.133-7.709 14.646-12.192a16.208 16.208 0 014.039-3.109l-.844-1.098c-4.749 6.812-13.186 10.18-20.94 12.195a69.379 69.379 0 01-11.669 2.113c-4.53.367-9.065-.156-13.597.005-4.941.18-9.909 1.169-14.789-.221l.649.723c-.474-1.787 2.729-3.041 3.919-3.541a47.768 47.768 0 018.678-2.482c6.073-1.267 12.245-1.341 18.357-2.393a18.864 18.864 0 017.488-.372c2.316.222 4.649.425 6.889-.355.557-.19.092-1.07-.288-1.211-2.536-.959-5.175-.608-7.817-.67a53.428 53.428 0 01-9.573-1.393c-6.158-1.304-12.394-2.227-18.506-3.624a53.802 53.802 0 01-18.677-8.113c-4.097-2.82-7.825-6.13-11.947-8.894-1.751-1.174-3.499-2.368-5.148-3.682a22.139 22.139 0 01-2.281-2.027c-.376-.395-.995-.958-1.026-1.545-.12.123-.25.247-.373.375 8.706 2.341 17.337 5.464 24.593 10.945 1.669 1.255 3.168 2.717 4.886 3.901a43.268 43.268 0 005.13 2.962c3.858 1.929 7.906 3.591 11.085 6.549l-.265-.771c-.652 4.155-6.113 3.623-9.211 3.454-5.298-.296-10.64-.148-15.945-.235-3.171-.056-6.332-.105-9.501-.152a80.645 80.645 0 01-8.314-.24c-3.993-.465-8.545-1.722-12.466-.343a21.45 21.45 0 00-4.697 2.673c-1.299.883-3.197 1.982-3.888 3.437a.895.895 0 00.61 1.133c7.395 1.365 15.097 1.039 22.465-.354 3.697-.707 7.212-1.924 10.837-2.778a56.637 56.637 0 0110.49-1.302c3.086-.129 6.902.433 9.608-1.399.434-.297-.127-1.182-.533-1.217-8.808-.824-16.808-4.449-24.724-8.159-3.825-1.79-7.664-3.58-11.634-5.02-3.408-1.257-6.925-2.3-10.588-2.391a14.532 14.532 0 00-5.66.873c-2.007.781-3.47 2.443-5.447 3.283-.55.238.244 1.128.533 1.217.732.222 1.51.239 2.251.05a7.497 7.497 0 012.939-.107c2.414.371 4.701 1.293 7.065 1.948 4.932 1.484 9.945 2.716 14.936 3.999 4.515 1.186 9.018 2.564 13.565 3.57 4.187.905 8.279.916 12.531 1.105 4.252.189 8.861.855 13.128-.077.625-.136-.009-1.376-.545-1.259-3.91.868-8.012.346-11.965.13-4.134-.22-8.21-.123-12.305-.917-4.413-.858-8.72-2.23-13.068-3.361-4.99-1.297-10.004-2.516-14.953-3.946-2.596-.745-5.15-1.745-7.797-2.292a8.966 8.966 0 00-3.26-.257c-1.012.177-1.798.469-2.83.15l.534 1.217c1.678-.728 2.956-2.093 4.576-2.919a12.307 12.307 0 015.146-1.163c3.93-.139 7.782 1.027 11.435 2.34 7.77 2.853 14.99 6.993 22.745 9.9a52.63 52.63 0 0013.689 3.33l-.533-1.217c-2.387 1.612-5.77 1.221-8.507 1.289a57.356 57.356 0 00-10.19 1.077c-3.493.711-6.849 1.935-10.336 2.684a69.36 69.36 0 01-11.125 1.468 55.213 55.213 0 01-12.786-.762l.61 1.134c.53-1.115 1.803-1.893 2.736-2.597a40.794 40.794 0 013.778-2.436c2.948-1.686 6.132-1.517 9.415-1.113 1.778.217 3.546.513 5.33.684 2.02.193 4.022.12 6.027.141 5.12.051 10.236.157 15.358.23 4.223.066 8.434.032 12.664.209 2.474.107 5.785.314 7.696-1.58.65-.647 1.529-2.107.991-3.022-.42-.711-1.423-1.311-2.069-1.791a29.014 29.014 0 00-2.878-1.868c-4.059-2.343-8.578-3.915-12.365-6.719-2.277-1.691-4.311-3.605-6.697-5.181a57.021 57.021 0 00-6.926-3.885 92.257 92.257 0 00-15.672-5.532.324.324 0 00-.366.225.326.326 0 00-.01.155c.065 1.315 1.164 2.426 2.06 3.284a39.65 39.65 0 004.525 3.593c1.422 1.005 2.886 1.964 4.332 2.941 2.07 1.409 3.962 3.09 5.946 4.612 5.575 4.27 11.434 7.951 18.167 10.091 6.341 2.02 12.954 2.869 19.473 4.14 3.71.721 7.374 1.658 11.126 2.098 1.584.186 3.178.265 4.773.234 1.914-.031 3.875-.106 5.7.585l-.289-1.211c-4.087 1.419-8.462-.34-12.658.42-4.196.759-8.474 1.145-12.787 1.517a58.074 58.074 0 00-15.427 3.445c-1.65.631-4.29 1.586-4.903 3.484a1.654 1.654 0 00.634 2.063c1.098.401 2.255.618 3.423.641 1.135.1 2.275.135 3.414.103 2.394-.038 4.788-.333 7.179-.465 2.533-.143 5.066-.051 7.597.018a62.762 62.762 0 0013.923-1.11c9.428-1.837 20.32-5.251 26.088-13.52.287-.409-.36-1.344-.852-1.095a17.79 17.79 0 00-4.47 3.548 68.14 68.14 0 01-4.703 4.296c-2.822 2.341-5.748 4.579-8.652 6.816-3.262 2.5-6.59 4.968-9.366 8.017-1.142 1.252-2.512 2.812-2.698 4.587a3.116 3.116 0 002.207 3.227c1.788.592 3.826-.305 5.398-1.145a37.118 37.118 0 006.266-4.444c4.405-3.679 8.859-7.422 12.49-11.889a74.42 74.42 0 006.525-9.727c.898-1.556 2.004-2.991 2.982-4.501 1.704-2.631 5.241-7.848 2.272-10.763-1.457-1.438-3.678-.482-5.352.056-1.113.353-2.202.775-3.32 1.088-1.537.434-3.287.304-4.865.232-3.985-.171-8.008-.178-11.889-1.182a42.993 42.993 0 00-5.503-1.345 13.866 13.866 0 00-4.815.331c-1.417.326-2.804.86-4.254 1.095-1.152.174-2.328.219-3.491.301-2.413.169-5.113.244-7.34 1.309a3.015 3.015 0 00-1.685 1.762.887.887 0 00.265.771c9.04 8.443 21.546 6.096 32.778 5.748 2.979-.091 5.906-.006 8.853-.571a27.886 27.886 0 006.929-2.32c5.251-2.537 9.571-6.514 14.488-9.592a54.753 54.753 0 019.841-4.632c3.391-1.273 6.926-2.549 9.756-4.879.365-.3-.006-.863-.265-1.091a22.627 22.627 0 00-10.905-5.052c-3.807-.714-7.696-.523-11.547-.374-7.43.285-15.178 1.181-21.419 5.618-.271.199-.094.606.022.823 1.005 1.802 4.153 1.787 5.902 1.908a67.83 67.83 0 008.982.214c4.144-.264 8.288-.613 12.433-.891 3.903-.35 7.784-.912 11.626-1.683 4.1-.729 8.846-1.285 12.424 1.313l-.265-1.09c-3.299 2.712-7.382 4.027-11.291 5.556-3.303 1.304-6.334 3.097-9.485 4.716-4.823 2.486-13.116 6.307-12.325 12.971.041.371.347.911.798.88 1.356-.134 2.279-.858 3.271-1.741a28.554 28.554 0 013.879-2.733c3.016-1.852 6.077-3.636 9.093-5.489 6.141-3.771 12.269-7.57 18.254-11.601l-.828-.521c.714 1.407-.117 3.143-.717 4.452a30.07 30.07 0 00-1.62 4.037 108.51 108.51 0 00-2.774 13.158 103.488 103.488 0 00-1.053 11.58c-.101 2.634-.428 5.243-.515 7.878-.07 2.361-.305 5.549 1.135 7.595.178.245.725.674.872.162 2.362-8.274 6.722-15.9 7.824-24.526 1.054-8.284.33-16.65-.089-24.954-.019-.373-.364-.92-.799-.88-4.09.416-6.797 4.109-9.519 6.806-3.366 3.37-6.787 6.736-9.445 10.749-5.31 8.029-8.648 17.132-12.183 26.022-1.353 3.389-2.798 7.306-1.306 10.874a.834.834 0 00.722.558c2.268-.238 3.714-2.522 4.735-4.326 1.304-2.259 2.349-4.66 3.605-6.946a57.807 57.807 0 004.403-10.456 69.813 69.813 0 014.848-11.62c1.87-3.558 3.953-6.994 5.951-10.479 1.997-3.484 3.652-7.224 6.422-10.164 2.77-2.939 6.306-5.337 9.514-7.867a90.24 90.24 0 019.095-6.44c3.593-2.188 7.257-4.227 10.495-6.896 2.995-2.469 4.981-6.167 8.423-8.057.507-.276-.207-1.278-.654-1.216-3.575.458-7.19.039-10.763.47-3.72.452-6.854 2.165-9.86 4.322-1.576 1.129-3.1 2.33-4.688 3.444-1.588 1.115-3.176 1.945-4.762 2.933-3.311 2.045-6.398 4.673-8.111 8.23-.931 1.92-1.228 4.427 1.268 5.186 2.635.811 5.946-.346 8.509-.948a59.841 59.841 0 0011.001-3.478c1.829-.819 3.518-1.875 5.261-2.865 1.85-1.063 3.72-2.05 5.541-3.137 4.129-2.453 7.55-5.4 9.848-9.677 2.242-4.154 3.413-8.777 5.199-13.101a.877.877 0 00-.1-.758.876.876 0 00-.658-.39c-2.33.075-4.524.528-6.183 2.234-2.038 2.09-3.181 4.968-4.964 7.269-2.22 2.873-4.624 5.548-6.555 8.646-2.055 3.352-3.999 6.768-5.927 10.193-1.928 3.426-3.822 6.878-5.782 10.285-1.095 1.897-2.303 3.707-3.436 5.582-1 1.645-2.042 3.537-2.154 5.503-.064 1.341.672 3.819 2.347 3.735 4.952-.238 7.613-6.039 9.434-9.846a76.553 76.553 0 0110.457-16.585c4.417-5.191 7.885-10.903 8.656-17.774.326-2.901.392-5.846 1.016-8.711.705-3.251 2.326-5.923 4.329-8.531 3.784-4.918 8.733-9.689 9.469-16.154.143-1.245.314-2.156-.767-2.929a4.089 4.089 0 00-2.283-.856c-1.666-.017-2.878 1.393-3.752 2.649-.936 1.349-1.591 2.903-2.583 4.191-1.996 2.62-5.127 3.688-8.18 4.511-3.724 1.011-7.451 2.005-11.148 3.117a38.237 38.237 0 01-9.83 1.662c-5.8.203-12.303-.441-17.573 2.461a10.764 10.764 0 00-4.833 5.456c-.927 2.306-1.479 5.39-.569 7.812.911 2.422 3.216 3.043 5.487 2.074 1.227-.513 2.028-1.507 3.025-2.337 1.247-1.028 2.799-1.403 4.28-1.962 3.284-1.236 5.954-3.878 8.854-5.79a44.646 44.646 0 019.861-4.592c6.217-2.157 12.841-3.603 18.686-6.642 2.938-1.521 4.604-3.791 6.11-6.694 1.676-3.223 3.528-6.344 5.268-9.53a187.65 187.65 0 009.253-20.185c2.916-7.266 6.139-14.411 9.716-21.381a242.297 242.297 0 015.354-9.815c.277-.479-.618-1.55-.926-1.017l.013-.021z"/><path d="M358.986 68.086a272.91 272.91 0 01-12.046 19.006c-4.261 6.15-8.959 11.974-13.227 18.112-4.149 5.957-7.598 12.311-11.463 18.44-1.644 2.602-3.266 5.153-3.505 8.297a47.495 47.495 0 00.515 9.197c.826 6.713 2.229 13.596 1.459 20.368-.379 3.375-1.515 6.867-1.29 10.279.112 1.627.46 3.213.055 4.826-.295 1.2-.738 2.336-.657 3.598.083 1.603.787 4.198 2.8 4.181 2.442-.011 4.897-2.614 6.27-4.378 3.335-4.275 2.996-9.557 1.304-14.426-.957-2.684-2.232-5.273-3.406-7.89a31.993 31.993 0 01-1.907-5.185c-.472-1.828-.659-3.719-.961-5.584-.561-3.506-1.329-6.997-1.785-10.513a12.914 12.914 0 011.224-7.902c1.391-2.57 4.137-5.936 2.174-8.909-.33-.51-1.073-1.265-1.728-1.288-.528-.021-1.116.605-1.531.955a16.581 16.581 0 00-1.774 1.732 30.065 30.065 0 00-4.724 7.984c-1.297 2.973-2.391 6.049-3.852 8.948a23.61 23.61 0 01-6.027 7.438c-2.32 1.963-4.828 3.711-6.991 5.858a31.653 31.653 0 00-5.492 7.767c-1.612 3.061-2.739 6.281-4.09 9.458a89.225 89.225 0 01-5.108 9.622c-2.461 4.262-6.31 8.382-7.362 13.329a8.684 8.684 0 00-.137 2.933c.089.669.278 1.979.773 2.449 1.174 1.104 3.087-.426 3.885-1.266a22.804 22.804 0 003.22-5.023c1.23-2.365 2.559-4.667 3.918-6.972 3.8-6.471 7.903-12.839 11.287-19.55 1.618-3.207 2.696-6.662 4.286-9.884 1.136-2.335 2.9-4.555 3.371-7.167.366-2.012-.25-3.959-1.07-5.774-.034-.077-.262-.543-.385-.379-2.42 3.319-5.199 6.36-7.508 9.757a26.657 26.657 0 00-4.525 10.975c-.631 4.032-.671 8.136-.987 12.215a44.613 44.613 0 00.857 11.384c.288 1.544 2.065 14.077 5.846 10.591 2.593-2.388 3.739-6.549 4.298-9.905.616-3.637.727-7.323 1.365-10.975.638-3.652 1.364-7.494.533-11.22-.832-3.726-3.061-7.002-4.258-10.662-.034-.112-.515-1.05-.537-.644-.163 3.592-2.155 6.747-3.03 10.169a70.14 70.14 0 00-1.506 10.9 96.774 96.774 0 01-1.602 11.683c-.826 3.891-1.403 7.855-2.488 11.69-1.049 3.748-3.119 7.013-5.111 10.317-2.072 3.441-3.985 6.975-6.062 10.414a84.515 84.515 0 01-6.779 9.809c-2.439 2.995-4.962 5.864-7.078 9.11a295.429 295.429 0 00-5.12 8.131c-1.211 1.986-2.634 4.439-1.804 6.815.037.12.247.803.489.765 3.168-.664 5.429-3.585 7.295-6.016 2.643-3.446 5.286-6.892 7.806-10.409a121.916 121.916 0 008.102-12.717c2.289-4.198 3.819-8.705 5.225-13.256.753-2.449 1.633-4.896 2.234-7.39a9.445 9.445 0 00-.141-5.501c-.013-.05-.305-.886-.488-.765-6.922 4.215-14.037 8.233-20.189 13.574-6.39 5.544-10.659 12.938-16.259 19.18-.2.225.217 1.297.52 1.302 2.048.045 4.229-1.764 5.8-2.874 2.116-1.499 4.109-3.168 6.189-4.716a123.208 123.208 0 0018.191-16.239 39.134 39.134 0 002.928-3.843c.862-1.221 1.926-2.745 3.522-2.938l-.574-1.184c-.934 7.032-1.625 14.084-2.27 21.156-.33 3.474-.561 6.963-.918 10.436a40.548 40.548 0 01-.836 4.781 5.372 5.372 0 00.132 3.13c.021.062.295.88.489.765 4.559-2.41 5.082-8.728 5.321-13.264.391-5.466.426-10.953.107-16.424a45.738 45.738 0 01-.164-5.116c.025-.803.091-1.604.199-2.4.045-.3.018-1.261.508-1.347.289-.046 1.177.68 1.35.836 2.581 2.087 3.453 5.68 4.234 8.745 1.65 6.493 4.249 12.582 6.608 18.831a58.5 58.5 0 003.759 7.625c.669 1.203 2.125 4.501 3.872 4.366a.123.123 0 00.064-.112c1.068-6.906-.914-13.647-3.583-19.961-2.756-6.52-5.988-13.778-13.352-16.019a.062.062 0 00-.026-.009.063.063 0 00-.027.004.056.056 0 00-.021.017.044.044 0 00-.011.024c-1.343 6.079.412 12.363.084 18.516-.309 5.852-1.938 11.538-2.229 17.394a29.069 29.069 0 002.633 13.758c2.288 4.957 4.075 10.165 6.542 15.02 2.57 4.986 6.158 9.437 11.801 10.919.043.025.059.034.09-.033 1.285-1.56.501-4.115-.019-5.821-.712-2.336-1.994-4.568-2.437-6.976-.534-2.901-.955-5.85-2.811-8.257-1.069-1.384-2.35-2.585-3.489-3.91-1.344-1.572-2.188-3.395-3.194-5.183-1.006-1.788-2.316-3.653-2.902-5.653a18.318 18.318 0 01-.423-2.957c-.195-1.569-.261-4.186-1.479-5.386-2.716-2.676-6.477 4.564-7.32 6.122-.844 1.559-1.627 3.323-2.502 4.949-1.663 3.088-3.433 6.093-4.856 9.271-2.395 5.379-3.76 11.04-5.138 16.736a60.126 60.126 0 00-1.319 6.861c-.231 1.926-.377 4 .229 5.878.361 1.11 1.121 2.622 2.502 2.581 1.38-.042 2.257-1.695 2.78-2.749 1.873-3.785 2.64-8.165 3.402-12.277 1.188-6.339 2.351-12.685 4.23-18.867a18.47 18.47 0 00.967-5.045c.003-.19-.5-1.361-.604-1.144-3.497 7.214-3.205 15.7-1.793 23.405a67.565 67.565 0 002.78 10.711c1.494 4.165 3.965 7.893 5.648 11.955 1.683 4.061 2.907 8.497 5.984 11.779a.12.12 0 00.047.048c.02.011.042.017.065.017 1.804-.664 1.776-3.457 1.737-5.014a43.765 43.765 0 00-1.342-8.858 63.152 63.152 0 00-1.94-6.802c-.615-1.74-1.374-3.428-1.979-5.184-.765-2.267-1.287-4.6-2.03-6.854a24.456 24.456 0 00-2.594-5.006c-.516-.853-1.686-2.394-1.504-3.447.078-.481-.165-.244.155-.109.372.314.672.703.883 1.141.346.577.655 1.176.925 1.792 2.133 4.598 5.226 8.308 8.336 12.27 3.111 3.963 6.037 8.28 9.53 12.037a38.748 38.748 0 0013.176 9.163c2.732 1.186 5.558 2.086 8.313 3.194 1.192.482 2.329 1.096 3.493 1.64a38.762 38.762 0 005.059 2.026c1.023.307 2.54.792 3.546.194.28-.165-.27-1.108-.402-1.248-4.003-4.371-8.357-8.505-13.496-11.514a45.9 45.9 0 00-8.436-3.656c-2.632-.916-4.927-2.539-7.205-4.117-2.278-1.578-4.554-3.184-7.177-4.066-.595-.201-.847-.404-1.318-.093-.318.272-.585.6-.785.967a4.461 4.461 0 00-.615 2.209c-.088 3.388 2.232 6.382 3.637 9.288 2.702 5.58 5.518 11.098 8.282 16.644 1.193 2.4 2.254 4.916 3.646 7.218 1.124 1.879 2.481 3.613 3.597 5.494a9.843 9.843 0 011.608 5.9 37.807 37.807 0 01-.734 5.628c-.122.554-.19 1.559-.591 1.995-.119.145-.071.208-.191.231a4.67 4.67 0 01-.52-.698 34.317 34.317 0 01-1.279-1.931 47.587 47.587 0 01-3.867-7.83 60.18 60.18 0 01-2.821-9.655c-.605-2.963-.904-5.977-1.673-8.914a54.767 54.767 0 00-2.629-7.527c-1.034-2.429-2.782-5.023-2.431-7.76l-.322-.143c3.813 6.214 9.381 10.693 15.216 14.907 3.064 2.21 6.154 4.398 9.004 6.882 2.658 2.323 5.341 4.945 6.662 8.292a10.64 10.64 0 01.484 5.792c-.105.649-.236 1.319-.288 1.964-.038.348.122 1.129-.175.61a4.552 4.552 0 01-.34-1.17c-.847-2.975-3.73-5.116-5.773-7.225-2.808-2.886-5.471-5.915-8.145-8.922-2.525-2.836-5.18-5.569-7.665-8.438a38.577 38.577 0 01-3.572-4.676c-1.022-1.649-1.793-3.415-2.724-5.124-1.759-3.325-4.092-6.568-4.935-10.287-.075-.313-.745-1.403-.546-.542.756 3.278 2.483 6.278 4.13 9.196 1.826 3.185 3.253 6.594 5.418 9.599 2.279 3.162 5.1 5.928 7.7 8.807 3.143 3.462 6.19 7.018 9.412 10.406 1.716 1.814 3.687 3.456 5.227 5.439.49.598.852 1.291 1.063 2.034.09.337.147.668.262.997a4.453 4.453 0 001.043 1.725c.096.055.17.062.161-.071-.058-1.646.445-3.23.557-4.863a11.928 11.928 0 00-.61-4.295 19.591 19.591 0 00-4.309-7.189c-5.148-5.636-11.922-9.455-17.812-14.212a41.202 41.202 0 01-9.423-10.412c-.061-.092-.283-.433-.317-.141-.441 3.397 1.801 6.723 3.051 9.738a47.65 47.65 0 012.184 6.453c.556 2.211.832 4.451 1.224 6.688 1.472 8.4 4.516 16.919 9.712 23.776.064.037.156.21.219.126 1.144-1.712 1.219-4.474 1.423-6.452.237-2.242.288-4.287-.545-6.437-1.059-2.742-2.882-5.109-4.485-7.561-2.194-3.348-3.735-7.186-5.528-10.749-1.94-3.862-3.891-7.716-5.782-11.599-.683-1.389-1.335-2.795-2.08-4.149a24.718 24.718 0 01-1.752-3.511 5.053 5.053 0 01.016-4.111c.473-.906.999-1.362 2.047-1.012.947.328 1.865.734 2.744 1.214 3.419 1.854 6.332 4.523 9.843 6.216 2.081 1.009 4.368 1.513 6.492 2.448a38.627 38.627 0 015.979 3.324 63.968 63.968 0 0111.183 10.008l-.429-1.249c-1.026.608-2.522.099-3.564-.225a37.983 37.983 0 01-4.699-1.875c-1.177-.544-2.334-1.149-3.524-1.658-2.346-1.006-4.809-1.747-7.173-2.721-5.573-2.294-10.472-5.335-14.557-9.825-3.785-4.11-6.862-8.806-10.378-13.137-2.022-2.488-4.108-4.978-5.672-7.792-1.232-2.21-1.911-4.797-3.881-6.503-.163-.136-.175.056-.163.184.376 3.384 2.555 5.786 3.945 8.755.87 1.851 1.227 4.025 1.807 5.973.581 1.947 1.228 3.692 1.946 5.499a57.161 57.161 0 013.41 12.892c.311 2.119.685 4.657-.006 6.716-.171.505-.691 1.639-1.322 1.403-.784-.289-1.626-2.104-1.962-2.752a30.993 30.993 0 01-1.44-3.14c-.738-1.847-1.397-3.733-2.209-5.537-.871-1.923-1.874-3.803-2.844-5.691a50.703 50.703 0 01-4.178-11.61c-2.03-8.566-2.919-18.32 1.073-26.463l-.607-1.139c-.064 3.444-1.614 6.782-2.412 10.107-.797 3.325-1.414 6.854-2.108 10.282-.648 3.177-1.163 6.332-1.956 9.454a36.28 36.28 0 01-1.684 5.278c-.5 1.174-1.182 2.798-2.416 3.385-3.609 1.724-2.259-6.347-2.021-7.744.632-3.74 1.614-7.47 2.551-11.148a71.87 71.87 0 017.169-17.411c1.775-3.173 3.24-6.547 5.185-9.621.889-1.405 1.968-3.076 3.505-3.844a2.058 2.058 0 011.735-.177c.742.365.711 1.611.821 2.356.237 1.607.214 3.32.735 4.878 1.004 3.023 2.908 5.728 4.348 8.548 1.315 2.57 3.331 4.48 5.194 6.628a10.189 10.189 0 012.333 5.161c.164 1.145.389 2.279.672 3.4.598 1.943 1.493 3.788 2.12 5.727.408 1.081.631 2.222.658 3.377 0 .413-.075.822-.222 1.208-.351.841-1.028.464-1.74.209-5.458-1.951-8.617-6.949-10.905-11.978-1.147-2.516-2.119-5.102-3.173-7.656-1.054-2.555-2.45-5.094-3.329-7.767-1.68-5.111-1.262-10.46-.447-15.686.494-3.181 1.141-6.344 1.425-9.554.232-2.99.208-5.993-.073-8.978-.137-1.67-.293-3.344-.349-5.017-.057-1.674-.285-3.801.27-5.292.336-.9.893-.5 1.642-.174.754.328 1.477.722 2.162 1.177 1.454.993 2.75 2.2 3.842 3.582 2.048 2.603 3.342 5.651 4.646 8.67a56.39 56.39 0 012.979 8.276 28.466 28.466 0 01.943 8.982c-.03.459.059 1.781-.281 2.111-.339.33-.713-.106-.995-.355a10.783 10.783 0 01-2.004-2.84 54.9 54.9 0 01-3.268-6.297c-1.261-3.108-2.379-6.275-3.64-9.382a69.34 69.34 0 01-3.03-9.257 35.926 35.926 0 00-2.52-7.542c-1.015-2.007-2.407-3.805-4.506-4.733a.046.046 0 00-.025-.008.048.048 0 00-.027.004.05.05 0 00-.022.016.07.07 0 00-.011.025c-.792 3.648-.482 7.343-.205 11.033a99.547 99.547 0 01-.023 10.264c-.085 3.346-.132 6.736-.817 10.026-.617 2.89-1.808 5.875-4.551 7.317l.492.76c-.513-1.462.326-3.186.555-4.652.228-1.466.379-3.02.49-4.54.259-3.267.557-6.525.865-9.778.624-6.579 1.286-13.151 2.145-19.708.027-.219-.263-1.217-.569-1.181-2.494.336-3.824 3.574-5.202 5.321-2.686 3.422-6.086 6.48-9.29 9.446-4.808 4.441-10.093 8.379-15.361 12.262a38.442 38.442 0 01-3.781 2.526c-.899.511-1.953 1.096-3.025 1.095l.519 1.301c5.606-6.239 9.881-13.643 16.265-19.177 6.149-5.335 13.278-9.38 20.188-13.573l-.492-.76c.749 2.123.11 4.325-.535 6.389l-1.906 6.18a68.88 68.88 0 01-5.01 12.577c-4.286 7.867-9.75 14.919-15.109 22.061-2.04 2.721-4.47 6.254-8.031 6.997l.491.76c-.752-2.154 1.529-5.219 2.614-6.901 1.552-2.393 3-4.852 4.565-7.23 2.108-3.123 4.577-5.959 6.982-8.896a83.938 83.938 0 006.658-9.588c2.043-3.366 3.94-6.824 5.94-10.214 1.899-3.166 3.971-6.288 5.1-9.841 1.174-3.719 1.739-7.626 2.508-11.444a100.317 100.317 0 001.662-10.752c.38-4.263.617-8.573 1.62-12.745.853-3.57 2.913-6.842 3.081-10.566l-.546-.678c.925 2.864 2.489 5.444 3.541 8.26 1.287 3.456 1.004 6.972.403 10.56-.512 3.1-1.075 6.141-1.301 9.278-.256 3.567-.875 7.173-2.512 10.39-.843 1.644-3.361 5.823-4.939 2.539a15.369 15.369 0 01-1.002-3.419c-.429-1.889-.834-3.784-1.157-5.697a42.131 42.131 0 01-.577-10.319c.299-3.692.335-7.421.842-11.092a26.761 26.761 0 014.568-11.504c2.31-3.397 5.088-6.438 7.509-9.757l-.389-.373c1.832 4.061-.602 7.096-2.401 10.617-1.118 2.195-2.004 4.567-2.948 6.878a65.969 65.969 0 01-3.486 7.072c-4.502 8.055-9.423 15.804-13.797 23.897-1.108 2.067-3.339 6.596-6.369 5.557l.373.584c-1.356-3.581 1.367-7.769 3.221-10.648 2.425-3.757 4.815-7.491 6.942-11.433 2.457-4.563 3.927-9.545 6.367-14.117a32.662 32.662 0 014.343-6.463 40.461 40.461 0 015.042-4.526c3.618-2.883 6.904-5.695 9.017-9.873 2.168-4.296 3.529-8.965 5.919-13.154a19.422 19.422 0 014.703-5.687c.721-.571 1.637-.916 2.302-.013.418.568.078 1.515-.133 2.125-.934 2.749-2.968 4.92-3.623 7.788-1.002 4.393.529 9.184 1.262 13.513.429 2.528.685 5.112 1.251 7.613a34.384 34.384 0 002.183 6.282c1.764 3.994 4.031 7.966 4.465 12.393.455 4.638-1.727 8.848-5.423 11.608-1.541 1.156-4.718 2.759-4.962-.472-.063-1.122.378-2.217.645-3.307a9.079 9.079 0 00.178-2.88 25.17 25.17 0 01-.229-3.577c.132-1.487.342-2.966.627-4.432.475-2.431.764-4.895.867-7.37.086-4.922-.678-9.788-1.298-14.656-.301-2.369-.625-4.736-.807-7.114-.183-2.379-.34-5.083.449-7.434.76-2.252 2.171-4.215 3.413-6.219 1.407-2.277 2.705-4.624 4.083-6.925 2.781-4.631 5.694-9.185 8.888-13.549 3.301-4.487 6.687-8.839 9.859-13.386 3.173-4.547 6.23-9.117 9.135-13.804a272.234 272.234 0 004.304-7.196c.175-.304-.507-1.373-.593-1.224l.041.052zm-93.213 236.432c-1.922 9.481-2.81 19.495-7.997 27.9-2.24 3.622-4.711 7.103-6.784 10.828-1.968 3.545-3.666 7.409-3.997 11.5-.177 2.25.217 4.459.4 6.688.218 2.526.335 5.066.453 7.606.244 5.113.537 10.253 1.621 15.276 1.02 4.73 2.599 9.314 4.049 13.901a166.452 166.452 0 005.357 14.515c1.018 2.42 2.053 4.835 3.067 7.261.906 2.121 1.73 4.188 3.142 6.011 2.443 3.151 6.008 4.96 9.416 6.857 5.336 2.974 9.986 7.136 15.649 9.532 2.472 1.044 5.306 1.771 7.973 1.088 3.022-.756 5.02-3.097 6.518-5.691a39.953 39.953 0 004.118-10.947c.426-1.787.497-3.641.209-5.455a19.295 19.295 0 00-2.125-5.965c-2.149-3.968-5.59-7.049-8.693-10.261-3.436-3.56-6.982-7.099-11.051-9.931-1.848-1.301-3.794-2.482-5.693-3.671a28.937 28.937 0 00-5.868-3.075c-4.031-1.383-8.256-.363-12.315.319-2.004.39-4.046.551-6.086.478-.503-.027-.414.827-.317 1.089 1.173 3.099 1.479 6.408 1.956 9.653a38.06 38.06 0 00.936 4.802c.44 1.475.981 2.919 1.617 4.321a66.655 66.655 0 004.748 8.999c.947 1.498 1.965 2.946 2.934 4.429a99.832 99.832 0 007.382 10.256 33.527 33.527 0 004.557 4.57 12.057 12.057 0 004.653 2.509c3.267.75 6.226-1.434 7.381-4.432 1.238-3.213.289-6.872-.95-9.931-1.603-3.952-3.995-7.584-6.501-11.02-2.353-3.219-4.894-6.285-7.51-9.308-.844-.999-1.753-2.02-2.606-3.053-1.944-2.365-3.292-5.111-4.809-7.748-1.518-2.638-3.38-5.219-5.918-7.061-2.97-2.162-6.283-3.805-9.543-5.467-1.644-.843-3.286-1.691-4.887-2.608-.666-.384-.878.956-.372 1.248 3.148 1.818 6.449 3.333 9.635 5.087 2.891 1.598 5.801 3.349 7.929 5.949 1.919 2.386 3.22 5.176 4.739 7.786a35.033 35.033 0 003.612 5.012c4.96 5.804 10.083 11.631 13.741 18.374 1.608 2.96 3.258 6.462 3.023 9.92-.211 2.826-2.261 5.798-5.3 6.018-3.5.231-6.68-2.898-8.865-5.239a77.113 77.113 0 01-7.712-10.177c-2.423-3.665-4.915-7.284-6.903-11.209a39.21 39.21 0 01-3.48-8.736c-.72-3.072-.917-6.211-1.513-9.325a26.429 26.429 0 00-1.231-4.376c-.104.366-.214.728-.316 1.089 4.119.247 8.081-1.067 12.174-1.403a14.562 14.562 0 015.897.564 28.077 28.077 0 015.934 3.057c1.848 1.166 3.729 2.301 5.511 3.558a55.014 55.014 0 015.455 4.477c3.592 3.289 6.864 6.897 10.262 10.386 2.803 2.883 5.11 6.686 5.642 10.736a13.538 13.538 0 01-.476 5.166 44.923 44.923 0 01-1.756 5.379c-1.205 3.047-2.757 6.598-5.598 8.466-2.252 1.441-4.899 1.511-7.411.842-5.734-1.534-10.484-5.598-15.382-8.752-2.95-1.902-6.225-3.303-9.014-5.46a15.08 15.08 0 01-3.792-4.221c-1.217-2.052-2.004-4.367-2.935-6.567-1.957-4.681-3.994-9.309-5.678-14.082-1.59-4.504-3.034-9.102-4.362-13.691a69.66 69.66 0 01-2.588-14.364c-.362-4.947-.403-9.907-.906-14.843a23.881 23.881 0 01-.128-6.189 23.59 23.59 0 011.743-5.748c1.655-3.803 3.948-7.295 6.212-10.761 1.084-1.655 2.167-3.309 3.173-5.015a34.574 34.574 0 002.813-6.189c1.602-4.559 2.501-9.339 3.364-14.082.418-2.273.813-4.545 1.274-6.808.063-.305.054-.757-.24-.948a.408.408 0 00-.393-.018.41.41 0 00-.229.319l-.039.006zm-55.466 106.439l-1.491-1.329.381.816c.649-3.177 2.177-6.144 3.805-8.926 1.731-2.999 3.723-5.834 5.645-8.709 1.923-2.874 3.713-5.975 5.566-8.975 2.237-3.616 4.534-7.276 5.988-11.295 1.454-4.019 2.046-8.464 4.639-12.046.31-.425-.67-1.41-.926-1.053-2.413 3.344-3.139 7.308-4.387 11.154-1.377 4.255-3.727 8.105-6.068 11.889-2.018 3.274-3.946 6.6-6.089 9.795-2.058 3.073-4.146 6.087-5.951 9.299a35.312 35.312 0 00-2.485 5.263 12.575 12.575 0 00-.752 2.62 1.059 1.059 0 00.464.979c.466.425.94.833 1.411 1.248.167.153.511.344.659.089.147-.256-.235-.676-.384-.812l-.025-.007z"/><path d="M286.77 442.744c-1.184 2.051-2.06 4.258-3.287 6.285-1.052 1.736-2.52 3.517-4.68 3.726-3.329.329-6.075-2.272-7.969-4.651-1.894-2.379-3.649-5.097-5.828-7.363-1.076-1.126-2.278-2.118-3.284-3.317a22.082 22.082 0 01-2.499-3.631 37.263 37.263 0 01-3.413-8.618 59.5 59.5 0 01-1.658-9.147c-.331-3.032-.606-6.16.12-9.164.866-3.592 2.705-6.962 3.13-10.637.414-3.511-.179-7.405 1.391-10.69.36-.758-.944-1.255-1.297-.521-1.463 3.062-1.143 6.606-1.369 9.864-.259 3.572-1.764 6.745-2.778 10.137a18.534 18.534 0 00-.926 5.112c-.019 1.495.087 2.998.207 4.488a62.501 62.501 0 001.541 9.633 41.236 41.236 0 003.278 9.159 26.666 26.666 0 002.443 3.889 34.761 34.761 0 003.341 3.513c2.339 2.309 4.14 5.032 6.157 7.617 2.103 2.706 4.865 5.352 8.477 5.605 5.913.374 7.845-6.651 10.183-10.749.418-.724-.891-1.225-1.292-.518l.012-.022z"/></g></g><defs><clipPath id="clip0_1_227"><path fill="#fff" transform="rotate(-150 192.905 245.51)" d="M0 0h273.907v482.235H0z"/></clipPath></defs></svg>