<svg width="19" height="19" fill="none" xmlns="http://www.w3.org/2000/svg"><path d="M16.031 1.45H2.97A2.972 2.972 0 000 4.42v10.16a2.972 2.972 0 002.969 2.97H16.03A2.972 2.972 0 0019 14.58V4.419a2.972 2.972 0 00-2.969-2.969zm1.485 13.13c0 .82-.666 1.485-1.485 1.485H2.97a1.486 1.486 0 01-1.485-1.484V6.579L6.433 10.6a4.88 4.88 0 006.123.024l4.96-3.968v7.925zm0-9.825l-5.887 4.71a3.395 3.395 0 01-4.26-.017L1.484 4.666v-.247c0-.818.666-1.484 1.485-1.484H16.03c.819 0 1.485.666 1.485 1.484v.336z" fill="#2E1A1E"/></svg>