<svg width="17" height="17" fill="none" xmlns="http://www.w3.org/2000/svg"><g clip-path="url(#clip0_1_1494)"><path d="M15.008 0H1.992A1.994 1.994 0 000 1.992v13.016C0 16.106.894 17 1.992 17h13.016A1.994 1.994 0 0017 15.008V1.992A1.994 1.994 0 0015.008 0zm.664 15.008a.665.665 0 01-.664.664h-3.785V10.26h2.051l.34-2.059h-2.391V6.773a.98.98 0 01.996-.996h1.361V3.72h-1.36a3.054 3.054 0 00-3.054 3.06v1.422H7.172v2.059h1.993v5.412H1.992a.665.665 0 01-.664-.664V1.992c0-.366.298-.664.664-.664h13.016c.366 0 .664.298.664.664v13.016z" fill="#2E1A1E"/></g><defs><clipPath id="clip0_1_1494"><path fill="#fff" d="M0 0h17v17H0z"/></clipPath></defs></svg>