<svg width="18" height="28" fill="none" xmlns="http://www.w3.org/2000/svg"><g clip-path="url(#clip0_1_185)"><path d="M8.814.84C3.955.84 0 4.806 0 9.682c0 4.32 3.112 7.926 7.186 8.693v2.673h-2.31a1.48 1.48 0 00-1.475 1.482c0 .817.66 1.482 1.476 1.482h2.31v1.665a1.48 1.48 0 001.477 1.482c.816 0 1.48-.666 1.48-1.482v-1.665h2.425c.816 0 1.477-.667 1.477-1.482 0-.821-.66-1.482-1.476-1.482h-2.426v-2.625c4.241-.646 7.479-4.32 7.479-8.74 0-4.877-3.95-8.843-8.809-8.843zm0 14.718c-3.231 0-5.858-2.637-5.858-5.878 0-3.242 2.627-5.879 5.858-5.879 3.228 0 5.856 2.637 5.856 5.879 0 3.241-2.626 5.878-5.856 5.878z" fill="#7A5DA8"/></g><defs><clipPath id="clip0_1_185"><path fill="#fff" d="M0 0h18v28H0z"/></clipPath></defs></svg>