<svg width="17" height="15" fill="none" xmlns="http://www.w3.org/2000/svg"><g clip-path="url(#clip0_1_1561)"><path d="M.294 7.314l4.158 2.007c.16.077.35.071.504-.016l3.7-2.083-2.24 1.922a.508.508 0 00-.179.385v4.682c0 .494.651.702.956.31l1.798-2.314 4.444 2.45c.311.174.71 0 .783-.345L16.99.936c.083-.402-.33-.73-.714-.58L.338 6.374a.509.509 0 00-.044.94zm15.463-5.658L13.321 13.41l-4.21-2.322a.544.544 0 00-.689.138L7.3 12.672V9.76l6.057-5.197c.48-.411-.072-1.142-.62-.83L4.67 8.276 1.842 6.912l13.915-5.256z" fill="#7A5DA8"/></g><defs><clipPath id="clip0_1_1561"><path fill="#fff" d="M0 0h17v15H0z"/></clipPath></defs></svg>