<svg width="26" height="26" fill="none" xmlns="http://www.w3.org/2000/svg"><g clip-path="url(#clip0_1_1065)"><path d="M24.677 10.729H14.398a.82.82 0 00-.82.82v3.286c0 .453.367.82.82.82h5.79a7.717 7.717 0 01-3.324 3.895l2.466 4.273c3.955-2.287 6.296-6.307 6.296-10.801 0-.643-.048-1.101-.14-1.614a.83.83 0 00-.81-.68z" fill="#167EE6"/><path d="M13.027 20.586c-2.832 0-5.303-1.548-6.63-3.836l-4.274 2.46a12.578 12.578 0 0010.904 6.308c2.288 0 4.44-.616 6.302-1.69v-.005l-2.465-4.273a7.602 7.602 0 01-3.837 1.036z" fill="#12B347"/><path d="M19.324 23.829v-.006l-2.466-4.273a7.622 7.622 0 01-3.83 1.036v4.932c2.287 0 4.44-.616 6.296-1.69z" fill="#0F993E"/><path d="M5.36 12.92c0-1.398.382-2.704 1.035-3.832l-4.273-2.46a12.443 12.443 0 00-1.694 6.291c0 2.293.615 4.44 1.694 6.291l4.273-2.46a7.567 7.567 0 01-1.036-3.83z" fill="#FFD500"/><path d="M13.027 5.252c1.846 0 3.545.658 4.867 1.748a.82.82 0 001.1-.048l2.326-2.326a.826.826 0 00-.048-1.208A12.52 12.52 0 0013.027.32c-4.656 0-8.73 2.535-10.904 6.307l4.273 2.46c1.328-2.287 3.799-3.836 6.631-3.836z" fill="#FF4B26"/><path d="M17.894 7a.82.82 0 001.1-.048l2.326-2.326a.826.826 0 00-.048-1.208A12.52 12.52 0 0013.027.32v4.931c1.846 0 3.545.653 4.867 1.748z" fill="#D93F21"/></g><defs><clipPath id="clip0_1_1065"><path fill="#fff" d="M0 0h26v26H0z"/></clipPath></defs></svg>