<svg width="295" height="372" fill="none" xmlns="http://www.w3.org/2000/svg"><g clip-path="url(#clip0_1_110)" fill="#FEE4DC"><path d="M120.317 363.208c2.1-17.474 3.9-34.881 8.083-52.021 2.133-8.717 4.601-17.351 7.163-25.957 2.562-8.606 5.086-17.268 7.954-25.818 5.615-16.711 12.534-33.082 17.135-50.132a87.213 87.213 0 002.45-12.049c.513-4.161.39-8.283.385-12.46.027-8.619.597-17.227 1.704-25.774 2.111-16.883 6.239-33.332 9.342-50.032 1.615-8.667 2.573-17.435 3.726-26.18.997-7.531 3.153-14.89 3.899-22.454.775-7.798-1.064-15.351-3.492-22.698-1.226-3.716-2.646-7.37-4.184-10.974a125.477 125.477 0 01-4.205-11.864c-.524-1.7-1.114-3.343-1.671-5.053-.501-1.52-1.081-3.264-.657-4.874.869-3.314 5.263-3.954 8.143-3.87 3.224.063 6.395.823 9.297 2.227 1.738.886 2.852 2.072 2.568 4.128a13.78 13.78 0 01-1.354 3.843c-1.515 3.242-2.935 6.473-4.94 9.47-2.095 3.102-4.457 6.06-6.033 9.469-.368.791-.557 1.95-1.393 2.412-.729.412-2.116.34-2.935.245-1.855-.212-3.582-.997-5.297-1.671-2.852-1.164-5.755-2.083-8.857-1.41-2.479.558-5.57 2.129-5.275 5.114.223 2.111 1.615 3.504 3.264 4.657 2.278 1.582 4.79 3.186 7.464 3.971 1.599.468 3.259.68 4.885 1.02 1.627.34 3.047 1.197 4.501 2.044 1.816 1.053 3.899 2.295 5.865.891 1.722-1.22 2.29-3.648 2.618-5.57.35-2.575.553-5.167.608-7.765.133-2.384.557-4.579 2.517-6.177 2.162-1.755 5.142-2.262 7.849-2.273 2.479 0 6.2.229 8.227 1.844 3.682 2.924-4.668 9.47-6.606 11.096-2.128 1.805-4.183 3.27-6.902 4.044-2.256.64-6.043.802-7.286 3.108-1.47 2.74-1.158 6.127-.735 9.107a38.6 38.6 0 01.557 6.211c-.039 2.228-.356 4.456-.501 6.684-.167 2.574.652 7.08-3.509 6.306-2.958-.557-3.549-5.754-4.334-8.133-1.309-3.977-4.835-7.213-8.69-8.711-4.567-1.777-9.731-.93-12.75 3.152-3.236 4.379-4.128 11.698-1.381 16.538 2.824 4.936 8.355 7.242 13.123 9.82 4.768 2.58 10.968 6.685 15.229 1.015 1.671-2.229 2.351-5.158 2.434-7.916.117-3.72-.707-7.965 1.671-11.19 3.214-4.384 9.47-2.43 13.737-.998 3.18 1.07 6.417 1.933 9.597 2.992 3.933 1.303 8.356 2.785 11.503 5.57 3.297 2.913 1.342 6.84-1.939 8.834-4.016 2.446-9.224 1.465-13.574.658-4.351-.808-9.097-2.156-13.564-1.27a8.873 8.873 0 00-5.041 2.785c-2.15 2.45-1.604 5.503-1.186 8.466a39.09 39.09 0 01.172 8.69c-.239 2.713-.729 6.077-3.075 7.798l.407.251c-4.417-4.774-5.286-11.742-9.013-16.984-3.303-4.65-8.088-6.444-13.686-6.127-5.453.284-12.655 2.228-15.229 7.62-2.69 5.626 1.632 12.088 5.37 16.059 2.323 2.468 4.969 4.83 8.105 6.189 3.615 1.559 7.575 1.738 11.447 1.465 3.871-.273 7.848-.557 11.536-1.538 3.871-1.036 6.405-3.431 8.204-6.957 1.577-3.086 2.786-7.018 5.899-8.946 2.273-1.403 5.309-1.877 7.927-1.966a12.2 12.2 0 013.966.407c2.523.763 3.052 3.147 1.593 5.275-1.014 1.47-2.596 2.451-4.033 3.453a30.58 30.58 0 00-4.952 4.412c-2.111 2.3-5.013 7.102-8.717 5.336-4.913-2.339-4.819-7.676-4.25-12.254.456-3.666.39-7.665 1.604-11.174 1.353-3.9 6.5-4.635 10.099-4.234l-.724-.807c2.372 6.511-6.016 12.31-9.86 16.276-3.097 3.203-5.693 7.069-7.971 10.884-1.448 2.434-2.712 6.846-6.367 5.949-3.03-.746-5.263-3.253-8.138-4.333-3.448-1.298-7.442-1.064-10.995-.418-7.743 1.403-15.101 5.169-21.368 9.859-3.236 2.423-6.127 5.42-7.625 9.241a17.574 17.574 0 00-.212 11.33c1.966 6.612 7.575 11.308 13.218 14.845 6.812 4.267 14.355 6.979 21.724 10.11 2.145.908 6.367 3.108 8.077.378.707-1.114.624-2.606.707-3.899.177-2.393.207-4.794.089-7.191-.273-4.807-1.058-9.564-1.632-14.338a103.377 103.377 0 01-.557-14.02c.089-6.35-.679-13.179-6.417-16.984-.284-.189-.239.062-.133.257 1.158 2.049 2.551 3.96 3.643 6.043a16.962 16.962 0 011.816 7.687c.089 4.345-.702 8.712-1.115 13.029-.813 8.116-1.715 18.042-7.313 24.453l.512.379c-2.362-2.985-1.972-7.447-1.231-10.94a36.125 36.125 0 014.69-11.413c1.671-2.718 3.844-5.643 6.735-7.175 3.676-1.949 8.5-1.726 12.527-1.487 4.52.31 9.014.922 13.452 1.833 2.022.395 4.301.702 5.983 1.988 1.91 1.46 1.888 4.278 1.91 6.462.067 5.33-.256 10.678-2.718 15.518-2.289 4.501-6.088 7.938-10.372 10.523a136.25 136.25 0 01-12.783 6.517c-3.677 1.715-10.127 4.723-13.625 1.186l.473.775c.619-2.435 3.755-.686 4.908.272 1.019.847 1.96 2.05 1.927 3.443a2.407 2.407 0 01-.423 1.431c-.752.825-2.852-.234-3.705-.557-7.352-2.785-14.243-9.502-22.654-8.31-3.899.557-7.631 2.373-11.079 4.149a84.348 84.348 0 00-4.668 2.591c-1.231.729-2.529 1.442-2.813 2.957-.484 2.579.68 5.626 2.329 7.587 1.771 2.1 4.277 3.342 6.862 4.122 3.548 1.114 7.275 1.465 10.918 2.111 5.57.992 11.14 1.604 16.744 2.462a.05.05 0 00.024.003.067.067 0 00.023-.01.047.047 0 00.015-.019.05.05 0 00.005-.024c.189-1.521-.852-3.002-1.705-4.166-1.303-1.772-2.985-3.231-4.294-5.014-1.972-2.651-3.51-8.639-7.398-9.174-.078 0-.072.078-.061.128.852 5.398 3.61 9.77 7.019 13.926 2.996 3.66 5.107 8.444 8.957 11.335 0 0 .161.123.206.073.974-1.231.952-2.05.746-3.515-.351-2.501 1.253-4.183 3.169-5.487a30.227 30.227 0 0110.328-4.4c7.709-1.772 15.997-1.114 23.517 1.186 8.038 2.479 14.438 7.086 19.708 13.586 5.353 6.595 9.887 14.817 10.11 23.501.473 18.766-21.251 28.325-36.931 30.497-8.528 1.186-17.646-.557-24.041-6.684-7.208-6.885-7.798-17.691-6.127-26.949a59.283 59.283 0 013.849-12.255c1.765-4.177 4.266-7.403 8.912-8.149 3.665-.585 9.364-.418 11.43 3.236 1.861 3.292 1.337 7.587-.195 10.89-1.454 3.136-4.044 5.927-7.397 7.002-4.919 1.576-10.517 1.738-15.625 1.27-2.072-.189-4.378-.407-6.127-1.671-2-1.437-2.746-4.389-3.175-6.684-.769-4.134.518-8.049-1.799-11.865-3.688-6.072-11.012-9.08-17.541-10.996-7.664-2.228-16.081-3.219-23.952-1.671a28.844 28.844 0 00-9.57 3.777c-3.899 2.362-7.614 5.175-9.864 9.191-.802 1.426-2 2.557-1.911 4.311a5.911 5.911 0 001.627 3.632c1.67 1.727 4.066 3.186 6.032 4.59a112.441 112.441 0 006.411 4.239c9.47 5.81 19.624 10.271 29.768 14.744 2.484 1.114 4.891 2.362 7.442 3.303 2.178.802 4.785 1.599 7.074.802 2.718-.935 3.654-4.055 3.843-6.65.206-2.925-.685-5.832-1.927-8.45-2.974-6.278-8.004-11.631-13.313-16.015a46.763 46.763 0 00-7.475-5.152c-.061-.034-.117-.039-.139 0-.964 2.907 1.788 6.723 3.236 9.04 1.03 1.671 2.161 3.242 3.242 4.869a45.98 45.98 0 013.342 6.461c2.707 5.955 4.802 12.761 3.415 19.34-.608 2.874-1.783 5.386-3.983 7.347-1.326 1.187-3.727 2.663-3.688 4.69 0 .284.418.897.724.93 17.614 1.928 35.65 3.51 51.096 12.974 5.732 3.509 11.77 7.881 14.483 14.259 2.473 5.793 2.072 13.737-2.869 18.143-4.79 4.272-12.087 4.534-18.086 3.403-8.183-1.543-16.449-5.247-21.345-12.254-3.827-5.459-4.345-12.01-6.83-18.02a20.045 20.045 0 00-3.787-6.027c-2.279-2.451-5.287-4.083-8.139-5.754-6.929-4.055-14.326-8.099-22.375-9.28-6.406-.936-14.193-.691-19.323 3.799-.1.089.105.389.15.451 4.428 6.684 10.288 12.076 16.677 16.883 3.387 2.551 6.829 5.013 10.255 7.548 2.925 2.15 5.882 3.437 9.47 2.228v-.045c.935-9.079-5.682-21.846-15.714-22.515-.084 0-.072.078-.067.129.518 3.559 3.676 5.809 6.551 7.519 4.551 2.696 8.845 5.621 12.204 9.804a14.88 14.88 0 013.376 8.355 9.717 9.717 0 001.671 4.902 30.899 30.899 0 004.751 5.125 34.734 34.734 0 016.228 7.425c3.242 5.342 4.567 11.113 6.088 17.073a33.666 33.666 0 011.22 9.664c-.056 1.432.384 2.785.301 4.217a6.683 6.683 0 01-1.967 4.322c-1.426 1.443-2.523 1.827-4.456 1.075l-5.314-2.066a14.106 14.106 0 01-4.606-2.785l-4.256-3.777c-4.579-4.066-9.336-8.216-12.65-13.435-2.863-4.501-3.376-9.214-3.181-14.388.05-2.15.274-4.292.669-6.406.267-1.303.663-3.593 2.2-3.977-.256-.307-.513-.618-.774-.925.05 2.184.15 4.362 0 6.54-.112 1.621-.201 5.013-2.189 5.52l.601.512c-2.016-2.785-3.782-5.865-6.244-8.316-2.462-2.451-5.464-3.743-8.812-4.529-6.846-1.604-13.324-.702-18.544 4.278-.178.167.351.719.452.813 4.818 4.484 10.923 7.676 17.134 9.737a34.668 34.668 0 009.97 1.939 25.247 25.247 0 004.54-.463c2.1-.328 3.342.557 4.768 2.1.557.619.374-.111.056-.456-.897-.97-1.883-2.05-3.158-2.518-1.075-.396-2.15-.139-3.242.055-3.342.596-6.718.179-9.993-.607-7.286-1.754-14.711-5.314-20.226-10.449l.451.813c4.457-4.25 9.977-5.699 16.015-4.74 3.442.557 6.979 1.481 9.709 3.754 2.729 2.273 4.584 5.631 6.684 8.533.095.14.373.558.602.513 1.91-.496 2.072-3.66 2.2-5.203.141-2.318.156-4.642.044-6.962 0-.257-.462-1.003-.774-.925-1.894.473-2.228 3.843-2.467 5.358a53.326 53.326 0 00-.496 8.222c.039 6.345 2.69 11.553 6.734 16.327a88.341 88.341 0 009.035 8.99l5.314 4.723c.717.733 1.49 1.409 2.312 2.022 1.114.708 2.785 1.081 3.988 1.555l3.342 1.292c.719.278 2.022 1.114 2.785 1.053.764-.062 2.089-1.354 2.574-1.839a7.094 7.094 0 001.543-2.306c.852-2.122.167-4.149.161-6.327a37.262 37.262 0 00-.468-6.596c-1.409-7.753-3.626-15.73-8.06-22.336-2.089-3.12-4.712-5.52-7.386-8.116-1.788-1.738-3.609-3.643-3.944-6.211-.228-1.749-.267-3.415-.885-5.097-1.064-2.902-3.053-5.414-5.192-7.609a40.02 40.02 0 00-7.492-6.211c-1.37-.846-2.785-1.587-4.172-2.445a19.446 19.446 0 01-2.094-1.465c-.618-.512-3.03-2.829-2.156-3.632.875-.802 3.983.886 4.869 1.393a16.236 16.236 0 015.308 5.169c2.434 3.665 4.022 8.25 3.899 12.689-.083 2.696-4.456 1.755-6.127 1.014-2.273-1.025-4.183-2.785-6.178-4.245-8.505-6.216-17.083-12.254-22.982-21.167l.15.452c5.013-4.367 12.483-4.685 18.75-3.844 7.87 1.059 15.039 4.891 21.857 8.807 3.727 2.144 7.798 4.222 10.121 7.976 1.783 2.852 2.607 6.172 3.482 9.381 1.726 6.372 4.227 12.165 9.196 16.71 5.403 4.947 12.773 7.799 19.975 8.785 5.96.802 13.157.111 17.435-4.618 4.278-4.729 4.261-12.126 1.905-17.652-2.228-5.186-6.423-9.264-10.907-12.533a72.722 72.722 0 00-24.787-11.508c-10.233-2.646-20.794-3.565-31.266-4.713l.724.93c-.05-2.384 3.342-4.149 4.791-5.681 2.111-2.267 2.98-5.788 3.23-8.785.557-6.795-1.955-13.446-4.879-19.445-1.922-3.938-4.518-7.314-6.685-11.102a23.041 23.041 0 01-1.598-3.236c-.229-.596-.964-2.384-.524-3.047.49-.746 4.646 2.557 5.42 3.147a52.944 52.944 0 0111.826 12.182c2.841 4.2 5.141 9.392 3.709 14.522-1.236 4.456-5.057 4.935-8.968 3.743-4.517-1.381-8.873-3.788-13.19-5.693-7.113-3.136-14.182-6.422-20.961-10.249a118.153 118.153 0 01-10.271-6.461c-2.618-1.861-8.545-5.014-6.261-8.874.278-.468.685-.78.986-1.214.49-.707.746-1.627 1.253-2.362a20.288 20.288 0 013.342-3.615 41.377 41.377 0 017.715-5.258c4.835-2.585 10.483-3.342 15.903-3.264a57.56 57.56 0 0116.605 2.735c5.681 1.793 12.951 4.64 15.686 10.349 1.504 3.142.557 6.595.997 9.915a16.973 16.973 0 002.178 6.395c2.918 4.679 9.324 4.523 14.215 4.4 5.57-.139 11.848-.741 15.597-5.342 2.829-3.475 4.211-8.416 2.824-12.767-1.332-4.155-4.579-6.127-8.812-6.572a16.007 16.007 0 00-7.609.907c-2.613 1.087-4.273 3.504-5.476 5.961-4.974 10.176-7.798 23.896-2.935 34.619 4.511 10.026 15.362 15.507 26.091 15.039 5.832-.245 11.753-1.721 17.206-3.754 5.877-2.195 11.581-5.281 16.12-9.664 4.083-3.944 7.008-9.019 7.554-14.734.512-5.314-.869-10.656-3.047-15.468-4.033-8.913-10.896-17.792-19.496-22.66a46.347 46.347 0 00-31.322-5.013 32.293 32.293 0 00-7.291 2.362c-2.267 1.064-5.314 2.528-6.562 4.796a4.687 4.687 0 00-.618 2.857c.1.825.702 3.275-.752 3.448-.724.089-2.579-2.857-3.025-3.465-.98-1.342-1.888-2.729-2.829-4.088-1.671-2.434-3.705-4.601-5.314-7.08a22.997 22.997 0 01-2.229-4.256 21.51 21.51 0 01-.757-2.406 6.938 6.938 0 01-.234-1.075c-.067-.802-.189-.953.557-.769 1.437.351 2.54 2.875 3.192 4.039.601 1.064 1.158 2.155 1.81 3.191 1.058 1.672 2.535 3.025 3.816 4.524.752.885 2.334 2.473 2.295 3.732-.028.757 0 .412-.596.601-.385.117-1.248-.184-1.671-.245l-3.008-.418c-3.939-.557-7.866-1.08-11.781-1.765-5.042-.886-11.002-1.115-15.252-4.29-2.228-1.671-4.523-6.511-2.311-9.029.752-.852 1.988-1.404 2.952-1.966a84.115 84.115 0 014.289-2.329c3.114-1.57 6.45-3.147 9.904-3.771 3.275-.596 6.55.106 9.581 1.376 5.787 2.429 10.828 6.495 17.045 7.854h.05c2.378-2.874-1.114-6.684-3.61-8.054-1.03-.557-2.935-1.332-3.76-.039-.824 1.292 1.515 2.551 2.496 2.902 4.935 1.766 11.14-1.877 15.351-4.061 5.71-2.947 11.698-5.381 16.154-10.205 4.924-5.341 6.306-12.059 6.35-19.128.028-4.456-.278-8.968-4.974-10.817-2.49-.981-5.342-1.32-7.971-1.76-3.103-.518-6.233-.936-9.369-1.142-4.93-.335-10.946-.607-14.979 2.785-4.389 3.665-7.308 9.469-8.94 14.861-1.42 4.69-2.15 10.433 1.114 14.55.045.055.407.501.507.378 5.632-6.444 6.539-16.393 7.358-24.542.44-4.406 1.259-8.868 1.114-13.302-.144-4.434-1.771-7.798-4.066-11.424a8.856 8.856 0 01-1.153-1.866c-.167-.557.189.039.518.312a9.644 9.644 0 012.713 3.648 18.765 18.765 0 011.331 5.57c.396 3.966-.039 7.949.1 11.921.357 10.232 3.136 20.225 2.067 30.519-.557 5.509-6.127 2.785-9.341 1.398-4.117-1.749-8.3-3.309-12.355-5.202-9.241-4.312-20.382-10.584-21.117-21.958-.68-10.528 8.639-16.867 16.895-21.273a44.439 44.439 0 0113.207-4.724c4.083-.707 8.7-.846 12.382 1.32 2.278 1.343 6.089 4.796 8.957 3.281 1.671-.874 2.479-2.941 3.292-4.512a57.227 57.227 0 013.944-6.216 64.79 64.79 0 018.316-9.403c2.563-2.501 5.498-5.386 6.445-8.962a6.881 6.881 0 00-.217-4.261c-.084-.234-.407-.73-.685-.763-2.969-.33-7.554.111-9.47 2.751-1.838 2.53-1.71 6.601-1.994 9.57-.557 5.921-1.849 12.221 3.615 16.293 2.1 1.565 4.111 2.022 6.228.251 3.342-2.786 5.637-6.456 9.246-8.974 2.407-1.671 5.933-4.055 4.691-7.514-.63-1.755-2.256-2.83-3.994-3.264-2.669-.669-5.643-.312-8.278.367a10.212 10.212 0 00-6.823 5.27c-1.972 3.475-3.058 7.609-6.451 10.026-3.286 2.362-7.586 2.534-11.463 2.991-4.239.502-8.617.942-12.812-.1-4.679-1.17-8.5-4.428-11.513-8.082-2.574-3.125-4.874-7.403-3.9-11.581.719-3.114 3.281-5.314 6.011-6.712 6.127-3.147 15.903-4.228 21.1 1.253 5.013 5.314 5.537 13.463 10.55 18.883.056.062.295.34.401.257 2.228-1.672 2.785-4.813 3.069-7.414a41.03 41.03 0 000-8.022c-.334-3.642-1.482-7.28 1.571-10.137a9.542 9.542 0 015.81-2.373c4.762-.413 9.53 1.08 14.187 1.832 4.15.669 9.035 1.114 12.544-1.67 2.607-2.09 3.771-5.109 1.749-7.989s-5.57-4.59-8.745-5.915a104.779 104.779 0 00-10.973-3.67c-3.944-1.16-7.96-3.098-12.166-2.786a6.827 6.827 0 00-5.57 3.197c-1.972 3.237-1.237 7.175-1.354 10.767-.094 3.053-.896 6.417-3.108 8.657-2.635 2.673-6.027 2.373-9.202.919-2.785-1.276-5.431-2.93-8.144-4.362-3.241-1.704-7.04-3.654-8.912-6.951-3.119-5.448-1.17-14.945 4.172-18.382 4.779-3.097 11.247-1.148 14.967 2.712 3.415 3.543 2.552 9.654 6.456 12.773 1.577 1.248 4.484 1.153 5.058-1.07.301-1.141.1-2.411.139-3.576.067-2.228.413-4.456.524-6.684.195-3.977-1.081-7.843-.869-11.792.078-1.504.345-3.448 1.192-4.735.719-1.114 2.028-1.426 3.22-1.777 3.197-.952 6.361-1.459 9.04-3.604a66.408 66.408 0 005.075-4.456c2.228-2.194 5.887-5.943 3.13-9.08-1.37-1.553-3.582-2.121-5.537-2.484a18.883 18.883 0 00-8.088.095c-2.373.607-4.651 1.916-5.676 4.245-.885 2.022-.696 4.484-.807 6.64-.179 3.525-.725 13.218-6.657 10.66-1.292-.556-2.462-1.375-3.693-2.049a13.285 13.285 0 00-4.139-1.354 23.569 23.569 0 01-5.715-1.537 35.59 35.59 0 01-3.899-2.261c-1.727-1.081-3.632-2.279-3.342-4.652.184-1.615 1.599-2.735 2.974-3.386 3.632-1.722 7.336-.808 10.874.635 2.278.93 5.993 2.785 8.466 1.476.797-.43.819-1.114 1.187-1.944a26.256 26.256 0 011.671-3.175c1.036-1.733 2.228-3.37 3.375-5.014a58.965 58.965 0 005.203-9.23c1.019-2.177 2.579-4.59 2.384-7.09-.418-4.902-7.642-6.428-11.469-6.874-2.83-.323-6.099-.279-8.517 1.46-2.417 1.737-1.949 4.511-1.159 6.968 1.209 3.843 2.435 7.703 3.716 11.519 1.236 3.67 2.924 7.174 4.328 10.784 3.025 7.798 5.993 16.377 5.877 24.816-.106 7.63-2.401 15-3.604 22.481-1.404 8.695-2.156 17.48-3.599 26.18-1.442 8.701-3.565 17.418-5.319 26.125-3.404 16.833-6.156 33.867-6.367 51.073-.05 4.295.2 8.584-.195 12.873a79.685 79.685 0 01-2.323 12.728c-2.172 8.4-5.091 16.644-7.993 24.815-3.069 8.64-6.317 17.218-9.252 25.908-2.936 8.689-5.47 17.412-8.077 26.152-5.153 17.268-9.804 34.675-12.255 52.577-1.175 8.562-2.05 17.157-3.08 25.735-.039.323.78 1.008.796.874v-.016z"/><path d="M116.975 371.117c-2.133-4.211-4.105-8.511-6.456-12.605a52.088 52.088 0 00-8.606-11.141c-7.185-7.129-15.218-13.324-23.328-19.356-3.982-2.964-7.954-5.955-11.965-8.913-3.637-2.662-7.42-5.247-11.536-7.124a23.7 23.7 0 00-6.066-1.91 52.719 52.719 0 00-6.829-.507c-4.456-.123-8.85-.273-13.268.261a34.013 34.013 0 00-12.444 3.783 16.564 16.564 0 00-6.812 7.62 10.131 10.131 0 00-.93 5.052c.224 1.59.795 3.111 1.67 4.456a32.224 32.224 0 007.86 8.467 40.274 40.274 0 0010.7 5.748c4.29 1.671 8.44 3.693 13.09 3.95 2.273.122 4.551 0 6.83.122 2.34.136 4.667.444 6.962.919a53.82 53.82 0 016.584 1.744c1.571.523 2.92 1.443 4.457 2.089 1.114.479 2.512.88 3.654.228.635-.356 1.03-.752.84-1.476a24.034 24.034 0 00-1.163-3.309c-1.671-3.899-4.206-7.241-6.651-10.661a54.39 54.39 0 01-6.907-12.461 42.55 42.55 0 01-1.978-6.812c-.161-.819-.668-2.134-.033-2.785a2.97 2.97 0 011.242-.808c2.067-.624 4.222 1.526 5.503 2.841a47.104 47.104 0 015.23 6.684c1.321 1.961 2.574 3.955 3.956 5.871a49.638 49.638 0 004.456 5.453 59.028 59.028 0 014.618 5.197c2.623 3.465 4.606 7.531 7.86 10.478 2.974 2.69 6.639 3.899 10.176 5.57 2.501 1.198 5.426 2.785 8.3 2.317 1.014-.167 2.952-.946 2.724-2.194a9.777 9.777 0 00-2.156-4.39c-2.256-2.712-5.537-4.322-8.54-6.06a19.77 19.77 0 01-4.806-3.632c-1.632-1.771-2.964-3.788-4.501-5.626-3.17-3.787-7.047-6.985-10.873-10.076-3.727-3.008-7.72-5.754-11.08-9.191-3.069-3.142-5.269-6.952-7.113-10.912a63.25 63.25 0 01-4.406-12.751c-.852-3.771-1.515-7.87-.356-11.647a17.175 17.175 0 016.55-8.912c3.465-2.412 7.292-2.758 11.408-2.457a31.526 31.526 0 0113.441 3.899c2.913 1.671 5.225 4.106 6.127 7.409.803 2.896.49 5.993-.322 8.851a28.97 28.97 0 01-4.011 8.355c-1.989 2.902-4.456 5.247-7.102 7.553-6.579 5.755-13.848 11.286-22.203 14.132-2.952 1.003-6.618 2.095-9.47.262-2.361-1.515-2.835-4.545-2.785-7.136.16-2.944.722-5.853 1.671-8.644a58.336 58.336 0 013.343-7.799c1.203-2.518 2.59-5.776 1.114-8.472-2.017-3.677-7.147-2.674-9.904-5.431-2.852-2.852-3.343-7.459-3.955-11.252a56.164 56.164 0 01-.306-13.502c.48-4.777 1.21-9.526 2.183-14.227.769-4.049 1.794-8.116 2.167-12.226.284-3.07.145-6.428-1.482-9.136-1.727-2.885-4.807-4.25-8.032-4.69-6.629-.902-13.157 2.011-18.32 5.96a43.773 43.773 0 00-12.768 15.592c-1.309 2.684-2.562 5.72-2.144 8.767.39 2.885 2.077 5.37 4.138 7.353a32.377 32.377 0 007.754 5.286 39.029 39.029 0 008.512 3.342 38.036 38.036 0 0011.079 1.114c3.27-.167 7.157-.757 9.714-3.002 3.27-2.869 1.839-7.631 2.535-11.397.952-5.186 3.203-10.026 3.994-15.274.378-2.484.557-5.135 1.765-7.386a8.084 8.084 0 014.858-3.966c3.581-.963 7.24.88 9.87 3.175a27.301 27.301 0 016.606 8.645c1.521 3.142 2.457 7.019.836 10.311s-4.863 5.041-8.478 4.1c-3.799-.992-7.163-3.9-10.026-6.473-3.253-2.969-6.278-6.684-7.28-11.057-.964-4.217-.301-8.729.361-12.94.318-1.994 1.03-3.899.719-5.937-.284-1.872-1.57-3.248-2.039-5.014-.601-2.295.084-4.829.557-7.08a74.7 74.7 0 00.958-5.314c.435-2.929 1.159-6.851-.651-9.469-1.465-2.105-4.15-2.74-6.568-2.841-5.732-.234-11.29 1.76-16.755 3.203-.1.028-.234.112-.25.229-.418 2.785 2.634 4.667 4.7 5.798 3.387 1.861 7.125 3.08 10.79 4.261 1.526.491 3.064.953 4.579 1.465 1.515.513 2.963 1.282 4.506 1.772 1.304.412 2.785.495 3.61-.786a7.79 7.79 0 00.913-3.113c.25-1.64.637-3.256 1.159-4.83a25.482 25.482 0 015.069-8.723 9.947 9.947 0 014.773-2.785c3.822-1.114 8.668-1.42 12.322.418 4.289 2.161 3.147 7.152 1.025 10.539-2.479 3.971-6.556 7.564-11.313 8.244-2.886.412-5.727-.251-8.528-.88-2.802-.63-6.161-.485-8.679-1.983-3.448-2.056-2.551-6.835-1.576-10.027 1.158-3.777 3.002-7.286 4.668-10.851.785-1.671 1.476-3.414 2.189-5.13.885-2.15 1.515-4.3.752-6.573-.557-1.576-1.621-3.71-3.498-3.899-.758-.084-2.111.373-2.435 1.114a3.15 3.15 0 00.128 1.354c.09.557.19 1.147.296 1.721.557 2.874 1.765 8.779 5.776 8.478 1.866-.14 3.677-1.716 4.768-3.136.7-.994 1.307-2.049 1.816-3.153 1.454-2.83 2.785-5.804 4.752-8.355.718-.925 1.61-1.978 2.785-2.362 1.175-.385 2.122.328 2.835 1.231 1.114 1.381-.63 2.785-1.944 3.03-1.671.312-3.431-.1-5.013-.59a12.875 12.875 0 01-4.094-1.917c-2.067-1.609-1.805-4.278-1.504-6.595.261-2.016.356-4.033.557-6.049.2-2.016.568-4.1 1.643-5.771 1.186-1.816 3.097-2.323 5.175-2.1l-.624-.401c.512.752.384 1.916.29 2.785a15.793 15.793 0 01-1.009 4c-.601 1.559-2.3 5.225-4.523 3.899-.696-.407-.835.523-.256.863 2.986 1.755 5.074-2.144 5.927-4.423a15.43 15.43 0 001.025-4.879 5.446 5.446 0 00-.212-1.849c-.284-.841-.74-1.031-1.615-1.07a5.62 5.62 0 00-4.98 2.184c-1.114 1.565-1.549 3.565-1.788 5.453-.273 2.094-.301 4.205-.557 6.3-.29 2.183-.697 4.567.434 6.595 1.599 2.858 5.827 4.133 8.84 4.568 1.454.206 3.214.261 4.456-.63a2.96 2.96 0 001.114-1.598c.279-.936.073-1.438-.506-2.184-4.763-6.166-9.526 3.966-11.33 7.514-1.42 2.785-2.903 6.484-6.211 7.492-2.156.663-3.259-1.582-3.9-3.264a24.59 24.59 0 01-.952-3.498 51.845 51.845 0 01-.334-1.866c-.117-.763-.256-1.287.557-1.699 2.284-1.198 3.52 3.292 3.42 4.841-.156 2.478-1.554 4.857-2.456 7.124-1.42 3.548-3.343 6.874-4.713 10.45-1.259 3.303-2.601 7.514-.986 10.929.903 1.91 2.68 3.052 4.674 3.615 1.446.355 2.914.612 4.395.768 1.554.223 3.069.619 4.606.936 2.785.557 5.526.847 8.294.195a14.615 14.615 0 005.821-3.119c3.342-2.785 6.824-7.102 6.645-11.698-.161-4.016-3.765-6.066-7.341-6.684-4.01-.708-8.645-.273-12.288 1.626-2.228 1.159-3.743 3.276-5.052 5.348a26.53 26.53 0 00-3.565 9.09c-.312 1.582-.295 5.242-2.735 4.98-1.71-.178-3.342-1.231-4.913-1.804-3.342-1.198-6.807-2.128-10.15-3.376a40.934 40.934 0 01-5.57-2.479c-1.264-.702-2.785-1.582-3.492-2.891a2.513 2.513 0 01-.284-.718 3.013 3.013 0 01-.04-.39c0-.307-.1-.128 0-.19a11.015 11.015 0 012.123-.601c2-.557 4.005-1.114 6.038-1.571a35.95 35.95 0 016.863-.964c1.86-.039 3.994.067 5.57 1.142 1.805 1.22 1.95 3.498 1.9 5.487a48.558 48.558 0 01-.864 7.057c-.518 2.903-1.582 5.871-1.264 8.863a9.215 9.215 0 001.27 3.503 7.144 7.144 0 01.991 4.234c-.133 1.392-.59 2.751-.802 4.133a105.992 105.992 0 00-.557 4.1 28.413 28.413 0 00.15 8.606c1.115 5.614 5.331 10.182 9.604 13.708 3.437 2.835 7.976 6.395 12.761 5.476 4.579-.875 6.93-5.899 6.411-10.188-.557-4.769-3.453-9.225-6.684-12.667-2.986-3.198-7.124-6.189-11.73-5.749a8.545 8.545 0 00-3.512 1.216 8.542 8.542 0 00-2.66 2.594c-1.917 2.891-1.883 6.484-2.524 9.776-.674 3.476-1.877 6.818-2.846 10.222a27.464 27.464 0 00-1.053 4.729c-.15 1.453-.09 2.918-.134 4.378-.044 1.459-.206 2.974-.975 4.244a6.901 6.901 0 01-3.23 2.585 19.751 19.751 0 01-7.242 1.51 34.972 34.972 0 01-14.588-2.39c-7.113-2.936-17.714-8.545-14.756-17.869a37.556 37.556 0 016.462-11.698 41.391 41.391 0 0110.806-9.765c3.866-2.356 8.328-3.988 12.906-3.821 2.446.084 5.07.613 6.99 2.228 1.717 1.437 2.552 3.593 2.842 5.766a24.268 24.268 0 01-.279 7.068c-.484 2.986-1.114 5.949-1.67 8.913-1.193 6.177-2.285 12.404-2.513 18.699a52.213 52.213 0 00.451 9.419 44.082 44.082 0 001.671 7.849c.791 2.311 2.078 4.456 4.139 5.854a12.046 12.046 0 003.565 1.42c1.431.39 3.125.713 4.194 1.827 1.571 1.671 1.014 4.161.323 6.066-.774 2.134-1.921 4.095-2.88 6.128a36.493 36.493 0 00-3.052 10.745c-.423 3.414-.262 7.469 2.568 9.87 3.504 2.98 8.405 1.543 12.255.111 5.18-1.927 9.82-4.818 14.254-8.099a114.486 114.486 0 007.882-6.422 42.185 42.185 0 005.052-5.069c4.718-5.888 8.7-15.001 4.907-22.32-2.323-4.456-7.241-6.957-11.876-8.355a36.774 36.774 0 00-9.29-1.577c-2.619-.106-5.203 0-7.66.981a17.566 17.566 0 00-9.63 10.204c-1.789 4.936-.597 10.511.751 15.413a62.378 62.378 0 006.99 16.237c3.343 5.359 8.245 9.097 13.152 12.918 5.431 4.233 10.695 8.645 14.884 14.143 1.827 2.395 3.699 4.617 6.267 6.244 2.027 1.275 4.188 2.339 6.188 3.665s4.061 3.075 4.958 5.459c.15.39.501 1.114.35 1.498-.15.385-.997.797-1.381.947a5.297 5.297 0 01-3.019.101c-2.055-.44-3.933-1.46-5.82-2.346-2.485-1.164-5.075-2.016-7.365-3.581-2.74-1.872-4.55-4.456-6.372-7.175a63.732 63.732 0 00-5.13-6.99c-2.167-2.44-4.49-4.646-6.445-7.286-1.114-1.476-2.133-2.991-3.13-4.534a59.645 59.645 0 00-6.501-8.74c-1.738-1.838-4.73-4.74-7.537-3.509a3.699 3.699 0 00-1.548 1.27c-.29.456-.1.991 0 1.509.111.769.25 1.538.418 2.301a45.927 45.927 0 003.019 9.085 50.345 50.345 0 004.668 8.182c1.699 2.451 3.531 4.813 5.135 7.331a36.433 36.433 0 012.111 3.754c.357.747.68 1.504.964 2.284.167.468.774 1.593.602 2.089-.173.496-1.03.668-1.415.685a3.895 3.895 0 01-1.538-.329c-.97-.43-1.916-.912-2.835-1.442-2.434-1.259-5.325-1.877-7.993-2.446a48.241 48.241 0 00-9.202-1.147c-2.936-.056-5.916.134-8.807-.496a30.118 30.118 0 01-4.851-1.671c-1.71-.685-3.443-1.32-5.158-1.994a37.434 37.434 0 01-7.704-3.855 37.535 37.535 0 01-6.255-5.358c-1.738-1.861-3.437-4-4.317-6.423-.88-2.423-.218-5.163 1.008-7.397a16.586 16.586 0 015.046-5.643c2.351-1.621 5.22-2.612 7.96-3.342 6.05-1.571 12.255-1.392 18.443-1.214 3.181.089 6.417.195 9.47 1.197a39.538 39.538 0 018.69 4.39c5.57 3.543 10.733 7.698 16.014 11.619 5.615 4.167 11.196 8.356 16.516 12.912 5.013 4.25 10.121 8.734 13.831 14.193 3.498 5.158 6.027 10.89 8.834 16.432.278.557 1.315.502.952-.211l-.011.016zm33.978-150.792a125.492 125.492 0 0014.093-4.489 89.85 89.85 0 006.629-2.936c2.228-1.114 4.4-2.401 6.612-3.581 9.101-4.886 18.716-8.723 27.968-13.302 7.999-3.961 16.153-8.356 22.587-14.633a53.327 53.327 0 004.456-4.974c1.114-1.399 2.228-2.93 2.629-4.713.853-3.999-2.417-8.127-5.542-10.193-2.495-1.644-5.81-2.869-8.383-.736a16.4 16.4 0 00-2.785 3.432 32.35 32.35 0 00-3.248 5.442 9.859 9.859 0 00-.763 6.378c.518 1.949 2.128 3.47 2.095 5.57-.028 1.593-.691 3.414.59 4.723.557.591 1.899.402 2.646.273a18.23 18.23 0 002.785-.88c4.551-1.593 9.469-1.754 14.249-1.838 5.052-.095 10.182.123 14.978 1.888 3.247 1.198 6.684 3.343 7.938 6.729a6.88 6.88 0 01-.034 5.136c-.668 1.437-2.066 2.34-3.481 2.924-3.058 1.265-6.412 1.443-9.631 2.034-4.557.835-9.252 1.57-13.876.869-4.796-.725-8.812-3.103-12.254-6.451a21.486 21.486 0 00-5.13-3.927c-1.599-.824-3.448-1.732-5.287-1.738-2.016 0-3.431 1.499-5.275 2.033l.83.335c.218-2.44 2.362-4.245 2.496-6.685.095-1.715-1.153-3.208-2.328-4.322-1.176-1.114-2.953-2.345-4.741-2.362a4.159 4.159 0 00-3.871 2.952 7.015 7.015 0 00.908 5.57c1.114 1.8 3.242 2.786 5.225 3.281 4.651 1.226 9.402 0 13.641-2.011 8.545-4.077 14.767-11.463 22.058-17.267 1.85-1.471 4.139-2.033 6.189-3.147 1.526-.83 3.125-2.451 2.573-4.34a10.21 10.21 0 00-1.325-2.467 28.505 28.505 0 01-1.76-3.159 23.867 23.867 0 01-2.112-6.974 18.166 18.166 0 013.827-14.07c1.298-1.615 2.897-3.286 4.896-3.988 2.229-.786 4.429.284 6.027 1.843 3.571 3.476 3.861 9.286 2.011 13.681-.974 2.323-2.701 4.245-5.158 4.952-1.738.501-3.749.752-5.041 2.144a1.437 1.437 0 00-.206 2.301 3.346 3.346 0 001.699 1.504c1.576.59 3.381 0 4.841-.663 1.554-.702 2.968-1.671 4.495-2.417 1.286-.647 2.623-1.209 3.949-1.772 1.81-.768 3.643-1.487 5.52-2.083a18.64 18.64 0 015.331-1.114 3.595 3.595 0 013.66 2.445 5.685 5.685 0 01-1.115 5.064c-1.47 1.832-3.832 2.356-6.071 2.133a22.212 22.212 0 01-3.342-.657 27.897 27.897 0 00-3.459-.557c-2.084-.262-4.178-.49-5.248-2.524-.935-1.777-1.052-3.999-.863-5.96a10.245 10.245 0 011.961-5.47c1.671-2.15 4.094-3.643 6.3-5.18 1.81-1.259 4.027-2.663 5.163-4.607a4.495 4.495 0 00.557-2.445c0-.941 0-2.228-.557-3.013-.239-.351-.557-.602-.557-1.053a2.56 2.56 0 01.485-1.454c.557-.919 1.253-1.721 1.844-2.601a.283.283 0 00.045-.206.283.283 0 00-.112-.179c-1.705-1.114-4.022-1.041-4.713-3.286-.557-1.794.307-3.782 1.432-5.169a5.846 5.846 0 018.962-.24 6.911 6.911 0 011.432 5.654l.234-.279a5.484 5.484 0 01-2.312.875c-.189 0-.612.223-.557.49 1.114 3.537 6.272 1.699 8.762 3.158.376.213.701.506.952.857a2.957 2.957 0 01-.127 3.6c-1.176 1.364-3.108 2.1-4.807 2.551-2.156.557-5.415.858-6.601-1.526-1.053-2.117-.212-4.958.484-7.052a47.001 47.001 0 013.515-7.799c.88-1.621 1.916-3.152 2.657-4.846 1.048-2.395 2.017-4.829 3.298-7.113a14.642 14.642 0 012.156-3.092c.557-.557 1.281-1.231 2.111-1.047 1.114.245 2.094 1.671 2.395 2.657.557 1.816-.384 3.827-1.309 5.348a13.477 13.477 0 01-3.526 4.038c-1.738 1.242-3.832 1.922-5.425 3.376a6.13 6.13 0 00-1.672 2.506c-.183.513 1.031.463 1.198 0 .886-2.439 3.342-3.403 5.453-4.584a13.643 13.643 0 004.262-3.899c1.158-1.577 2.228-3.498 2.372-5.492a4.89 4.89 0 00-1.927-4.067c-2.039-1.626-4.267-.072-5.609 1.632-1.816 2.301-2.986 5.114-4.133 7.799-.407.958-.78 1.944-1.259 2.868-.429.825-.953 1.605-1.409 2.412a57.074 57.074 0 00-3.9 8.005c-.907 2.395-1.938 5.414-1.169 7.982.796 2.679 3.626 3.231 6.099 3.013a14.799 14.799 0 005.309-1.565c1.437-.73 3.136-1.933 3.342-3.671.206-1.738-1.192-3.414-2.836-3.899-1.843-.557-3.821-.295-5.67-.785a2.302 2.302 0 01-1.783-1.549l-.557.49a6.761 6.761 0 002.006-.557c.64-.3 1.114-.479 1.192-1.203a7.673 7.673 0 00-.351-3.386 6.917 6.917 0 00-4.178-4.234c-4.35-1.537-9.469 1.538-9.976 6.2a4.275 4.275 0 001.142 3.537c1.075 1.064 2.701 1.114 3.938 1.927l-.067-.384c-.863 1.276-3.192 3.403-2.228 5.119.195.351.557.602.663.991.151.591.235 1.196.251 1.805a4.298 4.298 0 01-.513 2.785 11.768 11.768 0 01-2.607 2.579c-1.008.808-2.089 1.532-3.153 2.267-2.077 1.443-4.227 2.93-5.754 4.98a10.725 10.725 0 00-1.899 5.387 12.345 12.345 0 00.596 5.731 4.97 4.97 0 003.699 3.192c1.2.255 2.415.441 3.637.557 1.164.151 2.273.44 3.409.697 3.899.896 8.717.557 10.7-3.499a5.702 5.702 0 00.273-4.846 4.36 4.36 0 00-1.481-1.695 4.356 4.356 0 00-2.128-.733 14.201 14.201 0 00-4.969.646 51.848 51.848 0 00-5.715 1.938 74.672 74.672 0 00-8.45 4.011c-1.398.774-3.342 1.949-5.013 1.532a2.748 2.748 0 01-1.772-1.727c-.412-.964.936-1.716 1.699-2.028 1.761-.713 3.744-.796 5.348-1.882a10.909 10.909 0 004.177-6.128c1.243-4.328.619-9.386-2.679-12.672-1.504-1.498-3.554-2.557-5.72-2.406a8.784 8.784 0 00-5.108 2.428 18.943 18.943 0 00-6.317 12.294c-.423 4.735.941 9.469 3.264 13.558.886 1.565 2.93 3.609 1.794 5.503-1.137 1.894-3.838 2.507-5.771 3.42-2.016.947-3.676 2.501-5.342 3.95-1.782 1.559-3.526 3.164-5.286 4.751-3.543 3.192-7.18 6.339-11.33 8.723-4.15 2.384-9.068 4.2-13.925 3.225-2.262-.451-4.613-1.47-5.716-3.615-.88-1.71-1.258-4.322.117-5.893 1.471-1.671 3.504-.591 4.941.518 1.437 1.108 3.097 2.785 2.913 4.696-.228 2.345-2.267 4.094-2.484 6.472-.039.44.557.412.83.334 1.744-.507 3.225-2.15 5.141-1.871 1.705.245 3.382 1.114 4.869 1.944 1.86 1.03 3.342 2.562 4.835 4.016a22.34 22.34 0 0016.577 6.378c3.927-.028 7.731-.841 11.603-1.421 5.074-.763 13.251-1.554 13.157-8.355-.039-3.069-2.039-5.654-4.457-7.392-3.108-2.228-7.007-3.342-10.756-3.854-4.868-.691-9.937-.557-14.828-.206-2.28.15-4.543.49-6.768 1.013a29.738 29.738 0 00-3.169.964 6.457 6.457 0 01-3.403.557l.317.178c-1.415-1.548-.395-3.425-.624-5.258a8.354 8.354 0 00-1.153-2.924 8.066 8.066 0 01-1.114-3.148c-.256-2.428.691-4.779 1.877-6.84a47.518 47.518 0 013.437-5.113c.78-1.025 1.771-2.184 3.147-2.306 1.928-.162 4.044 1.114 5.493 2.228a12.282 12.282 0 014.344 6.004 6.344 6.344 0 01-.713 5.303 32.758 32.758 0 01-4.417 5.52 50.067 50.067 0 01-5.013 4.657 78.518 78.518 0 01-11.564 7.503c-9.419 5.231-19.39 9.291-29.071 13.987a165.943 165.943 0 00-7.353 3.777c-2.306 1.27-4.578 2.568-6.963 3.687-4.786 2.186-9.734 4-14.8 5.426-1.266.371-2.536.72-3.81 1.047-.713.184-.596.952.14.763l.027.022zm-22.392 101.791c6.835-2.936 13.541-6.289 20.749-8.238 6.612-1.788 13.441-2.524 20.259-2.908 3.532-.195 7.069-.267 10.584-.557 3.638-.294 7.258-.781 10.845-1.459 2.785-.53 5.531-1.209 8.3-1.789a50.052 50.052 0 007.915-2.133c2.172-.847 4.295-2.083 4.829-4.54.602-2.724-.59-5.57-.835-8.272a16.324 16.324 0 014.696-13.051c6.6-6.378 17.629-5.887 24.676-.557a18.992 18.992 0 015.013 5.571c1.086 1.888 2.039 4.3 1.432 6.5-.719 2.585-3.532 3.203-5.888 3.197-2.668 0-5.27-.768-6.785-3.108a10.855 10.855 0 01-1.415-3.693l-.623.251c1.044.099 2.093.129 3.141.089.925 0 2.128-.05 2.785.713l.134-.295c-1.671.412-3.136-.273-4.618-.97a12.4 12.4 0 00-3.899-1.314c-2.423-.256-4.222 1.025-6.088 2.373a7.642 7.642 0 01-2.952 1.526c-.479.089-.953.15-1.276-.273-.73-.952-.156-2.657.156-3.654a35.763 35.763 0 012.039-4.813c.702-1.453 1.303-2.969 2.022-4.406 1.387-2.785 3.342-5.152 5.174-7.637a33.667 33.667 0 002.524-3.899c.635-1.192 1.114-2.445 1.61-3.687.473-1.148 1.008-2.362.997-3.632a3.895 3.895 0 00-1.755-3.169c-2.568-1.705-5.843-.162-8.645-.34-.162 0-.412 0-.474.195-1.437 3.787 0 7.909 1.493 11.452.752 1.771 1.437 3.743 2.624 5.281a3.64 3.64 0 003.219 1.448c1.766-.089 3.526-.83 5.198-1.354a52.86 52.86 0 005.386-2.033 49.23 49.23 0 005.626-2.829c1.487-.88 3.236-1.878 4.166-3.382.931-1.503.92-3.292.908-5.013-.011-1.721.067-3.459 1.376-4.734l-.612.117c.768.128 1.398 1.013 1.776 1.615a11.9 11.9 0 011.282 2.974c.557 1.85.974 4.072.506 5.988l.635-.183c-2.851-.268-4.322-3.203-6.901-4.156-.228-.083-.813-.195-.941.112-1.036 2.517.055 5.124 1.726 7.079a14.645 14.645 0 007.041 4.49 9.862 9.862 0 008.706-1.794 6.45 6.45 0 002.624-4.573 8.592 8.592 0 00-.485-3.069 6.813 6.813 0 00-1.075-2.228c-2.072-2.613-5.887-.557-8.439-.028l1.02.312a16.931 16.931 0 014.077-8.539 19.198 19.198 0 017.799-5.671l-.858-.1c.98.474 1.955 1.22 2.044 2.39a3.67 3.67 0 01-1.114 2.673c-1.504 1.627-4.183 2.83-6.372 2.006-.19-.073-.674-.184-.842 0-.167.183-.039.295.173.373a7.534 7.534 0 006.055-.485c1.487-.768 3.158-2.172 3.342-3.96a2.73 2.73 0 00-.852-2.111 4.813 4.813 0 00-1.259-.936 1.763 1.763 0 00-1.749-.05 19.784 19.784 0 00-7.314 5.358c-2.228 2.513-3.927 5.604-4.384 8.946-.05.368.825.346 1.02.307 1.281-.251 2.506-.697 3.771-1.003.98-.24 1.844-.329 2.579.468a5.413 5.413 0 011.03 1.938c.362.941.563 1.935.596 2.941a5.941 5.941 0 01-1.971 4.289c-2.011 1.894-5.014 2.914-7.715 2.156a13.485 13.485 0 01-6.128-3.899c-1.754-1.922-2.907-4.551-1.849-7.102l-.941.106c1.409.523 2.406 1.671 3.542 2.59a7.25 7.25 0 003.961 1.71c.167 0 .585.05.64-.184.418-1.699.095-3.621-.311-5.297-.424-1.766-1.114-3.777-2.496-5.013a3.282 3.282 0 00-2.072-.92c-.808 0-1.348 1.27-1.565 1.928-.585 1.793-.162 3.749-.39 5.57a5.666 5.666 0 01-1.114 2.785 10.424 10.424 0 01-2.702 2.195 46.087 46.087 0 01-6.907 3.576 69.152 69.152 0 01-7.158 2.529c-.863.267-1.916.702-2.84.596-.752-.089-1.282-.797-1.672-1.382a26.516 26.516 0 01-1.849-3.787c-.557-1.304-1.114-2.613-1.565-3.961-.897-2.701-1.376-5.642-.34-8.355l-.479.189a23.454 23.454 0 004.233-.351c1.326-.156 2.685-.228 3.688.791 1.888 1.916.607 4.501-.228 6.579a27.463 27.463 0 01-1.995 4.166c-.802 1.32-1.715 2.563-2.64 3.794-1.855 2.473-3.738 4.94-4.952 7.798-1.214 2.857-2.863 5.609-3.698 8.628-.29 1.036-.674 2.607.194 3.493 1.115 1.114 3.265.646 4.501.039 2.2-1.086 4.089-3.61 6.768-3.342 1.671.156 3.114 1.114 4.618 1.754a7.58 7.58 0 004.79.479c.167-.039.256-.156.134-.295-.746-.858-2.061-1.014-3.125-1.114-1.27-.078-2.568.084-3.832-.095-.167 0-.691-.039-.63.251.557 2.601 1.811 5.013 4.284 6.255a12.931 12.931 0 008.506.786c2.161-.557 3.798-2.044 3.899-4.345.128-2.429-1.07-4.857-2.423-6.801-5.498-7.871-16.655-11.141-25.584-7.659a16.028 16.028 0 00-9.32 9.118 17.237 17.237 0 00-1.058 7.921c.301 2.785 1.604 5.86.635 8.617-.886 2.535-3.782 3.526-6.127 4.25-2.624.814-5.325 1.337-8.016 1.9-3.286.696-6.545 1.481-9.887 1.983a109.79 109.79 0 01-11.547 1.114c-7.113.312-14.226.657-21.234 2.011a69.189 69.189 0 00-10.255 2.785c-3.665 1.314-7.241 2.902-10.778 4.456-1.738.769-3.476 1.543-5.225 2.295-.267.111.056.323.173.373.269.11.571.11.841 0l-.017-.011z"/></g><defs><clipPath id="clip0_1_110"><path fill="#fff" d="M0 0h294.816v371.702H0z"/></clipPath></defs></svg>