<svg width="17" height="17" fill="none" xmlns="http://www.w3.org/2000/svg"><g clip-path="url(#clip0_1_1498)"><path d="M8.667 17h-.169a59.044 59.044 0 01-3.761-.104c-1.098-.066-2.1-.446-2.898-1.097-.77-.628-1.296-1.477-1.563-2.523-.233-.911-.245-1.805-.257-2.67C.011 9.985.002 9.25 0 8.502c.002-.751.01-1.487.02-2.107.011-.865.023-1.76.256-2.67.267-1.047.793-1.896 1.563-2.524.798-.65 1.8-1.03 2.898-1.097A59.229 59.229 0 018.501 0a59.906 59.906 0 013.761.104c1.098.067 2.1.446 2.899 1.097.77.628 1.296 1.477 1.563 2.524.232.91.244 1.805.256 2.67.009.62.018 1.356.02 2.104v.003c-.002.748-.011 1.483-.02 2.104-.012.864-.024 1.759-.256 2.67-.267 1.046-.793 1.895-1.563 2.523-.799.651-1.8 1.03-2.899 1.097-1.146.07-2.324.104-3.595.104zm-.169-1.328c1.31.003 2.514-.03 3.684-.101.83-.05 1.55-.32 2.14-.8.544-.445.92-1.059 1.115-1.824.193-.758.204-1.572.215-2.36.009-.616.017-1.346.02-2.087-.003-.74-.011-1.47-.02-2.087-.01-.787-.022-1.602-.215-2.36-.195-.765-.57-1.378-1.116-1.823-.59-.48-1.31-.75-2.14-.8a58.029 58.029 0 00-3.68-.102 57.87 57.87 0 00-3.683.102c-.83.05-1.55.32-2.14.8-.545.445-.92 1.058-1.115 1.823-.194.758-.205 1.572-.216 2.36-.008.617-.017 1.348-.019 2.089.002.738.01 1.468.02 2.085.01.788.021 1.602.215 2.36.195.765.57 1.379 1.115 1.823.59.48 1.31.75 2.14.8 1.169.072 2.373.105 3.68.102zm-.032-3.021a4.155 4.155 0 01-4.15-4.15 4.155 4.155 0 014.15-4.151 4.155 4.155 0 014.15 4.15 4.155 4.155 0 01-4.15 4.15zm0-6.973A2.826 2.826 0 005.644 8.5a2.826 2.826 0 002.822 2.822A2.826 2.826 0 0011.29 8.5a2.825 2.825 0 00-2.823-2.822zm4.616-2.656a.996.996 0 100 1.992.996.996 0 000-1.992z" fill="#2E1A1E"/></g><defs><clipPath id="clip0_1_1498"><path fill="#fff" d="M0 0h17v17H0z"/></clipPath></defs></svg>