<svg width="310" height="310" fill="none" xmlns="http://www.w3.org/2000/svg"><g clip-path="url(#clip0_1_5419)" fill="#F1E0CE"><path d="M249.422 84.883c-9.08 7.132-17.989 14.371-27.88 20.381-5.033 3.054-10.182 5.915-15.363 8.718-5.181 2.803-10.369 5.651-15.666 8.286-10.356 5.147-21.158 9.532-31.202 15.307a57.092 57.092 0 00-6.725 4.452c-2.168 1.692-4.023 3.661-5.959 5.601a134.795 134.795 0 01-12.746 11.165c-8.81 6.852-18.355 12.568-27.54 18.875-4.77 3.271-9.281 6.893-13.873 10.415-3.956 3.031-8.369 5.444-12.224 8.607-3.976 3.258-6.627 7.614-8.909 12.149a91.296 91.296 0 00-3.15 7.03 82.318 82.318 0 01-3.552 7.455c-.545 1.031-1.034 2.067-1.568 3.118-.473.938-1.013 2.016-1.956 2.566-1.94 1.134-4.277-.607-5.574-1.982a14.673 14.673 0 01-3.279-5.346c-.395-1.217-.361-2.284.724-3.105a9.007 9.007 0 012.41-1.155c2.207-.801 4.365-1.641 6.685-2.101 2.41-.468 4.878-.744 7.19-1.594.538-.197 1.163-.646 1.765-.473.53.147 1.14.824 1.476 1.248.762.959 1.199 2.124 1.682 3.232.783 1.863 1.703 3.636 3.454 4.762 1.409.892 3.571 1.597 4.82.075.875-1.082.875-2.374.645-3.674-.323-1.791-.744-3.7-1.62-5.305-.524-.958-1.196-1.826-1.793-2.738-.597-.912-.858-1.969-1.14-3.036-.354-1.331-.744-2.874-2.307-3.135-1.364-.232-2.754.631-3.798 1.37a44.758 44.758 0 00-3.884 3.32c-1.168 1.044-2.382 1.866-4.033 1.698-1.816-.189-3.434-1.336-4.695-2.587-1.15-1.15-2.77-2.981-2.96-4.671-.352-3.065 6.557-2.228 8.21-2.083 1.825.15 3.458.424 5.078 1.326 1.343.749 3.175 2.431 4.821 1.938 1.953-.59 3.38-2.305 4.566-3.884a25.38 25.38 0 012.622-3.139c1.052-1.016 2.233-1.902 3.333-2.868 1.272-1.116 2.982-3.587 4.553-1.297 1.114 1.63-1.023 4.315-1.762 5.782-1.238 2.452-1.103 5.589-.01 8.072 1.294 2.943 4.082 4.945 7.376 4.452 3.532-.53 7.341-3.511 8.312-7.031.98-3.599-.516-7.234-1.532-10.642-1.015-3.408-1.987-8.188-6.594-7.535-1.808.259-3.483 1.303-4.8 2.543-1.78 1.671-3.367 4.023-5.966 4.415-3.525.543-5.52-3.265-6.835-5.909-.979-1.971-2.08-3.873-3.064-5.839-1.22-2.429-2.584-5.168-2.752-7.919-.178-2.881 2.55-3.796 4.997-3.199 2.998.728 4.959 3.599 6.602 5.992 1.643 2.392 3.22 5.219 5.703 6.88a5.823 5.823 0 003.63 1.047c2.134-.14 3.297-1.809 4.478-3.377a25.653 25.653 0 013.95-4.111c1.37-1.147 3.158-2.481 5.044-2.191l-.073-.305c-.165 4.263-2.994 7.899-3.697 12.059-.625 3.689.762 6.741 3.506 9.19 2.662 2.398 6.904 4.837 10.599 3.53 3.858-1.362 4.85-6.364 4.958-9.94.067-2.222-.064-4.545-.889-6.63-.953-2.401-2.707-4.32-4.63-5.99-1.922-1.669-3.899-3.382-6.064-4.638-2.276-1.315-4.563-1.379-7.033-.578-2.163.7-4.547 1.963-6.886 1.413-1.705-.403-3.333-1.592-4.589-2.765a8.006 8.006 0 01-1.65-2.028c-.817-1.524.043-2.876 1.707-3.186 1.153-.212 2.341.067 3.473.269 1.434.241 2.89.325 4.343.251 2.047-.088 5.62-.969 6.519 1.568 1.194 3.364-1.325 5.795-3.713 7.656-1.912 1.488-3.736 3.374-5.927 4.439-2.437 1.181-5.165-.866-6.648-2.721l-.039.711c1.92-4.122 8.5-2.92 12.123-2.977 2.923-.049 5.92-.638 8.746-1.351 1.801-.458 4.434-1.917 5.713.193 1.06 1.752.933 3.951 1.765 5.786.997 2.201 2.958 3.945 4.907 5.294 4.242 2.94 9.402 4.607 14.484 5.338 2.626.377 5.357.328 7.824-.749a11.536 11.536 0 005.354-5.158c2.155-3.979 1.731-8.759.754-13.017-1.18-5.139-3.421-9.896-5.387-14.766-.574-1.416-1.511-4.395-3.571-3.923-.845.189-1.498.92-2.137 1.481a38.462 38.462 0 00-3.377 3.294c-2.103 2.357-3.945 4.928-5.893 7.408a67.836 67.836 0 01-6.245 6.762c-2.987 2.904-5.798 6.428-4.902 10.855.044.219.14.082.181-.057.413-1.489.654-3.021 1.114-4.494a11.128 11.128 0 012.723-4.408c1.974-2.056 4.367-3.715 6.56-5.526 4.142-3.388 9.165-7.573 14.736-7.951l-.062-.413c-.29 2.48-2.54 4.369-4.504 5.646a23.68 23.68 0 01-7.47 3.118c-2.036.486-4.4.835-6.451.204-2.61-.801-4.744-3.142-6.501-5.121a66.472 66.472 0 01-5.39-7.09c-.755-1.121-1.669-2.32-1.853-3.697-.209-1.563 1.109-2.86 2.111-3.884 2.442-2.503 5.072-4.834 8.46-5.937 3.149-1.026 6.506-.858 9.692-.07a89.248 89.248 0 018.952 2.907c2.502.909 6.889 2.506 6.871 5.769l.139-.578c-1.416.842-2.059-1.424-2.149-2.403-.08-.866.041-1.861.702-2.491.23-.243.532-.407.861-.468.731-.033 1.214 1.432 1.46 1.977 2.118 4.702 2.198 11.015 6.653 14.363 2.067 1.551 4.641 2.439 7.064 3.215 1.111.356 2.233.677 3.367.963.909.233 1.842.504 2.677-.067 1.421-.971 2.294-2.925 2.439-4.599.152-1.796-.434-3.535-1.271-5.095-1.13-2.163-2.695-4.054-4.085-6.044-2.124-3.044-4.424-5.912-6.625-8.909a.032.032 0 00-.011-.012c-.004-.003-.009-.006-.014-.006-.006-.001-.011 0-.016.001a.042.042 0 00-.014.009c-.793.618-.997 1.788-1.142 2.724-.217 1.426-.113 2.883-.333 4.317-.315 2.145-2.38 5.636-.824 7.687.036.036.07-.002.088-.031 2.108-2.899 2.857-6.206 3.204-9.715.307-3.088 1.547-6.286 1.103-9.413 0 0-.018-.132-.062-.129-1.023.119-1.393.509-1.977 1.284-.997 1.323-2.522 1.359-4.015 1.075a19.835 19.835 0 01-6.832-2.749c-4.397-2.755-7.937-6.904-10.358-11.459-2.579-4.879-3.411-9.984-2.84-15.444.576-5.542 2.287-11.459 6.212-15.59 8.485-8.925 22.996-3.282 31.277 2.984 4.506 3.405 7.927 8.444 8.051 14.252.15 6.537-4.589 11.824-9.658 15.343a38.965 38.965 0 01-7.47 3.899c-2.757 1.119-5.413 1.454-7.914-.354-1.972-1.429-4.538-4.15-3.801-6.803.664-2.39 2.899-4.14 5.142-4.961 2.129-.781 4.625-.874 6.679.183 3.013 1.55 5.684 4.072 7.836 6.659.874 1.049 1.843 2.219 2.068 3.617.261 1.594-.763 3.31-1.628 4.573-1.561 2.274-3.974 3.494-4.669 6.338-1.106 4.527.896 9.32 3.036 13.237 2.522 4.589 5.966 8.953 10.335 11.886a18.944 18.944 0 006.191 2.687c2.904.713 5.932 1.132 8.839.313 1.034-.29 2.114-.259 2.886-1.114a3.87 3.87 0 00.93-2.439c.026-1.576-.408-3.364-.669-4.928a72.643 72.643 0 00-1.008-4.94c-1.697-7.087-4.338-13.867-6.968-20.647-.636-1.669-1.173-3.364-1.92-4.984-.638-1.382-1.478-2.961-2.909-3.654-1.695-.826-3.576.186-4.868 1.303-1.452 1.26-2.388 3.023-3.026 4.813-1.532 4.292-1.682 9.108-1.253 13.604a30.667 30.667 0 001.077 5.857c.013.044.037.073.065.065 1.796-.902 2.289-3.948 2.692-5.695.298-1.253.502-2.506.755-3.762a30.082 30.082 0 011.447-4.547c1.506-4.018 3.692-8.147 7.387-10.555 1.615-1.052 3.325-1.672 5.255-1.561 1.166.065 2.964.494 3.886-.465.132-.132.223-.61.096-.767-7.276-9.064-14.909-18.164-17.684-29.72-1.03-4.286-1.803-9.115-.103-13.332 1.54-3.834 5.411-7.332 9.746-7.084 4.204.24 7.71 3.503 9.969 6.81 3.079 4.512 5.196 10.065 4.216 15.586-.757 4.307-3.555 7.586-5.191 11.526a13.183 13.183 0 00-1.038 4.553c-.08 2.194.558 4.346 1.106 6.444 1.333 5.095 2.888 10.403 6.074 14.684 2.537 3.405 6.263 6.904 10.726 7.201.087.005.131-.23.139-.279 1.047-5.155.83-10.374.096-15.568-.388-2.754-.843-5.493-1.256-8.257-.359-2.354-1.134-4.323-3.359-5.426l-.021.02c-4.645 3.778-7.498 12.77-3.154 17.733.038.039.069-.003.09-.028 1.411-1.892.99-4.401.45-6.527-.861-3.362-1.496-6.71-1.114-10.209a9.758 9.758 0 012.31-5.441 6.37 6.37 0 001.498-3.049 20.3 20.3 0 00.174-4.581 22.78 22.78 0 01.555-6.333c.974-3.982 3.036-7.274 5.095-10.744a22.133 22.133 0 013.917-5.048c.69-.639 1.114-1.47 1.817-2.096a4.386 4.386 0 012.917-1.093c1.331-.008 2.018.323 2.566 1.569l1.506 3.423a9.257 9.257 0 01.845 3.429l.222 3.726c.238 4.01.519 8.141-.364 12.1-.76 3.415-2.708 5.839-5.199 8.149a26.185 26.185 0 01-3.281 2.661c-.729.481-1.974 1.359-2.866.825-.023.26-.049.524-.069.788.989-1.037 1.953-2.093 3.033-3.034.804-.7 2.418-2.232 3.576-1.545l-.041-.517c-.357 2.228-.967 4.475-.962 6.754.006 2.279.799 4.271 1.987 6.189 2.432 3.919 5.855 6.506 10.586 6.617.16.005.171-.496.168-.587-.155-4.315-1.506-8.627-3.431-12.464a22.751 22.751 0 00-3.726-5.524 16.651 16.651 0 00-2.32-1.892c-1.127-.821-1.292-1.808-1.238-3.185.029-.546-.225-.122-.238.186-.033.865-.077 1.824.298 2.633.315.682.932 1.061 1.529 1.477 1.827 1.274 3.199 3.034 4.354 4.917 2.566 4.194 4.359 9.289 4.534 14.229l.168-.586c-4.038-.096-7.27-1.984-9.627-5.23-1.338-1.855-2.55-3.924-2.762-6.245-.212-2.32.486-4.738.858-7.059.021-.108.085-.431-.041-.516-1.117-.657-2.659.736-3.434 1.392a42.248 42.248 0 00-3.251 3.209c-.119.119-.25.68-.07.788 1.099.659 2.817-.749 3.631-1.341a34.905 34.905 0 004.043-3.583c2.925-2.961 4.111-6.607 4.45-10.697a58.044 58.044 0 00-.021-8.362l-.274-4.656a13.125 13.125 0 00-.134-2.01c-.189-.845-.791-1.793-1.129-2.57l-.951-2.15c-.204-.463-.421-1.455-.804-1.78-.382-.326-1.597-.342-2.046-.342-.613 0-1.219.12-1.786.354-1.379.59-2.002 1.848-3.01 2.86a24.553 24.553 0 00-2.842 3.277c-2.943 4.25-5.614 8.979-6.622 14.1-.478 2.416-.375 4.746-.339 7.19.024 1.636-.015 3.365-1.051 4.711-.706.917-1.46 1.708-1.954 2.775-.852 1.839-1.095 3.927-1.121 5.937-.061 2.135.138 4.27.594 6.356.243 1.029.556 2.029.801 3.07.133.543.231 1.095.292 1.651.049.525.093 2.718-.684 2.685-.778-.034-1.437-2.259-1.613-2.905a10.639 10.639 0 01-.064-4.86c.571-2.829 1.961-5.692 4.077-7.694 1.289-1.212 2.881 1.253 3.312 2.372.579 1.529.649 3.232.897 4.834 1.062 6.829 2.24 13.609.842 20.479l.14-.279c-4.351-.3-7.964-3.617-10.48-6.914-3.16-4.142-4.708-9.245-6.054-14.224-.734-2.723-1.659-5.576-.995-8.395.496-2.149 1.654-4.072 2.736-5.966 2.155-3.757 3.682-7.604 3.486-12.017-.212-4.8-2.307-9.542-5.191-13.34-2.392-3.137-6.051-6.155-10.229-5.946-4.178.21-7.602 3.649-9.072 7.305-1.372 3.439-1.318 7.276-.754 10.873a47.73 47.73 0 006.159 16.836c3.52 5.973 7.992 11.299 12.317 16.688l.096-.767c-1.083 1.129-3.475.375-4.858.413-2.03.073-4.066 1.303-5.573 2.576-3.41 2.894-5.33 7.145-6.756 11.284-.936 2.718-1.298 5.488-2.049 8.25a15.067 15.067 0 01-.76 2.243c-.171.382-.659 1.553-1.171 1.656-.573.119-.968-3.341-1.054-3.974a34.733 34.733 0 01.166-11.136c.63-3.266 1.971-6.741 5.015-8.457 2.64-1.493 4.635.057 5.896 2.424 1.455 2.736 2.359 5.873 3.478 8.759 1.845 4.754 3.599 9.557 4.969 14.477a77.732 77.732 0 011.767 7.762c.351 2.077 1.638 6.289-1.212 7.02-.346.088-.679.044-1.021.106-.555.101-1.1.408-1.676.514a13.317 13.317 0 01-3.228.127 27.141 27.141 0 01-6.017-1.14c-3.442-1.044-6.413-3.312-8.891-5.863a37.748 37.748 0 01-6.434-8.971c-1.803-3.467-3.855-8.159-2.475-12.076.759-2.155 2.801-3.318 4.137-5.062a11.129 11.129 0 001.955-3.976c.817-3.525-2.227-6.424-4.552-8.635-2.649-2.52-5.84-5.153-9.713-4.757-2.925.299-5.857 1.951-7.232 4.612-1.31 2.545-.718 4.966 1.039 7.136a10.495 10.495 0 003.951 3.109c1.715.708 3.607.356 5.304-.225 7.028-2.413 14.702-7.467 17.42-14.697 2.558-6.744.067-14.319-5.126-19.079-2.819-2.591-6.25-4.653-9.723-6.24-3.744-1.707-7.821-2.922-11.96-2.994-3.724-.065-7.434.933-10.338 3.33-2.703 2.228-4.54 5.346-5.762 8.589-2.264 6.005-3.199 13.307-1.468 19.554a30.402 30.402 0 0012.204 16.854 21.146 21.146 0 004.477 2.287c1.545.558 3.638 1.292 5.269.819a3.07 3.07 0 001.612-1.039c.336-.429 1.194-1.844 1.948-1.25.377.294-.129 2.522-.204 3.01-.168 1.077-.39 2.142-.584 3.209-.354 1.904-.416 3.852-.819 5.749a15.146 15.146 0 01-.94 3.008 14.48 14.48 0 01-.765 1.467 4.577 4.577 0 01-.39.607c-.342.403-.354.53-.615.099-.504-.83.155-2.512.392-3.354.215-.773.463-1.538.641-2.321.284-1.266.228-2.578.328-3.867.062-.76.065-2.23.667-2.796.364-.339.191-.191.555-.003.233.124.494.664.662.889l1.201 1.589c1.569 2.085 3.147 4.15 4.646 6.284 1.928 2.749 4.586 5.62 5.085 9.064.258 1.809-.922 5.118-3.116 5.261-.744.046-1.574-.272-2.282-.458a55.376 55.376 0 01-3.069-.909c-2.173-.716-4.452-1.532-6.343-2.845-1.796-1.243-2.99-3.088-3.806-5.082-1.558-3.811-2.011-8.036-4.264-11.55l-.023-.023c-2.436.23-2.584 3.617-2.062 5.41.22.737.744 1.979 1.726 1.762.982-.217.481-1.886.189-2.503-1.47-3.109-6.039-4.297-9.005-5.238-4.015-1.281-7.922-2.93-12.226-2.759-4.762.194-8.519 2.669-11.819 5.927-2.08 2.054-4.03 4.289-2.71 7.325.7 1.61 1.865 3.09 2.881 4.514 1.199 1.68 2.457 3.325 3.816 4.876 2.132 2.441 4.796 5.359 8.24 5.656 3.736.336 7.782-1.003 11.041-2.747 2.834-1.517 5.836-3.842 6.232-7.266.005-.046.044-.421-.06-.41-5.601.377-10.637 4.57-14.797 7.971-2.248 1.839-4.698 3.529-6.687 5.653-1.99 2.124-2.796 4.439-3.413 7.186a5.815 5.815 0 01-.331 1.4c-.181.336-.07-.106-.096-.385a6.345 6.345 0 01.434-2.951 12.303 12.303 0 011.967-3.201c1.656-2.023 3.705-3.669 5.483-5.576 4.581-4.912 7.927-10.836 13.198-15.115 2.813-2.297 4.134 1.55 4.981 3.684 1.098 2.721 2.315 5.385 3.318 8.145 2.286 6.286 4.545 14.363-.39 19.98-4.569 5.199-11.832 3.816-17.705 2.031a29.147 29.147 0 01-8.317-3.935c-2.222-1.566-4.429-3.643-5.131-6.356-.434-1.68-.6-5.049-2.633-5.677-1.181-.369-2.514.215-3.62.566a37.43 37.43 0 01-4.713 1.054c-2.717.434-5.47.602-8.22.504-2.348-.028-5.048-.052-7.146 1.168a4.517 4.517 0 00-1.876 2.077c-.07.147-.15.527-.036.672 1.225 1.53 3.555 3.452 5.669 3.116 2.026-.32 3.855-2.269 5.364-3.514 3.005-2.488 6.527-4.811 5.881-9.234-.248-1.701-.969-2.845-2.773-3.005-2.842-.259-5.61.379-8.451-.127-1.892-.341-4.633-.871-5.661 1.31-.522 1.106-.267 2.359.338 3.367.928 1.547 2.473 2.762 4.01 3.669a6.694 6.694 0 005.61.721c2.526-.698 4.947-2.111 7.642-1.659 2.62.429 4.695 2.343 6.705 3.93 2.199 1.733 4.434 3.56 5.897 5.989 1.627 2.713 1.888 5.997 1.591 9.09-.256 2.643-1.173 5.695-3.563 7.18-1.777 1.111-3.987.943-5.901.326-4.302-1.383-9.338-5.416-9.206-10.369.139-4.79 3.676-8.813 3.865-13.653.003-.054.021-.294-.067-.305-1.809-.258-3.524.941-4.863 2.016a26.909 26.909 0 00-3.72 3.72c-1.535 1.845-2.69 4.065-5.432 3.974a6.258 6.258 0 01-3.795-1.594c-2.4-2.018-3.92-4.922-5.731-7.431-1.615-2.235-3.674-4.708-6.594-5.044-2.178-.24-4.119.62-4.517 2.894-.397 2.274.455 4.713 1.313 6.801a68.811 68.811 0 003.387 6.793c1.292 2.366 2.256 5.129 4.352 6.935a4.49 4.49 0 004.066 1.1c2.416-.586 3.902-2.754 5.623-4.366 1.46-1.372 3.392-2.561 5.457-2.574 2.462-.018 3.896 1.695 4.695 3.842.7 1.884 1.16 3.879 1.754 5.801.713 2.294 1.571 4.961.909 7.359-1.08 3.974-6.39 7.475-10.461 6.591-3.654-.78-5.75-4.685-5.685-8.201.06-3.227 3.295-5.661 2.93-8.919-.152-1.31-1.545-2.615-2.842-1.85-.67.39-1.165 1.072-1.723 1.594-1.065 1.002-2.259 1.876-3.344 2.858-1.935 1.754-3.136 4.139-5.067 5.873-.733.661-1.76 1.439-2.749 1.643-.85.183-1.602-.279-2.317-.669-1.925-1.042-3.628-2.274-5.866-2.522a43.55 43.55 0 00-4.42-.287c-2.052-.015-5.489.026-5.664 2.76-.086 1.356.677 2.645 1.416 3.72a12.381 12.381 0 003.795 3.708c1.383.819 3.047 1.269 4.602.664 1.349-.527 2.403-1.757 3.455-2.705 1.718-1.553 6.467-5.796 8.033-1.858.34.858.504 1.78.762 2.664a8.732 8.732 0 001.292 2.548 15.43 15.43 0 011.938 3.364c.313.935.567 1.89.76 2.857.299 1.303.627 2.742-.608 3.708-.835.664-2.01.527-2.95.191-2.484-.886-3.778-3.028-4.75-5.338-.625-1.488-1.488-4.072-3.242-4.612-.569-.17-.897.137-1.453.351a17.13 17.13 0 01-2.247.698c-1.285.323-2.597.53-3.892.76a38.663 38.663 0 00-6.694 1.868c-1.483.537-3.326.933-4.395 2.183-2.08 2.468.563 6.527 2.131 8.509 1.163 1.462 2.7 2.958 4.628 3.273 1.927.316 2.997-1.188 3.77-2.695a412.305 412.305 0 003.62-7.066c1.129-2.277 1.971-4.685 2.994-7.01 2.215-5.021 4.816-10.377 8.785-14.237 3.59-3.491 8.072-5.845 12.1-8.756 4.685-3.383 9.108-7.109 13.813-10.475 4.705-3.367 9.733-6.426 14.586-9.651 9.387-6.229 18.564-12.854 26.644-20.737 2.015-1.969 3.889-4.075 6.062-5.881a52.2 52.2 0 016.981-4.827c4.904-2.888 10.082-5.359 15.219-7.803 5.431-2.584 10.916-5.056 16.309-7.725 5.392-2.669 10.614-5.54 15.877-8.385 10.4-5.62 20.632-11.537 30.073-18.704 4.517-3.426 8.909-7.007 13.366-10.508.168-.132.106-.83.036-.776l-.007.008z"/><path d="M254.64 82.764c-.964 2.944-2.044 5.853-2.852 8.842a34.17 34.17 0 00-1.176 9.16c.026 6.64.878 13.239 1.842 19.8.473 3.222.928 6.451 1.416 9.684.452 2.922 1.008 5.875 2.046 8.655a15.55 15.55 0 001.928 3.7 34.419 34.419 0 002.933 3.403c2.01 2.124 3.979 4.233 6.276 6.034a22.311 22.311 0 007.526 4.017 10.87 10.87 0 006.695-.374 6.65 6.65 0 002.775-1.912 7.216 7.216 0 001.292-2.842 21.13 21.13 0 00.281-7.574 26.416 26.416 0 00-2.297-7.63c-1.214-2.764-2.201-5.627-4.24-7.903-.997-1.112-2.111-2.111-3.11-3.225a31.52 31.52 0 01-2.804-3.656 35.306 35.306 0 01-2.245-3.863c-.486-.971-.685-2.023-1.098-3.036-.295-.739-.757-1.573-1.589-1.801-.46-.129-.827-.129-1.075.295-.382.666-.714 1.36-.995 2.075-1.034 2.583-1.408 5.309-1.86 8.03a35.713 35.713 0 01-2.576 8.984 27.9 27.9 0 01-2.243 4.077c-.305.455-.68 1.3-1.277 1.308a1.953 1.953 0 01-.95-.202c-1.248-.669-1.251-2.666-1.235-3.871.058-1.858.283-3.708.674-5.526.297-1.522.641-3.029.889-4.558.263-1.519.417-3.056.462-4.597 0-1.521.09-3.041.269-4.552.39-2.824 1.356-5.631 1.214-8.506-.131-2.628-1.271-4.889-2.136-7.305-.605-1.715-1.225-3.808-2.775-4.924-.548-.393-1.809-.93-2.282-.246a6.405 6.405 0 00-1.036 3.036c-.212 2.305.563 4.573 1.15 6.772a12.97 12.97 0 01.545 3.915c-.065 1.578-.382 3.131-.522 4.697-.287 3.227.028 6.509.369 9.718.334 3.124.913 6.25.876 9.402-.033 2.881-.78 5.669-1.762 8.361a41.519 41.519 0 01-3.87 7.959c-1.354 2.144-2.948 4.353-5.238 5.568a11.263 11.263 0 01-7.172 1.095c-2.726-.488-4.662-2.103-6.431-4.152a20.673 20.673 0 01-4.427-8.043c-.576-2.127-.519-4.328.595-6.279.971-1.716 2.553-3.008 4.255-3.956a19.006 19.006 0 015.736-2.015c2.269-.424 4.501-.367 6.798-.209 5.721.382 11.658 1.188 16.855 3.743 1.834.905 4.041 2.099 4.513 4.271.393 1.799-.793 3.424-2.018 4.602a21.168 21.168 0 01-4.785 3.235 38.26 38.26 0 01-5.167 2.067c-1.726.61-3.881 1.478-4.447 3.413-.77 2.641 2.075 4.556 2.075 7.114 0 2.645-1.91 5.01-3.385 7.053a36.838 36.838 0 01-6.121 6.406 91.152 91.152 0 01-7.612 5.586c-2.235 1.522-4.597 2.933-6.677 4.666-1.555 1.292-3.048 2.915-3.55 4.925-.537 2.139.259 4.201 1.551 5.901 2.656 3.494 7.035 5.171 11.262 5.734a28.72 28.72 0 0013.155-1.31c1.852-.638 3.842-1.465 5.061-3.072 1.158-1.52 1.527-3.455 1.491-5.331a21.219 21.219 0 00-1.145-6.048 25.597 25.597 0 00-2.397-5.499 25.012 25.012 0 00-4.623-5.656c-1.594-1.439-3.671-2.968-5.899-3.113-2.847-.186-4.392 2.687-6.462 4.111-2.847 1.963-6.136 3.165-8.937 5.232-1.328.977-2.641 2.124-4.245 2.607a5.308 5.308 0 01-4.093-.413c-2.108-1.215-2.951-3.768-3.106-6.052a17.897 17.897 0 01.946-7.074c.752-2.163 2.116-4.395 4.395-5.17 2.279-.776 4.594-.083 5.834 2.03 1.302 2.223 1.514 5.132 1.649 7.654.131 2.886-.189 6.012-1.752 8.506-1.509 2.403-3.909 4.188-6.17 5.834-1.073.778-2.287 1.331-3.088 2.421-.736 1-.778 2.235-1.38 3.271-.785 1.344-2.279 2.201-3.542 3.026a48.947 48.947 0 00-2.909 2.02c-1.561 1.158-3.716 2.641-4.091 4.695-.297 1.656.654 3.196 1.729 4.364 2.55 2.767 6.054 4.421 9.258 6.286.059.034.16.057.222.011 1.486-1.098.943-3.388.509-4.871-.708-2.434-1.876-4.733-3.028-6.981-.481-.936-.98-1.863-1.445-2.804-.465-.94-.78-1.968-1.268-2.912-.414-.795-1.062-1.521-2.039-1.31a5.132 5.132 0 00-1.868 1.021 19.212 19.212 0 01-2.778 1.703 16.709 16.709 0 01-6.397 1.695 6.518 6.518 0 01-3.506-.923c-2.29-1.255-4.68-3.361-5.522-5.909-.987-2.992 1.858-4.777 4.413-5.364 2.992-.692 6.55-.467 9.072 1.424 1.53 1.147 2.54 2.772 3.548 4.364 1.007 1.592 2.632 3.082 3.105 4.945.646 2.553-1.987 4.354-3.919 5.382-2.29 1.215-4.773 1.987-7.199 2.868-1.139.411-2.268.9-3.395 1.365-1.408.586-2.697 1.292-3.398 2.7-.473.989-.969 2.472-.186 3.431.313.39 1.153.806 1.646.612.237-.185.431-.419.569-.687.217-.3.444-.62.661-.935 1.075-1.592 3.253-4.891 1.253-6.612-.93-.801-2.501-.91-3.666-.757-.786.136-1.557.344-2.305.62-1.987.638-3.984 1.4-6.08 1.672-.762.095-1.664.17-2.387-.197-.724-.367-.832-1.137-.744-1.886.124-1.157 1.584-1 2.307-.504.92.631 1.545 1.638 2.052 2.6a8.46 8.46 0 011.01 2.787c.212 1.706-1.147 2.822-2.362 3.757-1.056.814-2.036 1.706-3.064 2.548-1.028.842-2.165 1.638-3.439 1.915-1.393.292-2.514-.36-3.375-1.427l.104.476c.111-.587.71-1.067 1.157-1.427a10.392 10.392 0 012.323-1.387c1.003-.444 3.491-1.357 3.907.289.134.512.63.145.519-.281-.571-2.199-3.348-1.359-4.801-.698a10.13 10.13 0 00-2.738 1.788 3.571 3.571 0 00-.76.956c-.258.522-.134.822.253 1.245a3.689 3.689 0 003.323 1.298c1.243-.21 2.372-.936 3.359-1.701 1.098-.845 2.09-1.811 3.181-2.664 1.147-.878 2.441-1.795 2.857-3.26.584-2.067-.785-4.62-1.981-6.22-.579-.769-1.37-1.612-2.359-1.775a1.95 1.95 0 00-1.259.225c-.563.305-.7.633-.778 1.248-.651 5.07 6.258 2.579 8.742 1.77 1.95-.633 4.353-1.661 6.356-.594 1.307.692.777 2.245.294 3.323a16.086 16.086 0 01-1.181 2.064c-.23.344-.467.685-.71 1.021-.3.408-.478.715-1.047.529-1.614-.504-.105-3.16.659-3.831 1.222-1.078 2.974-1.533 4.444-2.166 2.305-.987 4.739-1.638 7.034-2.661 2.116-.948 4.692-2.279 5.526-4.612.468-1.305.173-2.659-.491-3.845a21.38 21.38 0 00-1.682-2.395c-.617-.824-1.137-1.71-1.702-2.571-1.034-1.55-2.171-2.956-3.757-3.938a9.6 9.6 0 00-4.147-1.253c-2.842-.258-6.46.129-8.509 2.344-1.788 1.938-1.067 4.56.305 6.506 1.532 2.188 3.884 4.136 6.455 4.945 1.57.496 3.255.217 4.823-.137a17.407 17.407 0 005.871-2.563c.878-.589 2.568-2.294 3.578-1.041.711.876.98 2.121 1.442 3.116.995 2.106 2.171 4.144 3.142 6.273a26.873 26.873 0 011.434 3.734c.261.912.558 2.026.279 2.961a1.671 1.671 0 01-.201.465c-.05.07-.105.136-.163.199-.142.142-.013.106-.088.088a7.227 7.227 0 01-1.263-.705c-1.186-.67-2.375-1.341-3.53-2.073a23.578 23.578 0 01-3.63-2.736c-.881-.845-1.822-1.884-2.054-3.113-.272-1.403.718-2.527 1.664-3.427a31.95 31.95 0 013.674-2.873c1.586-1.106 3.457-1.989 4.697-3.524a6.038 6.038 0 001.036-2.214 4.683 4.683 0 011.504-2.424c.708-.584 1.55-1.003 2.289-1.545a70.784 70.784 0 002.16-1.643 18.64 18.64 0 003.923-4.062c2.087-3.121 2.25-7.196 1.904-10.813-.279-2.91-.734-6.667-3.38-8.46-2.529-1.718-5.95-.478-7.699 1.752-1.954 2.47-2.677 5.881-2.775 8.976-.099 2.868.434 6.175 2.775 8.108a5.593 5.593 0 004.63 1.096c2.23-.452 3.881-2.135 5.705-3.364 1.925-1.3 4.033-2.292 6.061-3.421a17.995 17.995 0 002.682-1.706c.745-.604 1.396-1.312 2.093-1.969.698-.656 1.476-1.284 2.421-1.516a4.527 4.527 0 012.698.299 12.96 12.96 0 014.059 2.659 22.928 22.928 0 015.658 7.876c1.938 4.661 4.253 12.18-1.444 15.133a24.64 24.64 0 01-8.423 2.429 27.152 27.152 0 01-9.542-.483c-2.886-.701-5.713-2.013-7.759-4.215-1.096-1.173-2.067-2.635-2.209-4.276-.13-1.462.483-2.85 1.356-3.992a15.907 15.907 0 013.408-3.149c1.61-1.161 3.276-2.243 4.909-3.359 3.419-2.313 6.814-4.695 9.84-7.509a34.251 34.251 0 004.159-4.578 28.897 28.897 0 002.866-4.416c.705-1.439 1.103-3.031.796-4.635a7.913 7.913 0 00-.995-2.313c-.483-.845-1.119-1.78-1.098-2.793.046-1.504 1.46-2.4 2.664-2.964 1.348-.63 2.79-1.007 4.178-1.506a23.965 23.965 0 006.4-3.568c1.78-1.388 3.586-3.344 3.387-5.77-.243-3.007-3.183-4.615-5.632-5.736-3.297-1.509-6.791-2.32-10.369-2.855a75.279 75.279 0 00-6.636-.677 27.558 27.558 0 00-4.694.008c-4.92.542-10.994 2.922-12.63 8.077-.99 3.144.132 6.586 1.633 9.384a24.139 24.139 0 003.579 5.041c1.165 1.264 2.413 2.413 4.007 3.098a11.525 11.525 0 009.201-.266c3.119-1.46 5.152-4.599 6.801-7.498a40.96 40.96 0 004.289-10.775c.935-4.036.395-8.043-.109-12.092-.555-4.483-.951-8.971-.343-13.464.263-1.959.426-3.858-.011-5.803-.349-1.533-.858-3.029-1.17-4.571-.313-1.543-.458-3.31.232-4.832.111-.25.285-.75.533-.858.248-.108.832.093 1.08.202a3.482 3.482 0 011.447 1.354c.749 1.157 1.147 2.5 1.612 3.788.612 1.692 1.418 3.289 1.754 5.077.403 2.139.044 4.178-.372 6.284a41.827 41.827 0 00-.863 5.622c-.126 2.137-.072 4.237-.39 6.369a49.632 49.632 0 01-.651 3.555 39.146 39.146 0 00-1.039 7.07c-.046 1.658-.005 4.392 1.868 5.123.416.163.868.207 1.308.13.346-.078.506-.414.7-.701.305-.408.597-.829.873-1.261a30.137 30.137 0 002.814-5.614 33.098 33.098 0 001.63-5.961c.349-1.925.595-3.871 1.018-5.783a23.96 23.96 0 01.763-2.72c.18-.512.382-1.013.612-1.507.14-.294.38-1.098.69-1.248.31-.15.788.168.974.339.244.247.434.542.561.865.25.65.465 1.312.646 1.985.545 1.713 1.599 3.341 2.573 4.842a31.657 31.657 0 003.736 4.8c1.336 1.388 2.806 2.682 3.855 4.315a19.775 19.775 0 011.476 3.026c.475 1.111.984 2.209 1.467 3.318a24.524 24.524 0 011.786 5.361 24.7 24.7 0 01.416 5.387c-.057 1.669-.261 3.45-.977 4.982s-2.294 2.496-3.899 2.964a10.885 10.885 0 01-4.958.276c-1.843-.338-3.633-1.209-5.243-2.142-3.535-2.077-6.33-5.038-9.118-7.992-1.434-1.516-2.886-3.067-3.837-4.948a25.975 25.975 0 01-1.995-6.066c-.94-4.228-1.408-8.55-2.038-12.819-.672-4.537-1.318-9.069-1.672-13.65-.354-4.297-.643-8.746.168-13 .77-4.014 2.255-7.846 3.524-11.72.129-.387-.377-.842-.54-.343l.013-.002zm-85.707 54.186a82.32 82.32 0 00-8.619-4.455 59.217 59.217 0 00-4.437-1.713c-1.55-.517-3.155-.927-4.728-1.405-6.488-1.956-12.728-4.636-19.144-6.804-5.547-1.873-11.368-3.617-17.265-3.689a34.946 34.946 0 00-4.374.24c-1.165.132-2.393.326-3.406.966-2.25 1.46-2.648 4.891-2.157 7.3.395 1.919 1.364 4.025 3.548 4.229.97.031 1.94-.07 2.883-.299a21.28 21.28 0 004.031-1.018 6.468 6.468 0 003.312-2.605c.664-1.145.623-2.597 1.613-3.555.751-.726 1.904-1.264 1.917-2.465.015-.532-.695-1.067-1.101-1.354a12.072 12.072 0 00-1.7-.884c-2.85-1.372-5.206-3.578-7.462-5.756-2.388-2.3-4.666-4.781-6.072-7.824-.951-2.062-1.55-4.651-.561-6.803a4.513 4.513 0 012.398-2.367c.977-.357 2.044-.127 2.971.258 2.005.832 3.644 2.305 5.411 3.524 2.501 1.726 5.02 3.564 6.839 6.034 1.889 2.56 2.649 5.526 2.693 8.676a14.074 14.074 0 00.558 4.201c.359 1.124.795 2.403 1.646 3.259.935.935 2.286.896 3.389 1.503l-.229-.54c-1.233 1.031-3.065.874-4.259 1.943-.839.752-.953 2.023-.925 3.085.029 1.062.282 2.458 1.104 3.295a2.727 2.727 0 003.165.426 4.59 4.59 0 002.162-3.005c.318-1.351-.211-2.796-.901-3.945-1.589-2.726-4.362-4.362-7.261-5.395-5.855-2.073-12.167-1.533-18.241-2.222-1.54-.176-2.863-.977-4.331-1.411-1.093-.323-2.586-.313-3.206.819a6.712 6.712 0 00-.53 1.759 18.797 18.797 0 01-.649 2.282 15.662 15.662 0 01-2.255 4.214 11.929 11.929 0 01-8.302 4.752c-1.351.147-2.868.181-4.121-.421-1.398-.67-1.923-2.186-1.94-3.651-.045-3.269 2.516-6.098 5.412-7.279 1.53-.625 3.222-.716 4.69.096 1.039.573 2.088 1.39 3.333 1.343a.931.931 0 00.826-.193.94.94 0 00.337-.778 2.193 2.193 0 00-.09-1.486c-.458-1.005-1.569-1.568-2.553-1.938-1.047-.395-2.153-.602-3.207-.964-.896-.297-1.777-.656-2.653-1.01a41.04 41.04 0 01-3.527-1.594 12.22 12.22 0 01-2.99-1.956 2.359 2.359 0 01-.563-2.832 3.727 3.727 0 012.865-1.832c1.533-.168 2.871.685 3.806 1.827a14.63 14.63 0 011.246 1.855c.409.649.859 1.271 1.346 1.863.845 1.088 1.71 2.165 1.263 3.605-.39 1.258-1.367 2.343-2.364 3.165a6.732 6.732 0 01-3.447 1.628c-1.772.222-3.588-.21-5.325-.52-1.424-.256-3.103-.633-4.532-.258a2.953 2.953 0 00-1.392.876c-.437.436-1.034 1.033-1.14 1.656-.052.274-.02.537-.23.747-.247.238-.56.395-.9.449-.684.168-1.379.217-2.061.352a.18.18 0 00-.116.074.184.184 0 00-.031.135c.274 1.307 1.382 2.349.661 3.71-.573 1.091-1.896 1.613-3.062 1.734a3.846 3.846 0 01-3.078-1.027 3.838 3.838 0 01-1.19-3.019 4.535 4.535 0 011.958-3.287l-.237.021a3.61 3.61 0 011.478.666c.087.088.387.181.485.031 1.124-2.157-2.12-3.697-2.599-5.529a1.942 1.942 0 011.685-2.449c1.178-.088 2.416.467 3.413 1.046 1.258.742 2.91 2.114 2.354 3.77-.494 1.47-2.202 2.398-3.496 3.046a30.74 30.74 0 01-5.248 1.987c-1.16.344-2.351.574-3.48 1.016-1.597.625-3.176 1.304-4.83 1.769a9.638 9.638 0 01-2.433.435c-.517 0-1.166-.024-1.465-.494-.403-.63-.197-1.747.121-2.343.584-1.101 1.954-1.597 3.088-1.874a8.84 8.84 0 013.509-.237c1.382.23 2.669.886 4.082.95a4.025 4.025 0 001.938-.387c.323-.153-.264-.693-.556-.556-1.542.721-3.129.029-4.656-.403a8.955 8.955 0 00-3.785-.168c-1.269.194-2.656.589-3.648 1.447a3.218 3.218 0 00-.992 2.78c.19 1.701 1.945 2.013 3.358 1.845 1.91-.225 3.757-.987 5.535-1.7.633-.256 1.264-.54 1.915-.747.581-.183 1.186-.302 1.772-.465a37.384 37.384 0 005.522-1.904c1.532-.69 3.41-1.612 4.245-3.16.873-1.612-.183-3.181-1.431-4.227a9.707 9.707 0 00-3.189-1.736c-1.005-.329-2.351-.559-3.253.152-.902.711-1.03 2.137-.493 3.124.596 1.113 1.635 1.909 2.265 2.994a1.515 1.515 0 01.11 1.546l.485.031a4.432 4.432 0 00-1.189-.672c-.436-.158-.739-.295-1.11.005a5.036 5.036 0 00-1.409 1.734 4.537 4.537 0 00-.026 3.901c1.305 2.731 5.106 3.68 7.504 1.752a2.804 2.804 0 001.11-2.17c-.005-.992-.736-1.77-.932-2.721l-.147.209c.992-.191 3.059-.098 3.408-1.341.072-.253.02-.537.152-.767a5.36 5.36 0 01.721-.954 2.821 2.821 0 011.53-1.054 7.762 7.762 0 012.405.013c.842.093 1.68.259 2.514.411 1.633.295 3.32.602 4.98.359a7.043 7.043 0 003.379-1.617 8.106 8.106 0 002.382-2.936 3.261 3.261 0 00-.235-3.196 20.983 20.983 0 00-1.429-1.945c-.47-.61-.85-1.259-1.258-1.905-1.393-2.224-3.785-4.302-6.586-3.34a3.747 3.747 0 00-2.375 2.121 2.864 2.864 0 00.548 2.801 9.328 9.328 0 002.604 2.005 34.176 34.176 0 003.55 1.752 49.084 49.084 0 005.78 2.059c1.008.289 2.455.646 3.036 1.615a1.8 1.8 0 01.021 1.622c-.256.639-1.23.362-1.728.153-1.148-.486-2.106-1.367-3.354-1.607a7.153 7.153 0 00-4.78.904c-2.584 1.431-4.64 4.067-4.636 7.121.003 1.393.463 2.834 1.538 3.77a5.768 5.768 0 003.496 1.243 12.424 12.424 0 008.632-2.773c2.393-2 3.956-4.829 4.775-7.803.315-1.137.315-3.033 1.72-3.385 1.406-.351 2.944.618 4.264 1.091 1.375.496 2.866.545 4.31.646 1.55.103 3.103.168 4.656.248 3.124.162 6.271.39 9.302 1.209 3.03.819 6.154 2.258 7.955 4.963.84 1.259 1.457 2.822.974 4.328-.385 1.202-1.421 2.589-2.788 2.68-1.457.093-1.899-1.352-2.051-2.533-.153-1.18-.145-2.728.827-3.529 1.193-.982 2.95-.847 4.154-1.85.223-.186-.067-.45-.23-.54-1.043-.574-2.493-.499-3.253-1.517-.677-.904-1.051-2.085-1.356-3.16-.385-1.341-.362-2.739-.38-4.105a14.654 14.654 0 00-4.731-10.648c-1.834-1.809-3.976-3.196-6.041-4.723-2.708-2-6.868-5.426-9.978-2.228-1.406 1.442-1.677 3.569-1.362 5.496.408 2.475 1.7 4.801 3.201 6.777 1.938 2.579 4.351 4.868 6.783 6.974a27.105 27.105 0 003.609 2.669c.62.377 1.26.718 1.917 1.023a4.243 4.243 0 011.838 1.321l-.065-.23c-.062 1.374-1.406 1.772-2.15 2.728a5.47 5.47 0 00-.821 1.892 5.29 5.29 0 01-.944 1.976c-1.007 1.246-2.537 1.897-4.043 2.302a31.122 31.122 0 01-3.966.778c-.837.114-1.835.191-2.53-.39-.969-.819-1.359-2.393-1.514-3.581a8.055 8.055 0 01.77-4.801 4.162 4.162 0 012.791-2.129 21.585 21.585 0 014.609-.512 32.787 32.787 0 014.486.166 51.47 51.47 0 018.844 1.883c6.795 1.943 13.304 4.685 19.973 6.997 1.708.592 3.426 1.153 5.162 1.659 1.659.481 3.315.933 4.94 1.519a67.279 67.279 0 019.382 4.349c.76.415 1.511.842 2.253 1.282.416.245.719-.166.29-.419l-.003-.023zm57.604-36.83c-4.532-1.809-9.199-3.364-13.447-5.803-3.896-2.238-7.405-5.065-10.746-8.049-1.728-1.548-3.402-3.155-5.167-4.65a67.433 67.433 0 00-5.708-4.355c-1.537-1.046-3.126-2.005-4.679-3.02a32.899 32.899 0 00-4.661-2.682c-1.401-.615-2.959-1.026-4.346-.134-1.543.984-2.31 2.857-3.45 4.224a10.702 10.702 0 01-8.232 3.876c-6.02-.103-10.908-5.447-11.704-11.188a12.461 12.461 0 01.258-4.91c.372-1.379 1.049-2.94 2.351-3.678 1.533-.866 3.124.152 4.215 1.248 1.237 1.237 2.087 2.8 1.705 4.588a7.103 7.103 0 01-1.057 2.37l.406.173a15.436 15.436 0 00-1.416-1.499c-.429-.429-1.01-.964-.961-1.623l-.199.076c.966.583 1.328 1.58 1.692 2.591a8.146 8.146 0 001.199 2.419c1.005 1.242 2.434 1.483 3.925 1.723a5.009 5.009 0 012.077.661c.264.181.512.372.465.719-.103.78-1.16 1.304-1.767 1.622a23.53 23.53 0 01-3.178 1.287c-1 .349-1.982.773-2.982 1.106-1.935.648-3.94.84-5.943 1.142a22.12 22.12 0 00-2.979.638c-.847.258-1.651.618-2.457.964-.752.313-1.563.628-2.147 1.222a2.557 2.557 0 00-.656 2.284c.4 1.982 2.635 2.785 3.852 4.168.075.075.191.191.31.129 2.424-1.09 3.669-3.669 4.62-6.005.473-1.17 1.07-2.403 1.232-3.666a2.394 2.394 0 00-.821-2.165c-.861-.778-2.021-1.251-3.039-1.783a34.868 34.868 0 00-3.441-1.556 32.295 32.295 0 00-3.923-1.297c-1.098-.282-2.372-.63-3.501-.364s-1.953 1.1-2.746 1.904c-.794.804-1.636 1.574-2.835 1.558l.339.23c-.297-.416-.179-1.119-.075-1.573a7.833 7.833 0 01.785-1.974c.6-1.117 1.437-2.341 2.543-3.013l-.38-.21c1.199 1.448.519 3.491 1.274 5.13.067.144.287.467.488.384 1.649-.687 2.351-2.402 2.483-4.085a9.608 9.608 0 00-1.183-5.348 6.479 6.479 0 00-4.871-3.207 4.237 4.237 0 00-3.338.905 5.646 5.646 0 00-1.199 1.648c-.27.474-.451.993-.535 1.532-.25 2.173 2.473 2.99 3.902 3.928l-.328-.618a11.109 11.109 0 01-5.853 2.07 12.583 12.583 0 01-6.247-.987l.351.444c-.235-.674-.341-1.473.16-2.056a2.413 2.413 0 011.757-.724c1.452-.057 3.253.628 3.886 2.026.055.121.228.398.39.39.163-.008.156-.119.094-.253a4.94 4.94 0 00-3.034-2.584c-1.046-.333-2.473-.457-3.387.287a1.804 1.804 0 00-.584 1.374c-.006.346.044.69.15 1.018a1.154 1.154 0 00.788.835 12.972 12.972 0 005.878.907c2.199-.132 4.421-.778 6.183-2.116.194-.148-.222-.543-.331-.615-.71-.478-1.485-.84-2.214-1.284-.566-.344-1.008-.703-.979-1.414.045-.483.188-.951.421-1.377a5.905 5.905 0 011.088-1.64 3.9 3.9 0 012.904-1.075c1.811.054 3.677.974 4.578 2.578a8.843 8.843 0 011.034 4.651c-.078 1.705-.762 3.46-2.437 4.152l.486.388c-.411-.897-.341-1.892-.442-2.845a4.746 4.746 0 00-1.044-2.63c-.077-.078-.248-.295-.382-.212-.982.594-1.723 1.635-2.313 2.602-.622 1.015-1.235 2.268-1.167 3.483a2.15 2.15 0 00.534 1.387c.375.375 1.215.036 1.62-.168 1.104-.56 1.814-1.664 2.765-2.403a3.715 3.715 0 011.809-.775 6.83 6.83 0 012.271.235c1.662.377 3.288.894 4.863 1.545a45.284 45.284 0 014.493 2.147c.524.277 1.214.564 1.594 1.042.308.39.225.964.134 1.416-.229.894-.53 1.768-.899 2.615-.346.862-.695 1.728-1.111 2.563-.837 1.669-1.979 3.255-3.718 4.033l.31.134a15.382 15.382 0 00-2.126-1.8c-.688-.543-1.352-1.14-1.344-2.078.013-1.765 1.806-2.37 3.158-2.946a18.024 18.024 0 012.857-1.007c.985-.24 1.985-.393 2.985-.535 2.007-.287 4.025-.558 5.914-1.32 1.889-.763 3.93-1.274 5.718-2.287.615-.346 1.522-.897 1.53-1.71 0-1.034-1.215-1.814-2.07-2.106-1.525-.517-3.571-.223-4.69-1.59-.703-.847-.927-1.96-1.328-2.955a4.97 4.97 0 00-2-2.445c-.095-.059-.191-.046-.199.075-.051.745.486 1.427.933 1.967.553.625 1.23 1.152 1.734 1.821.077.078.302.339.408.176.948-1.465 1.486-3.165.915-4.889a8.483 8.483 0 00-3.581-4.31c-1.261-.743-2.711-.813-3.824.207-1.186 1.068-1.757 2.75-2.031 4.28-1.101 6.2 2.558 12.892 8.314 15.42a10.518 10.518 0 008.553.092 11.312 11.312 0 004.165-3.183c1.152-1.431 1.974-3.462 3.702-4.292 1.587-.764 3.39.12 4.814.871 1.594.84 3.09 1.85 4.599 2.837 1.848 1.202 3.724 2.349 5.506 3.667a71.906 71.906 0 015.873 4.839c3.445 3.155 6.904 6.294 10.783 8.917a45.426 45.426 0 006.048 3.465c2.31 1.09 4.705 2.012 7.067 2.932 1.163.45 2.328.897 3.488 1.359.176.073.124-.175.093-.253a.73.73 0 00-.39-.39l.003.013z"/></g><defs><clipPath id="clip0_1_5419"><path fill="#fff" transform="rotate(-135 132.408 126.263)" d="M0 0h193.398v243.835H0z"/></clipPath></defs></svg>