<svg width="17" height="17" fill="none" xmlns="http://www.w3.org/2000/svg"><g clip-path="url(#clip0_95_3680)" fill="#8B746D"><path d="M8.5 3.646a3.156 3.156 0 00-3.156 3.149 3.156 3.156 0 006.312 0A3.156 3.156 0 008.5 3.646zm0 4.971a1.827 1.827 0 01-1.827-1.822 1.827 1.827 0 013.654 0c0 1.005-.82 1.822-1.827 1.822z"/><path d="M8.5 0C4.745 0 1.69 3.048 1.69 6.794v.188c0 1.895 1.088 4.103 3.236 6.563a27.965 27.965 0 003.156 3.078l.418.337.417-.337a27.95 27.95 0 003.157-3.078c2.148-2.46 3.236-4.668 3.236-6.563v-.188C15.31 3.048 12.255 0 8.5 0zm5.482 6.982c0 3.202-4.136 7.078-5.482 8.255-1.347-1.177-5.482-5.053-5.482-8.255v-.188c0-3.015 2.46-5.468 5.482-5.468 3.023 0 5.482 2.453 5.482 5.468v.188z"/></g><defs><clipPath id="clip0_95_3680"><path fill="#fff" d="M0 0h17v16.96H0z"/></clipPath></defs></svg>