<svg width="17" height="17" fill="none" xmlns="http://www.w3.org/2000/svg"><path d="M8.5 3.654A3.16 3.16 0 005.344 6.81 3.16 3.16 0 008.5 9.966a3.16 3.16 0 003.156-3.156A3.16 3.16 0 008.5 3.654zm0 4.984A1.83 1.83 0 016.673 6.81 1.83 1.83 0 018.5 4.983a1.83 1.83 0 011.827 1.827A1.83 1.83 0 018.5 8.638z" fill="#7A5DA8"/><path d="M8.5 0a6.818 6.818 0 00-6.81 6.81V7c0 1.899 1.088 4.112 3.236 6.578a27.995 27.995 0 003.156 3.086L8.5 17l.417-.337a27.99 27.99 0 003.157-3.086c2.148-2.466 3.236-4.679 3.236-6.578V6.81A6.818 6.818 0 008.5 0zm5.482 6.999c0 3.21-4.136 7.095-5.482 8.274-1.347-1.18-5.482-5.065-5.482-8.274V6.81A5.488 5.488 0 018.5 1.33a5.488 5.488 0 015.482 5.481V7z" fill="#7A5DA8"/></svg>