<svg width="27" height="27" fill="none" xmlns="http://www.w3.org/2000/svg"><path d="M13.5 5.804a5.018 5.018 0 00-5.013 5.013 5.018 5.018 0 005.013 5.012 5.018 5.018 0 005.012-5.012A5.018 5.018 0 0013.5 5.804zm0 7.915a2.905 2.905 0 01-2.902-2.902c0-1.6 1.302-2.902 2.902-2.902s2.902 1.302 2.902 2.902-1.302 2.902-2.902 2.902z" fill="#7A5DA8"/><path d="M13.5 0C7.536 0 2.684 4.852 2.684 10.817v.299c0 3.016 1.729 6.531 5.14 10.447 2.472 2.839 4.91 4.818 5.013 4.901L13.5 27l.663-.536c.103-.083 2.541-2.062 5.014-4.901 3.41-3.916 5.14-7.43 5.14-10.447v-.3C24.317 4.853 19.465 0 13.5 0zm8.706 11.116c0 5.097-6.568 11.268-8.706 13.141-2.138-1.874-8.706-8.044-8.706-13.141v-.3c0-4.8 3.906-8.705 8.706-8.705 4.8 0 8.706 3.905 8.706 8.706v.299z" fill="#7A5DA8"/></svg>