<svg width="23" height="23" fill="none" xmlns="http://www.w3.org/2000/svg"><g clip-path="url(#clip0_1_191)"><path d="M22.35 1.205c-.008-.007-.018-.012-.024-.018a1.5 1.5 0 00-1.293-.41l-5.227.067a1.498 1.498 0 00-1.477 1.517c.01.824.636 1.44 1.515 1.476l1.75-.022-2.56 2.56a8.86 8.86 0 00-5.287-1.73A8.87 8.87 0 003.434 7.26c-3.48 3.481-3.48 9.146 0 12.627A8.87 8.87 0 009.747 22.5a8.873 8.873 0 006.314-2.614c3.082-3.086 3.439-7.883 1.06-11.359l2.689-2.681v1.958a1.496 1.496 0 002.993 0V2.267c0-.397-.168-.781-.453-1.062zM13.945 17.77c-2.241 2.24-6.15 2.24-8.394 0a5.943 5.943 0 010-8.395 5.901 5.901 0 014.198-1.738c1.587 0 3.074.617 4.199 1.738a5.943 5.943 0 01-.003 8.395z" fill="#6A8FA6" fill-opacity=".7"/></g><defs><clipPath id="clip0_1_191"><path fill="#fff" d="M0 0h22.802v22.802H0z"/></clipPath></defs></svg>