<svg width="22" height="22" fill="none" xmlns="http://www.w3.org/2000/svg"><g clip-path="url(#clip0_1_3755)" fill="#2E1A1E"><path d="M4.227 22c-.321 0-.64-.088-.925-.264a1.747 1.747 0 01-.834-1.497v-2.578C.628 15.331-.167 12.42.228 9.432.86 4.64 4.798.712 9.593.093c3.376-.436 6.691.67 9.097 3.035 2.407 2.364 3.571 5.657 3.195 9.033-.544 4.89-4.493 8.913-9.388 9.566a10.9 10.9 0 01-5.737-.787l-1.746.873a1.76 1.76 0 01-.787.187zM9.792 1.64c-4.105.53-7.478 3.893-8.02 7.996-.348 2.647.388 5.222 2.075 7.25a.78.78 0 01.18.499v2.854c0 .092.052.143.095.17.044.027.114.05.196.01l2.076-1.038a.778.778 0 01.68-.009 9.353 9.353 0 005.216.81c4.196-.56 7.58-4.005 8.046-8.193.323-2.898-.676-5.722-2.739-7.749-2.062-2.027-4.907-2.975-7.805-2.6zm-.1-.773H9.7h-.008z"/><path d="M5.625 13.378l3.578-5.093a.5.5 0 01.733-.151l2.397 1.797a.5.5 0 00.556.029l2.92-2.063c.428-.257.926.204.703.651l-2.89 5a.5.5 0 01-.703.205l-3.2-1.92a.5.5 0 00-.48-.019l-2.957 2.258a.5.5 0 01-.657-.694z"/></g><defs><clipPath id="clip0_1_3755"><path fill="#fff" d="M0 0h22v22H0z"/></clipPath></defs></svg>