<svg width="29" height="29" fill="none" xmlns="http://www.w3.org/2000/svg"><g clip-path="url(#clip0_1_6714)"><path d="M6.502 18.948c2.663 3.183 5.868 5.69 9.527 7.463 1.393.66 3.256 1.444 5.332 1.578.129.005.252.011.38.011 1.394 0 2.512-.481 3.425-1.471.005-.006.016-.017.022-.028.324-.392.694-.745 1.08-1.12.263-.251.531-.514.788-.783 1.192-1.242 1.192-2.82-.01-4.022l-3.363-3.363c-.57-.593-1.253-.906-1.97-.906-.716 0-1.404.313-1.991.9l-2.003 2.004a10.594 10.594 0 00-.554-.291 6.925 6.925 0 01-.615-.336c-1.824-1.158-3.48-2.668-5.064-4.61-.8-1.013-1.337-1.863-1.712-2.73a33.709 33.709 0 001.494-1.46c.168-.174.341-.347.515-.52.604-.605.929-1.304.929-2.015 0-.71-.32-1.41-.93-2.014l-1.666-1.667c-.196-.196-.38-.386-.57-.582a30.69 30.69 0 00-1.137-1.124C7.833 1.297 7.156 1 6.44 1c-.71 0-1.393.297-1.992.867L2.356 3.96a4.3 4.3 0 00-1.281 2.752c-.107 1.337.14 2.758.777 4.476.98 2.657 2.456 5.125 4.65 7.76zM2.44 6.83a2.96 2.96 0 01.89-1.903l2.08-2.08c.325-.314.683-.476 1.03-.476.341 0 .688.162 1.007.486.375.347.727.711 1.108 1.097.19.196.386.392.582.593l1.667 1.667c.347.347.526.7.526 1.046 0 .347-.18.7-.526 1.047-.174.173-.347.352-.52.526-.52.525-1.007 1.023-1.545 1.499a7.35 7.35 0 00-.028.028c-.464.464-.391.906-.28 1.242l.018.045c.43 1.035 1.029 2.02 1.963 3.194 1.679 2.07 3.447 3.676 5.393 4.912.241.157.498.28.739.403.224.112.43.218.615.336.023.011.04.022.062.034.185.095.364.14.543.14.447 0 .738-.286.833-.381l2.093-2.093c.324-.324.677-.497 1.023-.497.426 0 .773.262.99.497l3.374 3.369c.672.67.666 1.398-.016 2.109-.235.252-.482.492-.744.744-.392.38-.8.772-1.17 1.214-.643.694-1.41 1.018-2.4 1.018a5.05 5.05 0 01-.29-.011c-1.836-.118-3.542-.834-4.823-1.444-3.48-1.683-6.535-4.072-9.07-7.105-2.086-2.512-3.49-4.85-4.42-7.357-.576-1.538-.794-2.775-.704-3.9z" fill="#7A5DA8" stroke="#7A5DA8" stroke-width=".5"/></g><defs><clipPath id="clip0_1_6714"><path fill="#fff" d="M0 0h29v29H0z"/></clipPath></defs></svg>