<svg width="85" height="14" fill="none" xmlns="http://www.w3.org/2000/svg"><g clip-path="url(#clip0_39_1461)"><path d="M12.976 4.99a.69.69 0 00-.595-.475l-3.755-.34L7.142.698a.692.692 0 00-1.273 0L4.385 4.174l-3.756.341a.693.693 0 00-.393 1.21l2.839 2.49-.837 3.686a.691.691 0 001.029.748l3.238-1.936 3.238 1.936a.691.691 0 001.03-.748l-.838-3.686 2.84-2.49a.693.693 0 00.201-.735z" fill="#F5AD01"/></g><g clip-path="url(#clip1_39_1461)"><path d="M31.191 4.99a.69.69 0 00-.595-.475l-3.755-.34L25.356.698a.692.692 0 00-1.272 0L22.6 4.174l-3.756.341a.693.693 0 00-.393 1.21l2.839 2.49-.837 3.686a.692.692 0 001.029.748l3.238-1.936 3.238 1.936a.691.691 0 001.03-.748l-.838-3.686 2.84-2.49a.692.692 0 00.201-.735z" fill="#F5AD01"/></g><g clip-path="url(#clip2_39_1461)"><path d="M48.539 4.99a.655.655 0 00-.555-.475l-3.506-.34L43.093.698A.646.646 0 0042.5.28a.645.645 0 00-.593.42L40.52 4.174l-3.505.341a.658.658 0 00-.556.475.725.725 0 00.189.735l2.65 2.49-.782 3.686a.717.717 0 00.251.714.614.614 0 00.71.034l3.022-1.936 3.022 1.936a.61.61 0 00.71-.034.717.717 0 00.251-.714l-.781-3.686 2.65-2.49a.725.725 0 00.188-.735z" fill="#F5AD01"/></g><g clip-path="url(#clip3_39_1461)"><path d="M66.752 4.99a.69.69 0 00-.595-.475l-3.756-.34L60.917.698a.692.692 0 00-1.272 0L58.16 4.174l-3.756.341a.693.693 0 00-.393 1.21l2.84 2.49-.838 3.686a.691.691 0 001.029.748l3.239-1.936 3.237 1.936a.691.691 0 001.03-.748l-.837-3.686 2.839-2.49a.693.693 0 00.202-.735z" fill="#F5AD01"/></g><g clip-path="url(#clip4_39_1461)"><path d="M84.966 4.99a.69.69 0 00-.594-.475l-3.756-.34L79.132.698a.692.692 0 00-1.273 0l-1.484 3.475-3.756.341a.693.693 0 00-.393 1.21l2.839 2.49-.837 3.686a.692.692 0 001.029.748l3.238-1.936 3.238 1.936a.691.691 0 001.03-.748l-.837-3.686 2.839-2.49a.692.692 0 00.201-.735z" fill="#DAD3CC"/></g><defs><clipPath id="clip0_39_1461"><path fill="#fff" d="M0 0h13.01v13.01H0z"/></clipPath><clipPath id="clip1_39_1461"><path fill="#fff" transform="translate(18.215)" d="M0 0h13.01v13.01H0z"/></clipPath><clipPath id="clip2_39_1461"><path fill="#fff" transform="translate(36.428)" d="M0 0h12.143v13.01H0z"/></clipPath><clipPath id="clip3_39_1461"><path fill="#fff" transform="translate(53.775)" d="M0 0h13.01v13.01H0z"/></clipPath><clipPath id="clip4_39_1461"><path fill="#fff" transform="translate(71.99)" d="M0 0h13.01v13.01H0z"/></clipPath></defs></svg>