<svg width="61" height="75" fill="none" xmlns="http://www.w3.org/2000/svg"><g clip-path="url(#clip0_1_414)" stroke="#2E1A1E" stroke-width="1.1" stroke-miterlimit="10"><path d="M29.306 1c.033 1.178.098 2.157.474 3.275.725 2.162 2.543 3.808 4.551 4.895 2.008 1.086 4.235 1.7 6.394 2.446 2.415.836 4.861 1.904 6.789 3.618 2.275 2.016 2.9 4.429 3.895 7.216 1.233 3.458 2.444 6.928 3.882 10.304 2.067 4.864 6.434 11.414 3.61 16.781-1.725 3.278-4.044 6.358-5.913 9.581l-4.645 8.03M38.14 15.588c-3.67.26-7.414.248-10.578-1.29"/><path d="M43.01 31.872c-.367 7.298-7.23 16.398-3.249 23.456.887 1.568 2.303 2.77 3.556 4.073a24.836 24.836 0 016.74 14.581m-9.588-47.048c3.635 7.892 6.726 10.715 11.118 18.197m-.017-.001c-2.962 4.546-3.863 11.354-6.665 16.103m-7.751-26.561a9.395 9.395 0 01-3.237 3.283 9.428 9.428 0 01-4.414 1.352 1.85 1.85 0 01-.957-.15M12.403 17.15c-.07 2.589-2.327 4.509-3.594 6.767-2.67 4.74-.355 8.761 2.603 12.478 2.193 2.748 1.928 8.46 1.955 11.828.054 6.881-1.923 13.597-2.802 20.423"/><path d="M16.238 3.24c-2.094-1.178-5.354-2.28-7.542-.786-3.486 2.392-4.044 7.352-4.63 11.133-.79 5.078-1.58 10.16-2.368 15.245-.343 2.206-.687 4.444-.449 6.664.39 3.73 2.359 7.084 4.282 10.305 2.188 3.667 4.771 7.977 6.964 11.649"/></g><defs><clipPath id="clip0_1_414"><path fill="#fff" d="M0 0h61v75H0z"/></clipPath></defs></svg>