<svg width="34" height="74" fill="none" xmlns="http://www.w3.org/2000/svg"><g clip-path="url(#clip0_1_3116)" fill="#2E1A1E" stroke="#2E1A1E" stroke-width=".4"><path d="M19.3 9.35l.543.015c-.22.233-.495.167-.762.151a.364.364 0 00.05-.126l.17-.04zm10.517 43.856a.18.18 0 00.138-.048c.442-.182.401.12.392.393a6.283 6.283 0 01-3.993 3.964l-.188-.361c.94-.582 1.923-1.103 2.647-1.976a4.116 4.116 0 001.004-1.972zm1.38-2.629c.025-.15.047-.314.072-.449.888-1.322 1.594-2.707 1.424-4.375.452.283.289-.314.52-.36 0 .426.126.85.045 1.277-.088.02-.204-.047-.242.088.06.032.124.06.189.082a8.455 8.455 0 01-1.625 3.982.395.395 0 01-.383-.245zm-8.471 15.81c0-.383.054-.765.16-1.133.065.144-.026.351.213.47.27-.291.144-.653.163-.982 0-.264.022-.525.025-.789 0-.103-.063-.154-.15-.085-.041.032-.048.104-.066.157a.987.987 0 01-.135.016 14.44 14.44 0 01.727-3.624l.189-.173c.197.17.14.415.175.628-.22 1.19-.542 2.359-.542 3.59 0 .578.056 1.19-.22 1.746a1.168 1.168 0 00-.54.18z"/><path d="M24.028 60.875c-.035-.217.022-.462-.176-.628l-.038-.198a.352.352 0 00.163-.418c.068-.454.278-.875.6-1.202a.214.214 0 00.119-.227l.213-.314a.333.333 0 00.176-.351.216.216 0 01.185.16l.031.254a.123.123 0 01-.034.116.264.264 0 00-.151.24.138.138 0 01-.066.122.179.179 0 00-.122.207c-.176.066-.2.213-.195.374-.363.559-.423 1.253-.705 1.865zm7.906-18.15a.368.368 0 00-.125-.066v-2.145h.138c.147.54-.054 1.128.225 1.658.189-.725.091-1.454.1-2.18l.089-.046c.341.427.078.926.16 1.388.045.443.055.89.028 1.335a.181.181 0 00-.091.016c-.188-.136-.37-.274-.524.04zm1.28 2.664c-.232.037-.07.644-.52.361l-.415-1.454.05.028.054-.022a.367.367 0 00.313-.217.34.34 0 00.16.029c.082.443.465.791.358 1.275zM22.588 68.994l-.367.885a.744.744 0 00-.358-.405c.042-.322.15-.631.314-.91a.348.348 0 00.172-.434.078.078 0 01.032-.11.474.474 0 00.15-.575c.339.255.157.628.22.943-.267.15-.188.386-.163.606zm9.007-29.764a3.843 3.843 0 00-1.254-1.495c0-.044.019-.094.025-.142.232-.037.458.34.696 0a.807.807 0 01.345.368c-.285.226-.094.45.066.578.16.129.229-.088.314-.214.191.12.172.314.213.506a.408.408 0 00-.405.399z"/><path d="M25.27 57.69a.217.217 0 00-.185-.16h-.543v-.367a.431.431 0 01.348 0c.07.132.132.126.195 0a.388.388 0 01.348 0c.125.176.244.204.36 0h.214a.132.132 0 01.15 0l.188.361c-.175.27-.445.22-.705.21l-.37-.043zm-4.705 13.958l.715-.942a.43.43 0 00.238.408 3.1 3.1 0 01-.561.904.197.197 0 00-.185.183c-.116 0-.179.062-.176.182a.586.586 0 01-.232-.421c.179-.028.204-.157.201-.314zm9.748-19.4a.429.429 0 01.175-.352c.188-.078.207-.229.176-.402a.129.129 0 01.05-.132.229.229 0 00.12-.25.091.091 0 01.059-.108c.376.02.313.315.354.553-.25.116-.417.283-.345.59a.145.145 0 01-.022.13c-.238.037-.191.464-.489.376-.06-.019-.053-.264-.078-.405z"/><path d="M20.355 71.978a.586.586 0 00.232.42c-.331.47-.82.805-1.377.943.376-.625.671-1.062 1.145-1.363zm1.163-.858a.43.43 0 01-.238-.408 5.29 5.29 0 01.53-1.109.494.494 0 00.263.44c-.125.39-.163.826-.555 1.077zm1.208-4.733c.162-.102.348-.162.539-.176a1.311 1.311 0 01-.179 1.084c-.42-.04-.335-.38-.38-.628a.163.163 0 01.02-.28zm7.587-14.139c.025.141.018.386.078.402.298.088.25-.34.49-.377a2.2 2.2 0 01-.534 1.278c0-.273.05-.574-.392-.392.079-.286.154-.572.232-.854.043-.017.085-.035.126-.057zM23.1 57.876a2.233 2.233 0 01-1.393.063.772.772 0 01.85-.415c.11.226.41.154.543.352z"/><path d="M23.1 57.876c-.133-.198-.434-.126-.543-.352a1.74 1.74 0 01.859-.213c.238.034.364.135.235.392a.58.58 0 01-.552.173zm-.393 8.774c.044.265-.04.604.38.629-.07.377-.06.782-.345 1.093-.063-.314.119-.691-.22-.942a1.21 1.21 0 01.185-.78zm8.352-29.047c-.238.314-.464-.047-.696 0-.1-.1-.195-.207-.314-.314-.314-.258.016-.204.122-.258a.179.179 0 01.151.076.17.17 0 00.2.113l.296.066.241.317z"/><path d="M23.651 57.703c.129-.257 0-.358-.235-.392l.06-.132 1.075-.029v.368c-.138.031-.285.04-.357.191l-.543-.006zm-.398 7.038c-.019.33.107.691-.163.983-.239-.12-.148-.314-.213-.47.021-.167-.12-.337.018-.494l.358-.019zm8.684-24.236h-.138l-.047-.876a.486.486 0 00.423-.27c.207.15.154.377.176.584l-.088.047c-.135-.09-.263-.132-.295.094-.018.13-.022.28-.031.421zm-.69 11.052c-.028-.242.022-.534-.354-.553a.71.71 0 01.313-.43.396.396 0 00.383.245c-.122.245-.232.49-.342.738z"/><path d="M32.176 39.352a.487.487 0 01-.424.27.314.314 0 00-.156-.386.408.408 0 01.398-.399.333.333 0 00.16.402.082.082 0 01.022.114zm-.396-1.023c-.069.125-.16.314-.313.213-.154-.1-.351-.352-.066-.578a.627.627 0 01.38.365zm-8.527 26.412l-.358.02v-.18c.214-.141.189-.345.154-.556.019-.053.025-.125.066-.157.088-.069.154-.019.15.085.02.264.007.525-.012.788zM32.54 42.66c.19.322.255.703.181 1.07l-.097.07c-.23-.35-.044-.76-.176-1.125a.181.181 0 01.091-.016zm-8.347 15.05c.072-.151.22-.16.358-.192h.543a.333.333 0 01-.176.352c-.185-.32-.514-.006-.725-.16zm-2.12 12.339a.492.492 0 01-.263-.44.091.091 0 01.053-.128c.166.085.294.23.358.405a.146.146 0 01-.087.151.143.143 0 01-.06.012zm8.83-17.901c-.072-.315.094-.475.345-.59a.852.852 0 01-.345.59zm-8.315 16.846c-.025-.22-.104-.456.153-.606-.012.213.035.44-.153.606zm-.066-1.549a.475.475 0 01-.15.575c-.004-.204-.041-.42.15-.575z"/><path d="M23.07 64.025c.035.21.06.415-.153.556a1.054 1.054 0 01.019-.54.987.987 0 00.135-.016zm.744-3.979l.038.198-.188.173a.403.403 0 01.15-.37z"/><path d="M23.974 59.632a.352.352 0 01-.163.418.412.412 0 01.163-.418zm.766-.638c0-.16.018-.314.194-.374a.315.315 0 01-.195.374zm.53-1.304l.379.035-.348.22-.031-.254zm-2.93 10.44a.349.349 0 01-.172.434.434.434 0 01.172-.434zm-1.775 3.518c0 .157-.022.298-.21.314a.314.314 0 01.21-.314zm12.64-24.811a1.28 1.28 0 01-.188-.082c.037-.135.153-.07.241-.088l-.053.17zm-.345-2.714a.344.344 0 01-.16-.028c0-.051-.02-.1-.054-.138a.857.857 0 00-.022-.157l.097-.07c.088.117.201.224.138.393zm-.707-4.887a.333.333 0 01-.16-.402.314.314 0 01.16.402zm-11.56 33.156c0-.12.06-.176.175-.182-.025.107-.056.179-.175.182zm.18-.185a.198.198 0 01.184-.183.172.172 0 01-.184.183zM25.116 58.3a.264.264 0 01.15-.238.213.213 0 01-.15.238zm-.421-.104a.213.213 0 01-.119.226.222.222 0 01.12-.226z"/><path d="M24.927 58.63a.18.18 0 01.123-.208.19.19 0 01-.123.208zM13.138 34.133a3.773 3.773 0 01.254-1.454c.116-.33.166-.68.148-1.03.4-.336.21-.911.514-1.288a1.54 1.54 0 00.182-.27c.128-.314.254-.258.395 0-.314 1.498-.562 3.015-1.079 4.466-.141.037-.166.085-.019.157-.197.213-.131.562-.382.747a1.04 1.04 0 00-.142 0h-.06a.422.422 0 01.032-.358c.292-.308.154-.65.157-.97zm7.23-7.573a.968.968 0 00.17.035.224.224 0 00.178.18.214.214 0 00.182.178l.596.855-.075.062c-.154-.044-.314-.11-.411.095l-.107.066-1.255-1.307-.203-.148h-1.039c-.197-.025-.398-.06-.542.135a.17.17 0 01-.138.063.232.232 0 00-.223.148.313.313 0 00-.16-.035.528.528 0 01-.022-.157.985.985 0 000-.166.088.088 0 01.104-.047.238.238 0 00.254-.116.129.129 0 01.132-.054.229.229 0 00.232-.126l.313-.06 1.412-.015a.06.06 0 01.05-.002.06.06 0 01.034.037.354.354 0 00.289.166h.056l.026.047.147.167z"/><path d="M14.63 30.075c-.14-.242-.266-.286-.394 0a1.51 1.51 0 01-.182.27c0-.741.335-1.413.404-2.139l.734-1.303a.182.182 0 00.126-.182.229.229 0 00.157-.21l.2.03.182.023a.796.796 0 01-.028.172c-.392.286-.395.729-.474 1.144l-.216.662c-.22.346-.455.691-.15 1.109l-.358.424zm-2.04 9.456c-.026-.53.04-1.062.194-1.57.132-.025.179-.255.389-.138v1.422c-.28.233-.298.578-.392.892a.908.908 0 01-.16 0c-.01-.207-.032-.405-.032-.606z"/><path d="M12.59 39.531c0 .201.028.4.04.6.05.12.104.11.16 0 .095-.314.113-.66.392-.892a3.914 3.914 0 01-.724 2.152 3.145 3.145 0 01.132-1.86zm8.904-11.723c.311.378.563.801.746 1.256-.245-.082-.477-.123-.586.198a.7.7 0 00-.138-.041l-.414-.851.062-.076c.402.041.314-.213.254-.433l.076-.053zm-8.34 7.628c.251-.185.185-.534.383-.748.21.515-.148.943-.176 1.445-.426-.223-.348.314-.568.383a2.362 2.362 0 01.148-.87l.066-.078.147-.132z"/><path d="M12.793 36.517c.22-.082.141-.607.568-.384 0 .195 0 .387-.016.578-.144.057-.138.117 0 .176a.072.072 0 01.022.116v.267l-.568.173a.789.789 0 01.025-.543c.026-.02.057-.032.07-.054.012-.022 0-.103-.073-.128-.019-.079-.022-.139-.028-.201zm3.607-9.065l.132-.198a.241.241 0 00.22-.175l.228.257c-.084.2-.217.376-.386.512a.2.2 0 00-.166.192.313.313 0 00-.213.314l-.019.022a.182.182 0 00-.157.163c-.128-.075-.138-.207-.153-.336a.22.22 0 00.144-.226.16.16 0 01.075-.132l.141-.15.026-.03a.191.191 0 00.128-.213z"/><path d="M12.787 37.424l.568-.172c-.075.665.16 1.36-.188 2V37.83c-.21-.116-.258.113-.39.139a.808.808 0 01.01-.544zm2.193-7.77c-.314-.418-.07-.763.15-1.109.05.123.025.283.175.355l.26.233c-.172.2-.253.502-.586.521z"/><path d="M15.566 29.133l-.26-.226a.247.247 0 00.163-.239c.088-.19.225-.35.398-.468 0 .129.025.26.154.336a1.385 1.385 0 01-.455.597zm1.414-1.797l-.226-.242a.474.474 0 01.351-.386l.06.05a.146.146 0 00.108.125.146.146 0 00.058.004.32.32 0 01.16.035l-.511.414zm-3.842 6.797c0 .314.135.662-.154.942 0-.292.016-.581.025-.87a.386.386 0 00.13-.072zm.204 2.575c0-.192 0-.383.015-.578a.376.376 0 01-.015.578zm4.519-10c.145-.195.345-.16.543-.135a.868.868 0 01-.543.135zm-1.65 1.63a.314.314 0 01.214-.314.33.33 0 01-.214.314zm4.89.041a.489.489 0 01-.2-.349l.103-.066.16.34-.063.075zm-7.747 8.885v-.267c.11.094.132.182 0 .267zm-.012-.383c-.138-.06-.144-.12 0-.176v.176zm-.533-.182c.072.025.1.069.072.129-.029.06-.044.034-.07.053l-.002-.182zm.131-1.052c-.109-.079-.109-.154 0-.22H13a.21.21 0 000 .132l-.06.088zm.59-.949c-.147-.072-.122-.12.019-.157a.132.132 0 01-.019.157zm2.51-6.174a.182.182 0 01.156-.164.153.153 0 01-.095.152.155.155 0 01-.062.012zm.385-.5a.201.201 0 01.166-.192.239.239 0 01-.166.192zm1.076-1.105a.232.232 0 01.223-.148.202.202 0 01-.223.148zm1.954-.343l.204.148-.204-.148zm8.546 13.389c0 .056 0 .116-.025.176a.628.628 0 00-.213.364c-.257.71-.113 1.445-.144 2.17v2.346a.314.314 0 00-.148.057c-.028-.094 0-.223-.14-.242a1.05 1.05 0 00-.064.22 1.39 1.39 0 000 .163 1.215 1.215 0 00-.153-.028 27.978 27.978 0 01-.047-3.285 2.45 2.45 0 01.207-1.043c.235-.163.175-.399.15-.628 0-.094.019-.185.025-.28a.523.523 0 01.552.01zm.669-7.252c.22.3.366.65.423 1.018-.097.465-.216.942.163 1.334v.377a1.254 1.254 0 01-.555.18.08.08 0 01-.03-.062.078.078 0 01.03-.061v-.584c.125-.072.116-.129 0-.176.019-.204.06-.412-.144-.556l-.386-1.096c.034-.258-.078-.553.204-.741a.214.214 0 00.157.204.185.185 0 00.138.163z"/><path d="M28.694 35.612a1.24 1.24 0 00.555-.179c-.04.408.072.832-.15 1.219-.176.314-.455.574-.455.97-.195.082-.461.525-.508-.103l.558-1.907zm-.329-3.282c-.282.188-.17.484-.204.741a.566.566 0 00-.144-.031c-.207-.682-.875-.943-1.308-1.407l.072-.07c.232-.024.562.418.678-.147l.473.27.364.346c.022.1.044.197.069.298z"/><path d="M28.645 37.622c0-.396.279-.66.454-.97.364.125.772.122 1.085.386-.106.053-.436 0-.122.257.107.091.2.198.314.314 0 .047 0 .098-.025.142l-.628-.314c-.68-.34-.68-.34-1.022.333a.732.732 0 01-.056-.148zm-1.026 5.053c.031-.725-.113-1.46.144-2.17a.628.628 0 01.213-.364c-.065.747-.134 1.491-.2 2.239a.358.358 0 01-.157.295zm.759-3.97l-.047.17a.37.37 0 00-.17.355l-.357.182a.547.547 0 00-.141 0l-.07-.032a.13.13 0 010-.166l.186-.191-.019-.38c.254-.117.204-.343.195-.55.464-.006.19.487.423.612zm-.916 6.373a.313.313 0 01.147-.056c.195.364 0 .687-.078 1.099a.882.882 0 01-.436-.943c.052.007.103.016.154.029.018.09 0 .226.14.207.029 0 .041-.138.063-.21a.14.14 0 00.01-.126z"/><path d="M28.377 38.705c-.232-.125.041-.628-.42-.574.06-.205 0-.443.179-.629.047.629.313.186.508.104a.725.725 0 00.05.138c-.179.308-.063.694-.317.961zm-.573.714l.357-.183c-.021.248.029.515-.16.729a.523.523 0 00-.57 0 .628.628 0 01.163-.556l.069.032c.06.116.1.043.14-.023z"/><path d="M27.957 38.127c0 .208.06.434-.194.55.037-.195-.007-.418.194-.55zm-.552 2.111c.025.226.085.462-.15.628-.003-.223-.054-.458.15-.628zm1.142-6.071c.204.145.163.352.144.556a.658.658 0 01-.144-.556z"/><path d="M27.776 38.665l.019.38a1.323 1.323 0 01-.157 0 .362.362 0 01.138-.38zm.386.565a.371.371 0 01.169-.355.396.396 0 01-.17.355zm3.437.003a.314.314 0 01.157.386.517.517 0 01-.157-.386zm-3.956-.179c.053.003.105.003.157 0l-.185.192.029-.192zm1.048-3.834v.27a.153.153 0 01-.058-.214.154.154 0 01.058-.057zm-.002-.506c.131.047.14.104 0 .176v-.176zM18.188 20.376c.376-.776.754-1.55 1.135-2.32a.158.158 0 00.118-.071.161.161 0 00.02-.137l.414.21c-.232 1.053-.838 1.942-1.286 2.9h-.182l-.216-.217c0-.113-.003-.239-.003-.365zm2.744-5.584a5.5 5.5 0 00.36-2.355.457.457 0 000-.722v-.183l.392-.213c0 .314-.138.672.185.942.079.876.15 1.75-.38 2.535a.482.482 0 00-.557-.004zM16.04 25.28a8.03 8.03 0 01.567-1.257.314.314 0 00.154-.377c.232-.126.2-.34.188-.547a.313.313 0 00.198-.336v-.018l.207-.167h.276a.315.315 0 010 .145.72.72 0 00-.135.534v.021a.194.194 0 00-.126.22c-.19.066-.213.21-.178.38-.342.142-.201.446-.23.691a2.555 2.555 0 01-.498 1.122c-.194 0-.395.276-.58-.02a.314.314 0 00.157-.392z"/><path d="M20.932 14.793a.482.482 0 01.55 0c-.198.713-.628 1.316-.889 2.003-.51.27-.51.27-.573-.197.25-.628.556-1.232.912-1.806zm-.728-5.437c.342-.129.58.138.866.226.2.32.353.667.455 1.03-.417-.17-.42.11-.424.39-.044-.072-.094-.141-.131-.217-.449-.964-.449-.964-1.48-.876.125-.207.35-.185.542-.239a.166.166 0 00.166-.125l.006-.189z"/><path d="M20.02 16.599c.062.468.062.468.573.198-.241.42-.276.957-.718 1.256l-.414-.21c-.038-.265.157-.462.2-.704.239-.098.142-.421.358-.54zm-4.147 9.067c.185.295.386.025.58.018-.216.396-.244.883-.595 1.213l-.038-.157a.795.795 0 00.028-.173c0-.126.032-.255-.125-.314a1.001 1.001 0 00-.075-.094c.028-.154.053-.314.081-.462l.144-.031zm5.229-14.661c0-.28 0-.559.423-.39.235.198.179.46.154.717l-.374.204c-.069-.18-.134-.355-.203-.531z"/><path d="M15.82 26.74l.037.157c-.26.282-.144.76-.511.986.066-.415.081-.86.473-1.143zm3.933-.585l-1.411.016c.414-.255.872-.11 1.31-.141a.608.608 0 00.101.125zm2.107-13.894c-.314-.26-.179-.61-.185-.942.27.276.213.61.185.942zm-4.908 12.302c.028-.245-.113-.55.229-.69-.01.253.025.52-.229.69zm.533-1.287a.718.718 0 01.135-.534c.019.066.034.132.053.198a.35.35 0 01-.188.336z"/><path d="M17.673 22.94c-.018-.067-.034-.133-.053-.199a.315.315 0 000-.144l.182-.236c.03.023.06.047.088.073a.766.766 0 01-.217.505zm.735-1.973h.182a.365.365 0 01-.18.364l-.068-.063.066-.301z"/><path d="M18.41 21.322a.444.444 0 01-.175.361.182.182 0 01-.1 0l.06-.37a.314.314 0 00.14-.05l.076.059z"/><path d="M18.235 21.683c-.06.126-.116.255-.172.38l-.076-.066.154-.314a.18.18 0 00.094 0z"/><path d="M18.069 22.06a.383.383 0 01-.173.374.962.962 0 00-.087-.073l.178-.364.082.063zm-.898 1.821c-.034-.17 0-.314.179-.38.031.17.01.314-.179.38zm-1.699 4.787a.25.25 0 01-.163.239c.053-.082.103-.16.163-.239zm.548-.704a.22.22 0 01-.144.227.238.238 0 01.144-.227zm.217-.279l-.141.15a.142.142 0 01.141-.15zm.163-.232a.192.192 0 01-.138.204c.047-.07.09-.138.138-.204zm.35-.374a.242.242 0 01-.219.175.232.232 0 01.22-.175zm.566-.506a.985.985 0 010 .167.556.556 0 00-.145.028l-.066-.06a.232.232 0 01.21-.135zm.357-.163a.238.238 0 01-.254.116.257.257 0 01.254-.116zm.364-.18a.229.229 0 01-.232.126.23.23 0 01.232-.125z"/><path d="M17.344 23.517a.195.195 0 01.126-.22.22.22 0 01-.126.22zM12.947 1.872A2.55 2.55 0 0114.61.157c1.182-.465 2.32.223 2.217 1.523 0 .145-.025.292-.04.437a.449.449 0 00-.192.458c-.006.293-.09.58-.242.83-.106.197-.232.043-.313-.066a7.548 7.548 0 00.15-1.7c-.094-.91-.558-1.165-1.433-.885-.784.254-1.016.942-1.374 1.554-.298-.012-.414-.182-.436-.436z"/><path d="M16.018 3.338c.094.11.22.264.313.066.156-.249.243-.535.251-.829a.45.45 0 01.192-.458c.134.596-.079 1.137-.314 1.658a29.202 29.202 0 01-1.672 3.254c-.053-.214.057-.597-.404-.393.401-1.171 1.113-2.192 1.634-3.298z"/><path d="M14.409 6.636c.46-.204.35.18.404.393-.335.072-.357.264-.207.527-.075.566-.505.987-.627 1.552-.069.348-.386.408-.677.129-.076-.405.37-.613.376-.987.106-.449.293-.874.552-1.256a.339.339 0 00.175-.37l.004.012zm-1.462-4.764c.022.254.138.424.414.436a.86.86 0 00-.063.255.704.704 0 01-.577.7c-.342.097-.452-.314-.605-.537a3.61 3.61 0 01-.258-.559.443.443 0 01.433-.437c.063.057.144.098.182.167.182.314.326.157.474-.025z"/><path d="M12.291 1.73a.442.442 0 00-.433.437 4.49 4.49 0 01-.398-.584A1.23 1.23 0 0010.08.86a1.917 1.917 0 01-.354-.018c.225-.255.533-.164.812-.192.279-.028.524.123.74-.11l.091-.06a1.924 1.924 0 01.922 1.25zm1.39 6.52c0 .374-.452.581-.376.987l-.267-.267a2.023 2.023 0 00-.94-.76c-.023-.264-.296-.314-.424-.465.226-.029.389-.123.398-.38.404.235.771.526 1.092.867.172.213.341.166.517.018zm.922-.7c-.15-.264-.129-.455.207-.528a.72.72 0 01-.207.528z"/><path d="M10.99.327h.345c.008.05.02.099.035.147l-.091.06a.397.397 0 01-.289-.207zm-.876 10.825a.125.125 0 01.145.057v.144h-.198l-.734.029a.503.503 0 00-.335-.377h-.367c-.367-.274-.722-.314-1.057.056a1.94 1.94 0 00-.405 1.32c0 .383 0 .769.019 1.152a1.057 1.057 0 01-.172 0c0-.314-.029-.628-.041-.942v-.314l.019-.198v-.336l.018-.377c.267-.132.518-.27.145-.565.178-.38.508-.412.868-.368h.493a.122.122 0 01.138.035.386.386 0 00.465.129.072.072 0 01.074.047.288.288 0 00.26.144.08.08 0 01.092.026c.007.01.012.02.015.03l.223.133a.129.129 0 01.141.062l.194.113zM6.611 26.89a.202.202 0 01.066-.144.195.195 0 00.132-.207c.254-.433.382-.928.37-1.43l.558-.179.173-.172v-.204h.015a.25.25 0 00.154-.217l.248.295a.107.107 0 01-.075.113.26.26 0 00-.12.245 7.965 7.965 0 01-1.104 1.922.213.213 0 00-.156.21c-.1-.065-.18-.15-.26-.232zm.728-3.62c.075-.786 0-1.571.182-2.356.027.083.041.17.044.257-.038.434.128.34.345.138.182.688-.047 1.341-.167 2-.385.277-.081.742-.313 1.119-.038-.42-.066-.788-.091-1.159zm.233-3.767a3.035 3.035 0 010-1.256c.163-.084.313-.176.276-.395 0-.029-.129-.066-.132-.057-.057.096-.11.194-.157.295a2.412 2.412 0 01-.21-1.118c.182.189.36.29.536 0 .164.653.226 1.326.185 1.998-.197.154-.153.392-.2.6l-.298-.067z"/><path d="M7.34 23.269c.025.37.053.738.084 1.159.239-.377-.066-.842.314-1.118.122.405-.23.87.154 1.256v.204l-.173.173-.558.179a5.68 5.68 0 01.179-1.853zm-.33-9.751c.057.004.115.004.173 0l.388 1.793c-.166.418-.354.245-.548.025a1.157 1.157 0 01-.17-.726c.157.048.386.154.314-.156a2.83 2.83 0 01-.163-.936h.006z"/><path d="M7.01 15.336c.194.22.382.392.549-.026.175.342.238.73.178 1.11-.52-.214-.313.25-.407.436l-.32-1.52zm-.041-2.761c0 .314.028.628.04.943-.228.138-.15.386-.203.587a3.682 3.682 0 01-.15-1.844h.172c.003.126.006.255.14.314zm.916 6.982c.047-.207 0-.446.2-.6-.028.543.076 1.102-.16 1.627l-.366-.182v-.173a.53.53 0 00.326-.672z"/><path d="M7.33 16.856c.094-.186-.113-.65.408-.437a.685.685 0 01.147.553c-.175.295-.354.195-.536 0a.072.072 0 01-.019-.116zm.213 3.546l.367.182.022.179c-.201.11-.236.23-.026.364v.182c-.216.201-.382.296-.345-.138a.925.925 0 00-.043-.257v-.519l.025.007zM6.8 14.117c.053-.2-.026-.449.203-.587-.003.316.047.63.148.93.075.313-.154.204-.314.156a.705.705 0 01-.037-.499zm1.085 5.44a.531.531 0 01-.333.672 1.327 1.327 0 01.02-.726l.313.054zm-.737-8.772c.374.295.123.434-.144.566 0-.085-.022-.17-.031-.252a.371.371 0 01.175-.314zm.382 7.292c.048-.1.1-.2.158-.295 0 0 .128.029.131.057.044.22-.113.314-.276.396a.173.173 0 01-.012-.158zm-.702-5.816h-.172a.465.465 0 01.135-.587.276.276 0 00.056.09.261.261 0 00.129.315l-.032.182h-.116z"/><path d="M6.972 11.1c0 .08.022.166.031.25l-.018.377a.21.21 0 00-.138.032.277.277 0 01-.057-.091.487.487 0 01.182-.569zm1.54-.68h-.495c.113-.118.27-.084.407-.122.02.048.05.09.088.123zM6.809 26.539a.195.195 0 01-.132.207.46.46 0 01-.022-.173c.052-.008.103-.02.154-.034zm.734-6.137v.204c-.12-.075-.123-.145 0-.204zM4.319 62.973a.76.76 0 00.194-.533.713.713 0 00.157-.563 2.2 2.2 0 00.37-1.08c.232-.345.207-.798.477-1.128.313.18.197.478.22.742-.195.714-.392 1.426-.59 2.138-.462.748-.553 1.662-1.051 2.397-.204.129-.188.33-.173.53a.213.213 0 00-.144.217l-.21-.025-.019-.399a.154.154 0 01.044-.147c.2-.135.17-.34.157-.537a.257.257 0 00.138-.255l.085-.433c.18-.28.298-.594.345-.924zm1.951-6.721a12.743 12.743 0 000-3.052.186.186 0 01.047-.11.874.874 0 00.652.292v.214c-.298-.02-.314.14-.282.386.103.694.207 1.388-.02 2.079-.065.06-.13.12-.2.176l-.197.015z"/><path d="M6.966 53.602v-.217c.197 0 .417.264.583-.053l.314.06a.458.458 0 00.36.181c.186.255.584.28.7.672-.822.299-1.327-.38-1.957-.643zm-.696 2.65h.398l-.025.186c-.232.154-.182.38-.157.603a.267.267 0 01-.022.314c-.313.289-.147.653-.153.992a.06.06 0 01-.035.094c-.22.145-.172.362-.15.569-.255.12-.207.342-.189.556-.235-.145-.197-.39-.225-.613a.139.139 0 01.043-.144c.239-.207.142-.48.145-.732.247-.154.191-.39.17-.628a.27.27 0 01.04-.289c.26-.232.147-.53.135-.81a.056.056 0 01-.002-.083.057.057 0 01.027-.015z"/><path d="M5.72 58.928c.029.223 0 .468.226.613-.056.295.05.628-.21.87-.022-.264.082-.563-.22-.742l.06-.681a.732.732 0 00.144-.06zm.596-.597c0-.339-.163-.703.154-.992-.012.336.057.688-.154.992zm.17-1.293c-.025-.223-.075-.45.157-.603.002.21-.052.419-.157.603zm-.361 1.956c-.022-.207-.069-.424.15-.568-.015.2.042.417-.15.568z"/><path d="M5.944 59.537c-.019-.213-.066-.436.188-.556-.016.201 0 .415-.188.556zm.724-3.287h-.204c.069-.057.135-.117.2-.177l.004.176zm-5.241-9.26a.377.377 0 00-.16-.373 1.091 1.091 0 00-.204-.521 11.435 11.435 0 010-2.513c.185-.035.098-.34.355-.333v1.501c0 .283-.104.6.182.823l.357 1.084c-.26 0-.357.166-.386.395a.402.402 0 00-.144-.062zm.863-7.063a.126.126 0 01.047-.154.21.21 0 00.126-.207c.247-.113.21-.333.207-.54-.004-.207.028-.336.04-.503.05-.069.104-.138.154-.21.223-.097.292-.314.433-.496.216-.258.235 0 .288.141a.314.314 0 00-.15.418 2.675 2.675 0 01-.408 1.027.279.279 0 00-.141.27l.022.05-.04.041a.313.313 0 00-.167.39c-.223.078-.41.097-.41-.227z"/><path d="M2.29 39.927c0 .314.188.314.407.23-.125.543-.514.942-.75 1.432a1.024 1.024 0 00-.379.766.315.315 0 01-.339.314.201.201 0 01.02-.17.493.493 0 00.144-.559.236.236 0 01.028-.166.314.314 0 00.138-.393l.037-.314a.383.383 0 00.214-.336c.165-.215.286-.462.354-.725a.276.276 0 00.126-.079zm1.286-1.953c-.053-.139-.072-.4-.289-.142-.14.182-.21.4-.42.496 0-.113 0-.223.025-.336a.865.865 0 00.173-.55c.192-.332.315-.7.36-1.083l.142-.028.376.185a2.122 2.122 0 01-.367 1.458z"/><path d="M1.23 42.669a.315.315 0 00.338-.314 1.025 1.025 0 01.38-.767 11.755 11.755 0 00-.358 3.983c-.285-.223-.176-.54-.182-.823-.016-.496 0-.993 0-1.501-.257 0-.17.314-.354.333 0-.233 0-.465.022-.698l.153-.213zm.333 4.381c.028-.23.125-.393.385-.396a.364.364 0 00.141.038c.022.148.044.295.07.44.024.144-.016.333.172.417a.195.195 0 00.138.21v.023a.315.315 0 00.176.336.086.086 0 01.048.044.085.085 0 01.002.066c0 .289-.145.38-.411.264 0-.167 0-.314-.213-.343a.21.21 0 00-.132-.22l-.36-.552a1.87 1.87 0 00-.016-.327zM3.93 36.517l-.376-.186.06-.681.144-.22c.163-.116.382-.427.367.107.001.059.008.117.018.175l-.075.767a.529.529 0 00-.138.038zm-.505 1.871a.315.315 0 01.15-.417.412.412 0 01-.15.417zm-.734 1.778a.314.314 0 01.176-.39.358.358 0 01-.176.39zm.175-.481a.28.28 0 01.142-.27.315.315 0 01-.142.27zM14.98 55.879a.295.295 0 01.163.04c.273.283.627.104.94.208.17.226.543.019.675.314-.545.073-1.1.037-1.631-.107a2.843 2.843 0 00-.257-.217c-.32-.229-.01-.2.11-.238z"/><path d="M14.98 55.879c-.12.044-.43 0-.101.242.09.067.176.139.257.216-.627.044-.94-.396-1.28-.788l.251-.248.477.248a.455.455 0 00.348.191.57.57 0 00.047.139zm1.116.248c-.313-.104-.68.075-.94-.208h2.17c-.38.27-.828.12-1.23.208zm1.571-.242a.89.89 0 01.91.04c-.286.236-.534.41-.9.315v-.104c0-.034-.004-.172-.01-.251z"/><path d="M17.683 56.124v.103l-.05.054h-.08c-.216-.032-.435-.07-.595.144l-.185.019c-.132-.314-.505-.091-.674-.314.404-.088.853.063 1.22-.22a.314.314 0 01.175 0l.189.214zm-3.576-.836l-.25.248a.985.985 0 01-.38-.364l.241-.23.389.346z"/><path d="M13.719 54.955l-.242.23c-.392-.387-.389-.4.025-.544l.195.163c.004.051.011.101.022.151zm3.233 1.47c.16-.213.38-.176.596-.144-.163.194-.386.144-.596.144zm.731-.302l-.195-.223h.18l.015.223zm-5.426-43.152c.47.583.78 1.278.9 2.017.06.54.402.998.374 1.526.373.147.313-.236.508-.295l.21.028v.527l-1.082 1.64c-.176.028-.345.292-.533.022a.182.182 0 00.144-.217.156.156 0 01.072-.147.148.148 0 00.132-.167c.057-.169.069-.35.034-.524a16.569 16.569 0 00-1.129-3.863c.016-.164 0-.314-.204-.346.076-.276-.188-.477-.163-.741l.22-.04a.17.17 0 00.175.184.173.173 0 00.17.192.178.178 0 00.172.204zm3.582.327c.078-.374.467-.528.605-.858a.178.178 0 00.141-.179.2.2 0 00.163-.198.294.294 0 00.213-.314.41.41 0 01.361.186.292.292 0 00-.188.326.217.217 0 00-.147.242.117.117 0 01-.07.12.179.179 0 00-.14.185c-.132.23-.267.458-.402.688l-.336.392-.539.358v-.358a.198.198 0 00.126-.22c.216-.047.244-.194.213-.37z"/><path d="M12.618 18.436c.188.27.357 0 .533-.022a3.455 3.455 0 01-.734 1.086.245.245 0 00-.15.21h.015a.474.474 0 00-.38.547.23.23 0 00-.169.214.216.216 0 00-.197.194v-.018a.248.248 0 00-.192.235.11.11 0 01-.084.116l-.129.135-.019.026a.505.505 0 01-.163-.418c.163-.041.21-.167.223-.314l.028-.029.135-.16.16-.194a.267.267 0 00.17-.24.114.114 0 01.087-.125l.12-.16.16-.204a.286.286 0 00.175-.267.99.99 0 01.41-.612z"/><path d="M10.95 20.74a.505.505 0 00.19.375 1.326 1.326 0 000 .157l-1.254 1.303a.4.4 0 00-.36-.185c.438-.58.914-1.131 1.423-1.65zm3.282-4.145v-.706a.18.18 0 00.142-.204.294.294 0 00.188-.359c.12-.277.298-.527.52-.731a.314.314 0 00.207-.349h.182v.556a.313.313 0 00-.2.314l-.487.763a.207.207 0 00-.147.208c-.204.044-.238.178-.198.358a.126.126 0 01-.056.147.44.44 0 00-.15.003zm1.281-1.793v-.556l.527-.358c-.057.37-.342.613-.527.914zm-3.61 5.44a.475.475 0 01.373-.547.757.757 0 01-.373.547z"/><path d="M15.315 15.122a.315.315 0 01.2-.314.293.293 0 01-.2.314zm-.882 1.323c-.04-.18 0-.315.198-.359l-.198.359zm-3.273 4.648l.128-.136-.129.136zm.212-.252a.248.248 0 01.191-.235.314.314 0 01-.19.235z"/><path d="M11.55 20.625a.216.216 0 01.198-.195.233.233 0 01-.197.195z"/><path d="M11.736 20.445a.23.23 0 01.17-.213.214.214 0 01-.17.213zm.539-.735a.245.245 0 01.15-.21l-.15.21zm1.957-3.115a.442.442 0 01.145 0 .165.165 0 01-.083.163.163.163 0 01-.062.02v-.183zm.396-.508a.208.208 0 01.147-.208c.026.12-.028.186-.147.208zm5.404-6.417c-.191.054-.417.032-.543.239a.213.213 0 01-.263 0c-.188 0-.37 0-.449.22-.467.386-.68.973-1.1 1.397a.418.418 0 01-.383-.207c.395-.628.671-1.35 1.462-1.611l.163-.072.172-.117c.267 0 .543.082.762-.15a.451.451 0 01.36 0v.188l-.181.113z"/><path d="M17.294 11.319a.418.418 0 00.392.223.721.721 0 01-.345.37.41.41 0 00-.36-.188.732.732 0 01.313-.405zm4.014.396a.457.457 0 010 .722 1.808 1.808 0 010-.722zm-2.531-1.574c.079-.223.26-.226.449-.22l-.449.22zm-1.643 2.12a.292.292 0 01.2-.348.34.34 0 01-.2.348zm-.361.543a.179.179 0 01.14-.185.176.176 0 01-.14.185zm.207-.304a.217.217 0 01.148-.242.236.236 0 01-.148.242zm4.146 25.14c-.025.183.035.39-.153.522-.574.56-.534 1.291-.568 2-.314.158-.179.462-.232.704l-.157.192c0 .179-.022.355-.031.534l-.15.188a.98.98 0 01-.136 0l-.06-.546h.02l.172-.186v-.731c.314-.248.157-.594.191-.899.264-.197.167-.48.173-.738 0-.452.263-.832.382-1.256a.314.314 0 00.16-.367c.176-.082.192-.223.15-.39.214-.078.224-.245.186-.43l.066-.273a.364.364 0 00.131-.412.1.1 0 01.06-.132.189.189 0 00.116-.21c.377.025.395.298.408.581-.226.104-.2.314-.204.509l-.016.022a.203.203 0 00-.134.213c-.276.12-.21.346-.182.56-.26.097-.217.326-.192.546zm.528-8.369c.11-.314.341-.28.586-.198.378.52.56 1.156.514 1.797v.628a.089.089 0 010 .098.087.087 0 01-.025.024.603.603 0 00-.363.358h-.186l-.166-.172c0-.063.022-.13.032-.192a1.478 1.478 0 00-.029-1.438l-.226-.484a.352.352 0 00-.14-.42h.003zm.539 2.719h.185v.365c0 .053 0 .11-.022.167-.022.056-.06.05-.057.062.019.05.042.097.07.142a3.566 3.566 0 00-.13 1.655.714.714 0 00-.19.17c-.07.122-.091.313-.283.244-.075-.031-.097-.204-.141-.314.078-.524.154-1.049.232-1.57a.487.487 0 00.141-.556.358.358 0 00.195-.364z"/><path d="M21.625 34.472c.044.11.066.283.14.314.192.075.214-.122.283-.245a.716.716 0 01.191-.17c-.025.505-.16.998-.395 1.445 0-.282-.031-.556-.408-.58.001-.267.066-.528.189-.764zm-1.975 6.74c.018.182.04.364.059.546.019.182.081.1.135 0l.17-.119a.143.143 0 01.018.148c-.022.254.044.552-.314.653-.279-.364-.188-.782-.185-1.187l.116-.041zm2.373-11.03a1.477 1.477 0 01.029 1.438l-.029-1.438zm-1.998 9.237c-.034.314.123.65-.191.898.016-.311-.031-.635.191-.898z"/><path d="M19.834 40.31v.732h-.16a1.079 1.079 0 01.16-.732zm.364-1.633c0 .258.09.54-.173.738a.969.969 0 01.173-.738zm1.801-6.337a.487.487 0 01-.142.555.602.602 0 01.142-.556zm-.342-3.063a.352.352 0 01.14.421.44.44 0 01-.14-.42z"/><path d="M22.192 31.99a.358.358 0 01-.194.371l.022-.355h.163l.01-.015zm-.924 3.572a.365.365 0 01-.132.41.465.465 0 01.132-.41zm-.21.684c.038.185.028.352-.185.43a.529.529 0 01.185-.43z"/><path d="M20.891 36.667c.041.166.026.314-.15.39a.456.456 0 01.15-.39z"/><path d="M20.744 37.053a.315.315 0 01-.16.368.342.342 0 01.16-.368zm-1.064 3.992h.16l-.172.186.012-.186zm1.763-5.825a.188.188 0 01-.116.21.21.21 0 01.116-.21zm.743-3.236h-.163v-.182l.163.182zm-1.781 8.179c.035-.71 0-1.442.568-2a7.641 7.641 0 01-.568 2z"/><path d="M20.182 40.841c.054-.242-.075-.546.232-.703a2.981 2.981 0 01-.382 1.645.135.135 0 00-.019-.144l-.019-.072c0-.18.022-.355.032-.534l.156-.192zm.944-3.201c-.025-.22-.072-.449.204-.559a.772.772 0 01-.204.56z"/><path d="M21.32 37.091c-.028-.213-.093-.44.183-.559-.022.201.021.421-.182.56zm.324-.778c0-.195-.022-.406.204-.51l-.063.488-.14.022z"/><path d="M21.493 36.548a.205.205 0 01.135-.214c-.01.11-.028.18-.135.214zm4.31 20.596c-.116.214-.235.185-.36 0h.36zm.213 0H25.8c.072-.122.144-.075.216 0zm-.922.006c-.063.13-.126.136-.195 0h.195zm-8.132-45.413a.295.295 0 01-.213.314.314.314 0 01.213-.314zm-1.124 1.56c.032.176 0 .314-.197.38a.56.56 0 01.197-.38zm-.332.953h-.185c0-.104.032-.208.05-.315l.142-.025c-.004.11-.004.236-.007.34z"/><path d="M15.647 13.671a.197.197 0 01-.126.22.192.192 0 01.126-.22zm.938-1.41a.18.18 0 01-.142.18.155.155 0 01.08-.162.155.155 0 01.062-.018zm.169-.204a.2.2 0 01-.163.198.224.224 0 01.163-.198zm2.156-2.425l-.164.073.163-.073zm3.857 21.875v-.628l.872-.515a.345.345 0 00.373-.167c.197 0 .407.032.527-.191h.439a.073.073 0 01.059-.012.073.073 0 01.047.037v.367c-.244 0-.514-.094-.705.154-.518.34-1.217.399-1.612.955z"/><path d="M24.539 29.99c-.12.223-.314.192-.527.192a.524.524 0 01.527-.192zm.439-.016h-.439a.291.291 0 01.44 0zm.11.204V30l.339.025.022.138-.361.015zm-1.088.01a.345.345 0 01-.374.166.5.5 0 01.373-.166zm-1.648 2.333c0-.056 0-.113.022-.166a.46.46 0 00.145-.035l.062.057a7.259 7.259 0 01-.345 2.004 3.566 3.566 0 01.129-1.656c-.003-.069-.01-.135-.012-.204zm.026-.534a.603.603 0 01.364-.358 1.68 1.68 0 01-.16.748l-.063-.057a.29.29 0 00-.141-.33v-.003zm1.994-1.467c.191-.247.461-.137.706-.153a.311.311 0 00.056.126l-.088.094a1.253 1.253 0 00-.674-.066z"/><path d="M25.602 30.945l-.314-.075-.25-.283.087-.094c.232.081.436.185.477.452zm3.654 4.12c-.38-.405-.26-.87-.163-1.334.232.423.17.882.163 1.334z"/><path d="M29.249 35.433v-.377c.12.132.176.255 0 .377zm1.287 1.793a.17.17 0 01-.201-.113.507.507 0 01.154-.025c.01.048.025.094.047.138zm-1.866-4.513a.185.185 0 01-.145-.176.16.16 0 01.145.176zm-.15-.183a.214.214 0 01-.158-.203.2.2 0 01.157.204zM4.144 35.712a1.156 1.156 0 01-.02-.176c.016-.534-.203-.223-.366-.106.1-.943.54-1.778.743-2.686a.234.234 0 00.129-.044.422.422 0 01.404.223c-.216.902-.69 1.734-.756 2.68a.74.74 0 00-.134.11z"/><path d="M5.033 32.924a.424.424 0 00-.404-.223l.066-.679c.181-.34.305-.708.367-1.09a.266.266 0 00.125-.078c0 .138.016.276.025.415l.204.188a3.185 3.185 0 01-.383 1.467zm.687-4.231a.138.138 0 01.038-.145.36.36 0 00.151-.373c.176.1.188.282.223.455l-.057.286a.376.376 0 00-.141.39.192.192 0 01-.034.153c-.022 0-.066.038-.063.047.018.046.038.09.063.132a.66.66 0 01-.154.544l-.402-.02c-.043-.389.185-.715.248-1.083a.373.373 0 00.129-.386z"/><path d="M5.345 30.163h.401a2.09 2.09 0 01-.157.788c-.062-.144.066-.355-.125-.436-.047-.019-.163.12-.248.188a.846.846 0 01.129-.54z"/><path d="M5.216 30.722c.085-.07.2-.207.248-.189.191.082.063.293.125.437a.088.088 0 01-.037.116l-.355.182c0-.138 0-.276-.025-.414a.11.11 0 01.044-.132z"/><path d="M5.197 31.269l.355-.183a.54.54 0 01-.15.371l-.205-.188zm.737-1.963a.377.377 0 01.141-.4v.315a.402.402 0 00-.14.085zm-.034.333a1.016 1.016 0 01-.063-.132s.04-.032.063-.048v.18zM3.924 65.477c0-.201-.032-.402.172-.531l-.019.474c-.05.022-.101.041-.153.057zm6.726-53.992l.151.085a.153.153 0 00.173.145.22.22 0 00.238.135.473.473 0 01.314.22v.358h-.543c-.031-.462-.314-.594-.721-.538v-.19a.386.386 0 00.389-.214zm.876.952v-.358c.17.038.217.163.217.314l-.217.044zm2.725 3.467v.343l-.21-.029.066-.314a.87.87 0 01.144 0zm-1.994-2.933a.178.178 0 01-.163-.195.188.188 0 01.163.195zm-.163-.195a.173.173 0 01-.17-.191.174.174 0 01.127.059.175.175 0 01.043.132zm-.172-.201a.165.165 0 01-.166-.114.168.168 0 01-.007-.07.18.18 0 01.173.184z"/><path d="M11.225 11.86a.22.22 0 01-.239-.136.237.237 0 01.239.135zm-.251-.145a.154.154 0 01-.172-.145c.05-.003.1-.003.15 0 .007.063.016.094.022.145zm21.023 32.009c0-.229-.022-.458-.031-.687.222.172.182.442.238.675l-.084.066a.354.354 0 00-.123-.054z"/><path d="M32.279 44.296a.549.549 0 01-.16-.528l.085-.066.122.233.056.367-.053.022-.05-.028zM2.697 67.999a.148.148 0 000-.135l.16-.214h.348l.022.829c.035.49-.02.983-.16 1.454-.483-.603-.135-1.319-.37-1.934z"/><path d="M3.228 68.479c0-.27-.016-.543-.022-.814v-.345c-.053-.148-.113-.144-.173 0h-.15v-.342a.743.743 0 01.141-.025c.417-.073.505-.249.176-.556-.027-.26.029-.52.16-.745l.087.082c-.018.15-.106.314.082.433l.085.104-.386 2.208z"/><path d="M3.566 65.668l.213.025c0 .207.028.418-.166.565l-.085-.103.038-.484v-.003z"/><path d="M3.776 65.7a.214.214 0 01.144-.218.189.189 0 01-.144.217zm14.412-45.323v.376a.316.316 0 00-.12.047l-.052-.06c.028-.128.028-.279.172-.363z"/><path d="M17.855 21.127a.464.464 0 01.16-.386l.056.05c-.053.122-.11.245-.163.37l-.053-.034zm-.172.364l.037-.314a.533.533 0 00.135-.047l.053.044a.364.364 0 00-.03.154l-.195.163zm1.777-3.643a.16.16 0 01-.137.207.191.191 0 01.138-.207zM8.308 24.645l-.247-.296a8.632 8.632 0 011.292-1.77c0 .175.025.345.235.404-.2.252-.36.533-.477.832-.414.136-.451.635-.803.83zm-1.455 2.49a.214.214 0 01.156-.21v.182a.447.447 0 01-.156.028zm1.261-2.132a.26.26 0 01.119-.245c-.035.082-.079.163-.12.245zM9.96 6.077l-.78-1.256.062-.019c.167-.019.43.314.47-.141.473.492.912 1.017 1.312 1.57a.192.192 0 00.157.21l-.02.195h-.548a.205.205 0 00-.21-.166l-.442-.393zm2.115 1.288c0 .257-.172.351-.398.38-.313-.035-.339-.368-.524-.534v-.572h.195c.276.205.522.45.727.726z"/><path d="M11.162 6.64v.57c-.329-.037-.436-.313-.539-.555l.54-.016zm-.768-.151a.204.204 0 01.21.166.185.185 0 01-.21-.166zm15.208 24.456c-.04-.267-.245-.37-.467-.452a.314.314 0 01-.057-.126v-.188h.37a.314.314 0 00.351.179c.402.188.832.314 1.117.703a.377.377 0 00-.144.503l-.072.069a4.98 4.98 0 01-1.098-.688zm-9.936-4.4l-.201-.031a.423.423 0 01.182-.355.99.99 0 01.075.094l-.056.292zm-.348.191a.183.183 0 01-.126.183.163.163 0 01.126-.183zm.157-.21a.23.23 0 01-.157.21.174.174 0 01.086-.19.172.172 0 01.07-.02zM10.99.327a.398.398 0 00.272.216c-.216.233-.492.085-.74.11-.247.025-.586-.063-.812.192a.147.147 0 01-.141.028.42.42 0 01-.226-.39.333.333 0 00.04-.156 3.759 3.759 0 011.607 0zm4.331 13.922a.315.315 0 01-.207.349.424.424 0 01.207-.349zm-.727 1.081a.296.296 0 01-.189.358.451.451 0 01.189-.358z"/><path d="M14.405 15.685a.179.179 0 01-.141.204.188.188 0 01.141-.204zM6.05 51.953a.836.836 0 00.031.153l-.06.06c-.14 0-.357-.449-.417.07l-.103.08-.251-.1a1.442 1.442 0 00-.577-.867.207.207 0 00-.163-.2c-.05-.39-.496-.506-.593-.867.185-.072.511.286.561-.189.383.226.502.694.866.942.115.287.3.538.54.732a.208.208 0 00.166.185z"/><path d="M4.479 50.093c-.05.474-.376.116-.562.189a1.814 1.814 0 01-.558-.49.208.208 0 00-.175-.223.519.519 0 01.263-.427.123.123 0 01.12.084.163.163 0 00.172.139c.227.131.419.317.558.54a.23.23 0 00.176.179l.006.01z"/><path d="M3.742 49.371a.163.163 0 01-.173-.138.756.756 0 01.148 0c.006.044.015.088.025.138zm.733.719a.229.229 0 01-.175-.179.201.201 0 01.175.18zM9.344.48a.421.421 0 00.225.39l-.37.53c-.313.315-.288.682-.238 1.075a.921.921 0 01-.238.942c-.16-.732-.054-1.347-.104-1.947a1.144 1.144 0 01.725-.99z"/><path d="M8.619 1.47c.05.6-.057 1.215.103 1.947a.92.92 0 00.239-.942c-.05-.393-.076-.766.238-1.074-.182.766-.035 1.533 0 2.296-.57-.113-.358.314-.398.574a1.097 1.097 0 00-.142-.022c-.05-.241.066-.524-.185-.712.057-.698-.194-1.398.145-2.067zm9.064 20.022l.194-.167h.314l-.06.37-.153.315-.18.361-.181.236h-.276c0-.06-.022-.12-.031-.183a.314.314 0 00.15-.38.313.313 0 00.166-.411.113.113 0 01.057-.141zm-.741 1.62c0 .208.044.421-.188.547.019-.198-.028-.405.188-.547z"/><path d="M17.642 21.614a.314.314 0 01-.166.412.438.438 0 01.166-.412z"/><path d="M17.479 22.019a.315.315 0 01-.15.38c.018-.138.012-.289.15-.38zm-.159.393c0 .062.021.122.03.182l-.206.166c.025-.135.009-.286.175-.348zm-.183.368a.314.314 0 01-.198.335.332.332 0 01.198-.336zm-.38.869a.315.315 0 01-.154.377v-.343a.777.777 0 00.154-.034zm-7.169-.666c-.21-.06-.226-.23-.235-.405l.185-.185a.402.402 0 01.36.185.579.579 0 01-.31.405zm17.193 8.581a.378.378 0 01.144-.503.15.15 0 01.15.072.15.15 0 00.195.126.194.194 0 01.188.157c-.128.565-.442.122-.677.148zm-.972-1.206a.313.313 0 01-.36-.18l.313.054.047.126z"/><path d="M27.27 31.259a.15.15 0 01-.194-.126.943.943 0 01.16-.028c.01.053.022.104.035.154zM5.72 28.693a.374.374 0 01-.128.396v-.314a.542.542 0 00.128-.082zm24.944 22.801c.031.173 0 .314-.176.402 0-.113.022-.226.035-.342a.465.465 0 00.14-.06zm.17-.384a.229.229 0 01-.12.252.268.268 0 01.12-.251zm-24.753.996c.05.016.1.028.15.035l.45.628a.778.778 0 00-.365.32.192.192 0 00-.06.104.314.314 0 00-.15-.044c-.047-.232-.313-.314-.398-.502l.078-.095c.223-.047.314-.163.226-.392l.07-.054zm.17 4.237c0 .28.126.578-.135.81v-.7a.464.464 0 00.135-.11zM2.65 48.106a.314.314 0 01-.175-.337l.144.023.032.314zm-.32-.556c-.188-.085-.19-.245-.172-.418.185.085.197.242.172.418z"/><path d="M2.462 47.75a.195.195 0 01-.138-.21.201.201 0 01.138.21zm.988 1.398a.517.517 0 00-.27.427l-.314-.07a.222.222 0 00-.207-.147.22.22 0 00-.147-.207.431.431 0 00-.185-.355l-.056-.314c.266.116.401.025.41-.264l.769.93z"/><path d="M3.18 49.569a.207.207 0 01.176.223.229.229 0 01-.175-.223zM16.04 25.28a.314.314 0 01-.16.38.37.37 0 01.16-.38zM9.074 10.593a.385.385 0 01-.436-.138h.348c.024.05.054.095.088.138zm1.041.559l-.207-.125c.051.003.103.003.154 0 .01.045.028.087.053.126zm-.348-.188l-.223-.132.223.132zm-.314-.188a.289.289 0 01-.26-.145.278.278 0 01.26.145zm-.627-6.505c.04-.254-.173-.687.398-.574a.239.239 0 00.138.229l.214.528c-.207.028-.392.078-.314.358l-.063.018a.552.552 0 00-.138-.047c0-.21-.191-.33-.235-.512zM5.909 58.052c0 .251.094.524-.144.731v-.681a.58.58 0 00.144-.05z"/><path d="M6.076 57.442c.022.227.078.462-.17.629a1.21 1.21 0 01.17-.629zm-4-9.305c.204.034.23.176.214.342a.367.367 0 01-.214-.342z"/><path d="M1.954 47.923a.21.21 0 01.132.22.174.174 0 01-.115-.08.173.173 0 01-.017-.14zm3.763 4.73c-.163-.053-.19-.195-.216-.336l.103-.082c.063.107.13.214.192.314l-.079.104zm.599.437a.778.778 0 01.355-.343c.025.188.153.23.313.223.212.067.404.186.559.346-.167.314-.386.066-.584.053a.859.859 0 01-.643-.28z"/><path d="M7.003 52.986c-.163 0-.292-.034-.314-.223l.283.085a.686.686 0 00.031.138zM6.132 28.63c-.034-.172-.047-.354-.223-.455a.208.208 0 01.041-.163.223.223 0 00.126-.227.17.17 0 01.062-.134.217.217 0 00.12-.224l.188-.207v.597c-.173.082-.18.226-.157.386-.047.148-.104.286-.157.427zm.326-.813v-.597a.34.34 0 01.166-.314c.082.082.16.167.241.252l-.056.314a.547.547 0 00-.185.351c-.056.002-.111 0-.166-.006z"/><path d="M6.258 27.427a.217.217 0 01-.12.223c0-.06-.018-.116-.025-.176l.145-.047zm.037.785c-.022-.16-.016-.314.157-.386 0 .11-.016.22-.025.314-.045.021-.09.046-.132.072zM3.18 66.374c.33.315.242.484-.175.556 0-.176.022-.351.031-.524a.458.458 0 00.145-.032zm.37-1.105l.02.399a.315.315 0 00-.12.05l-.09-.066c0-.107.028-.213.043-.314a.811.811 0 00.148-.069zM1.392 41.94a.494.494 0 01-.144.56v-.519a1.18 1.18 0 01.144-.04zm.167-.559a.315.315 0 01-.138.402.37.37 0 01.138-.402zm30.768 2.563l-.123-.233c-.056-.232-.015-.502-.238-.675 0-.11-.019-.22-.031-.314.153-.286.335-.16.514-.034.132.364-.053.775.176 1.124a.927.927 0 01.022.157l-.32-.025zM5.91 28.175a.361.361 0 01-.151.373v-.335a1.13 1.13 0 00.15-.038zm.165-.39a.223.223 0 01-.126.226.214.214 0 01.126-.226zm14.292-1.225l-.16-.157a.692.692 0 00.138 0 .735.735 0 00.022.157zm-.25-.204a.355.355 0 01-.289-.166.37.37 0 01.289.166zM3.752 64.585c0 .197.043.402-.157.537 0-.164 0-.33.025-.497l.132-.04zm.14-.258a.258.258 0 01-.138.254.264.264 0 01.138-.254zm-.69 2.981v.345h-.335a.246.246 0 010-.163l.147-.195h.088l.1.013zm-.187-.017l-.148.195v-.188l.148-.007zm7.636-55.806a.386.386 0 01-.389.226c-.15-.075-.175-.22-.2-.364h.392a.216.216 0 01.197.138zm-.198-.144h-.194v-.144c.053-.003.107-.003.16 0 .01.047.022.097.034.144zm-7.793 27.7c0 .208.04.428-.207.54l.075-.49a.34.34 0 00.132-.05z"/><path d="M2.462 39.566a.21.21 0 01-.126.207 1.01 1.01 0 01-.022-.166l.148-.041zm29.476.939c0-.141 0-.286.03-.427.032-.226.16-.185.296-.094 0 .725.087 1.454-.1 2.18-.28-.531-.08-1.119-.227-1.659zm.388 3.439h.314a.201.201 0 01.053.138.367.367 0 01-.313.217l-.054-.355zm-19.319-8.376a.211.211 0 010-.132 1.09 1.09 0 01.14 0l-.14.132zm8.157-7.265l-.16-.339c.1-.204.26-.138.414-.094.047.22.147.474-.254.433zm-3.999-1.535a.564.564 0 01.144-.028c0 .053.007.106.022.157a.147.147 0 01-.166-.129zm-1.499-.223l.056-.292c.157.06.135.188.126.314l-.182-.022zm-2.882 13.589c-.057.107-.11.117-.16 0a.91.91 0 00.16 0zm14.678 4.944a.142.142 0 010 .132h-.204a1.39 1.39 0 010-.163 1.05 1.05 0 01.063-.22c.138.028.113.157.141.25zm.341-5.66c-.04.066-.081.138-.14 0a.538.538 0 01.14 0zm-.555 5.795h.204c-.022.072-.035.207-.063.21-.15.016-.122-.119-.141-.21zM18.2 21.31h-.313a.366.366 0 01.031-.154c.053-.126.11-.249.163-.371a.314.314 0 01.12-.047l.216.213-.066.292a.313.313 0 01-.15.066zm1.832-11.64l.166-.126a.166.166 0 01-.166.126zm-5.799-2.663a.388.388 0 01.176-.37.34.34 0 01-.176.37zm-3.987 4.896a2.307 2.307 0 01-.919-.528l.734-.028c.025.145.05.29.2.364-.005.063-.009.13-.015.192zm-1.621-.898a1.955 1.955 0 00-1.057.057c.336-.39.69-.34 1.057-.057zm.712.38a.49.49 0 01-.363-.163l.018-.23a.502.502 0 01.345.393z"/><path d="M8.992 11.005l-.02.23a.335.335 0 01-.344-.227l.364-.003zm-2.146.753a.21.21 0 01.138-.03v.335a.261.261 0 01-.138-.305zm-.018.503h.116v.314c-.11-.06-.113-.188-.116-.314zm.909 12.669l.173-.172-.173.172zm.176-.36a.198.198 0 01.154-.214.251.251 0 01-.154.213zm.019-3.807c.147.132.057.248-.025.364-.21-.135-.176-.254.025-.364zm3.754-7.582l-.706-.735h.543c-.025.258.238.459.163.735z"/><path d="M11.887 13.517a.347.347 0 01-.204-.345c.194.047.22.188.204.345zm.743 4.903a.214.214 0 01.145-.217.18.18 0 01-.078.19.182.182 0 01-.067.027zm.217-.364c0-.098.04-.148.131-.167a.147.147 0 01-.131.167zM10.95 20.74a.37.37 0 01.222-.313c-.013.157-.06.282-.223.314zm.25-.332l.135-.17-.135.17zm.156-.182a.21.21 0 01.16-.195l-.16.195z"/><path d="M11.514 20.034a.314.314 0 01.169-.239.267.267 0 01-.17.24zm.256-.364l.12-.16-.12.16zm.124-.17a.213.213 0 01.16-.204l-.16.204z"/><path d="M12.044 19.309a.356.356 0 01.176-.267.287.287 0 01-.176.267zm8.138 21.532l-.157.192.157-.192zm-.188.739l.02.071-.17.117.15-.189zm-.15.203c-.053.091-.1.132-.135 0 .045.003.09.003.135 0zm2.534-9.793a.289.289 0 01.141.33.464.464 0 01-.144.035c.003-.122.003-.242.003-.364zm-.025.532v.204a.832.832 0 01-.069-.142s.05-.04.07-.063zM10.974 12.443a2.637 2.637 0 01-.721-.537c.414-.056.69.076.721.537zM3.447 65.721a.315.315 0 01.12-.05l-.038.483c-.189-.116-.1-.282-.082-.433zm-.244 1.586H3.03c.06-.144.12-.147.173 0zm6.363-62.85a.21.21 0 01.148.216c-.041.443-.314.123-.47.142-.07-.28.115-.33.322-.358zm1.612 1.994a.191.191 0 01.176.189h-.195l.019-.189zm-.158-.217a.188.188 0 01.158.21.192.192 0 01-.157-.21zM5.796 52.56a6.877 6.877 0 00-.192-.315c.06-.518.276-.066.418-.07.094.22-.004.337-.226.384zM9.214 3.7a.2.2 0 01.138.229.239.239 0 01-.138-.23z"/></g><defs><clipPath id="clip0_1_3116"><path fill="#fff" transform="translate(.985 .013)" d="M0 0h32.298v73.325H0z"/></clipPath></defs></svg>