<svg width="62" height="61" fill="none" xmlns="http://www.w3.org/2000/svg"><g clip-path="url(#clip0_1_371)" stroke="#2E1A1E" stroke-miterlimit="10"><path d="M2.82 38.325a187.038 187.038 0 00-1.802 19.801M3.16 36.071l-.062.402m.595-3.603l-.142.825m.819-4.483l-.106.547m.911-4.437a44.82 44.82 0 00-.114.536"/><path d="M32.677.486c.993 1.884 1.146 4.457-.166 6.233-1.051 1.423-3.024 1.812-4.672 2.008-4.536.545-9.244-.655-13.692.676-6.572 1.967-7.71 10.131-8.973 15.92"/><path d="M5.783 23.002c-.288-.126-.56-.347-.827-.521a5.151 5.151 0 01-.842-.682 7.5 7.5 0 01-1.264-1.695c-.182-.328-.342-.678-.367-1.049-.025-.371.13-.773.456-.968.302-.18.697-.158 1.025-.023.318.15.61.349.868.59l1.481 1.255c.045.037.12.07.165.107m-.971 3.837c-.27 0-.505.015-.827 0-1.111-.038-2.81-.104-3.284 1.133-.296.768-.024 1.666.478 2.314.503.648 1.208 1.096 1.897 1.531l.599.379 1.14.717c.55.347 1.215.71 1.823.463.607-.248.834-1.041.663-1.672-.171-.63-.646-1.134-1.14-1.563-.332-.289-.68-.56-1.04-.81-.298-.207-.758-.38-.946-.707a.25.25 0 01-.042-.16.195.195 0 01.137-.14.551.551 0 01.2-.013"/><path d="M2.01 27.5l-.006-.032c-.403-.154-.93-.267-1.312-.01a1.291 1.291 0 00-.541.995c-.031.591.25 1.146.524 1.668.465.888.972 1.82 1.832 2.314.376.196.773.345 1.183.445.132.039.263.076.393.116.806.253 2.165.956 2.932 1.298.643.285 1.294.664 1.984.329.74-.36.456-1.428.029-1.967-.684-.88-2.425-1.523-3.4-1.948-.512-.226-1.058-.48-1.367-.948"/><path d="M3.546 33.695a2.4 2.4 0 00.76.39c.39.146.772.333 1.166.463.281.091.555.207.817.347.455.24 1.042.63 1.041 1.215 0 .4-.356.733-.719.848-.412.13-.864.038-1.267-.116-.403-.154-.78-.38-1.19-.523-.911-.317-2.02-.267-2.678-.982-.321-.347-.47-.82-.608-1.273l-.5-1.634a2.787 2.787 0 01-.16-1.113c.048-.432.37-.695.61-.926"/><path d="M3.618 33.348a.237.237 0 00-.253.133c.049.08.11.153.18.214m-2.43.819c-.271.252-.56.463-.79.753-.266.347-.216.796-.009 1.157.327.579.93.976 1.469 1.343.583.398 1.24.713 1.952.756.392.023.824-.056 1.081-.355a.731.731 0 00.094-.792c-.156-.277-.643-.414-.92-.53l-.894-.378m15.182-6.173a248.985 248.985 0 00-4.444 24.733m32.394 5.366c.576-3.383 1.513-6.71 2.55-10.025 2.166-6.914 5.04-13.497 8.363-19.748 1.914-3.604 4.532-8.324 4.704-12.476.075-1.825-.203-3.756-1.303-5.2-1.282-1.686-3.842-2.722-6.495-3.286"/></g><defs><clipPath id="clip0_1_371"><path fill="#fff" transform="translate(0 .418)" d="M0 0h62v60H0z"/></clipPath></defs></svg>