<svg width="59" height="69" fill="none" xmlns="http://www.w3.org/2000/svg"><g clip-path="url(#clip0_1_3528)" fill="#2E1A1E"><path d="M29.5 38.906l-4.25-2.446v-4.896l4.25-2.447 4.25 2.447v4.893l-4.25 2.449zM26.047 36l3.453 1.988L32.953 36v-3.977L29.5 30.034l-3.453 1.989V36z"/><path d="M27.256 32.72v2.587l2.244 1.292 2.245-1.292V32.72L29.5 31.426l-2.244 1.294zm4.96 13.427L29.5 44.252l-2.716 1.895-.457-.654 3.173-2.212 3.173 2.212-.457.654zm4.31 11.664l-7.027-4.9-7.025 4.9-.457-.653L29.5 51.94l7.482 5.218-.456.653zm-3.015 5.138l-4.01-2.797-4.012 2.797-.457-.652L29.5 59.18l4.468 3.116-.457.652z"/><path d="M29.898 59.666l-.398 8.347-.398-8.347h.796z"/><path d="M29.9 38.446h-.798v21.22h.798v-21.22zm7.975 4.05l-.333-3.849 3.506-1.637.338.721-3.002 1.402.286 3.295-.795.068zm7.965 9.558l-.784-9.077 8.268-3.86.338.72-7.764 3.625.738 8.524-.795.068zm5.966-.037l-.47-5.421 4.938-2.304.338.721-4.432 2.07.421 4.865-.795.069z"/><path d="M51.958 46.496L59 51.014l-7.441-3.829.4-.69zM33.547 35.883l-.4.69 18.412 10.61.4-.69-18.412-10.61zm7.501-4.868l-3.506-1.637.332-3.848.796.069-.286 3.294 3.002 1.401-.338.721zm12.276-2.106l-8.268-3.86.785-9.078.795.07-.738 8.522 7.764 3.624-.338.722zm2.95-5.176l-4.937-2.304.469-5.42.795.068-.42 4.865 4.431 2.07-.338.721z"/><path d="M51.559 20.842L59 17.013l-7.042 4.518-.4-.69z"/><path d="M51.56 20.841l-18.413 10.61.4.69 18.411-10.61-.399-.69zM29.5 24.745l-3.173-2.213.457-.652 2.716 1.893 2.716-1.893.457.652-3.173 2.213zm0-8.66l-7.483-5.218.457-.653 7.026 4.9 7.026-4.9.456.653-7.482 5.218zm0-7.239l-4.468-3.117.457-.652L29.5 7.874l4.011-2.797.457.652L29.5 8.846z"/><path d="M29.102 8.36L29.5.012l.398 8.346h-.796zm.798 0h-.798v21.22h.798V8.36zM17.952 31.015l-.338-.72 3.002-1.402-.286-3.294.796-.07.332 3.85-3.506 1.636zM5.677 28.909l-.34-.722 7.765-3.624-.737-8.523.794-.069.787 9.077-8.27 3.86zm-2.951-5.176l-.338-.72 4.432-2.07-.421-4.866.795-.067.47 5.42-4.938 2.303z"/><path d="M7.042 21.531L0 17.013l7.442 3.829-.4.69z"/><path d="M7.443 20.84l-.399.69 18.412 10.61.399-.69L7.443 20.84zm13.683 21.656l-.796-.068.286-3.295-3.002-1.402.338-.72 3.507 1.636-.333 3.849zm-7.966 9.558l-.795-.068.737-8.524-7.764-3.623.339-.722 8.269 3.86-.787 9.077zm-5.966-.037l-.795-.07.42-4.864-4.431-2.07.338-.721 4.937 2.305-.469 5.42z"/><path d="M7.442 47.185L0 51.014l7.042-4.518.4.689zm18.014-11.3L7.044 46.495l.4.69 18.41-10.61-.398-.69zm.046-1.873l-4.121-2.123 4.425 1.386-.304.737zm.304.738l-4.425 1.388 4.121-2.123.304.736zm-4.071-.999l-7.112-3.35 7.417 2.615-.305.735zm.305 1.259l-7.417 2.615 7.112-3.351.305.736zm5.46 2.458l-3.902 2.501 3.414-3.131.488.63zm.794.108l-1.01 4.517.218-4.623.792.106zm-2.902 3.018l-6.464 4.474 5.976-5.104.488.63zm1.243.366l-1.44 7.719.65-7.825.79.107zm4.862-3.49l.22 4.623-1.01-4.517.79-.106zm.491-.632l3.416 3.131-3.902-2.501.486-.63zm1.169 4.017l.65 7.824-1.442-7.718.792-.106zm.939-.891l5.976 5.104-6.463-4.474.486-.63zm-.598-5.949l4.121 2.123-4.424-1.387.303-.736zm-.303-.74l4.424-1.386-4.12 2.123-.304-.737zm4.07.999l7.113 3.35-7.416-2.614.303-.736zm-.303-1.258l7.416-2.615-7.113 3.35-.303-.735zm-5.46-2.458l3.9-2.502-3.414 3.133-.486-.631zm-.795-.108l1.01-4.517-.22 4.624-.79-.106zm2.903-3.018l6.462-4.473-5.977 5.103-.486-.63zm-1.245-.367l1.44-7.718-.648 7.824-.792-.106zm1.651-.859l.904-6.728 2.884-1.103c.656-.25.656-.25.814-.173l.183.092.6 3.766-5.385 4.146zm1.632-6.154l-.584 4.341 3.475-2.675-.42-2.616-2.471.95zm-8.147 10.505l-.219-4.623 1.01 4.517-.79.106zm-.49.632l-3.414-3.131 3.902 2.501-.488.63zm-1.168-4.017l-.649-7.824 1.44 7.718-.791.106zm-.939.891l-5.977-5.104 6.463 4.473-.486.63zm.078-1.856l-5.385-4.147.484-3.042c.112-.693.11-.693.258-.796l.172-.112 3.567 1.364.904 6.733zm-4.529-4.487l3.475 2.675-.583-4.342-2.47-.95c-.115.73-.33 2.076-.422 2.617z"/><path d="M25.501 34.014l-4.121-2.122 4.424 1.385-.303.737zm.303.74L21.38 36.14l4.121-2.123.303.737zm-4.07-1l-7.114-3.35 7.417 2.615-.303.735zm.303 1.258l-7.417 2.616 7.114-3.352.303.736zm-1.569-.997l-6.29 2.587-2.391-1.941c-.548-.443-.548-.443-.558-.618l-.012-.204 2.96-2.407 6.29 2.583zm-6.157 1.667l4.06-1.667-4.06-1.666-2.057 1.666 2.057 1.667zM27.5 37.471l-3.902 2.502 3.414-3.131.488.63zm.793.108l-1.01 4.518.22-4.624.79.106zm-2.901 3.018l-6.464 4.473 5.976-5.102.488.63zm1.243.368l-1.44 7.718.648-7.825.792.107zm-1.651.859l-.904 6.728-2.884 1.103c-.656.25-.656.25-.814.172l-.183-.091-.6-3.767 5.385-4.145zm-1.632 6.154l.584-4.342-3.475 2.675.417 2.612 2.474-.945zM31.5 37.473l.218 4.624-1.009-4.518.79-.106zm.49-.633l3.414 3.132-3.902-2.5.487-.632zm1.168 4.018l.648 7.823-1.44-7.718.792-.105zm.938-.892l5.977 5.104-6.463-4.473.486-.63zm-.078 1.856l5.385 4.147-.487 3.042c-.112.694-.11.694-.258.796l-.171.113-3.568-1.363-.901-6.735zm4.523 4.488l-3.477-2.674.583 4.34 2.472.947c.12-.727.336-2.072.422-2.613zM33.5 34.015l4.12 2.123-4.424-1.386.303-.737zm-.304-.739l4.424-1.386-4.12 2.123-.304-.737zm4.07.999l7.113 3.35-7.416-2.614.303-.736zm-.303-1.258l7.416-2.614-7.113 3.35-.303-.736zm1.57.997l6.29-2.582 2.391 1.94c.547.443.547.443.558.618l.012.204-2.96 2.408-6.29-2.588zm6.156-1.666l-4.059 1.666 4.06 1.666 2.062-1.666-2.063-1.666zm-17.187-1.791l-.219-4.624 1.01 4.518-.79.106zm-.49.632l-3.414-3.133 3.902 2.502-.488.63zm-1.167-4.019l-.65-7.823 1.44 7.718-.79.106zm-.941.893l-5.976-5.104 6.464 4.473-.488.63z"/></g><defs><clipPath id="clip0_1_3528"><path fill="#fff" transform="translate(0 .013)" d="M0 0h59v68H0z"/></clipPath></defs></svg>