<svg width="81" height="82" fill="none" xmlns="http://www.w3.org/2000/svg"><path d="M43 24.417c-.266-6.43-.9-12.84-1.9-19.204l-.6-3.796-.6 3.798a168.78 168.78 0 00-1.901 19.202 18.768 18.768 0 015 0v0zm-5 33c.267 6.426.901 12.834 1.9 19.194l.601 3.806.598-3.796A167.984 167.984 0 0043 57.427a18.768 18.768 0 01-5 0v-.01zm19-14c6.426-.265 12.834-.9 19.194-1.9l3.806-.6-3.796-.6c-6.36-1-12.768-1.634-19.194-1.901a18.768 18.768 0 010 5H57zm-33-5c-6.43.267-12.84.901-19.204 1.9L1 40.919l3.798.598A168.4 168.4 0 0024 43.417a18.768 18.768 0 010-5zm9.655-19.635c-2.335-1.166-4.577-3.765-5.08-6.28C28.072 9.986 27.33 6.314 24 6.419c0 0 2.834 1.922 2.738 5.186-.069 2.27-1.023 5.067.704 6.989 1.727 1.921 3.372 3.72 3.372 5.828a6.125 6.125 0 01-.705 2.995v0a16.028 16.028 0 017.891-3.5s-1.384-3.668-4.345-5.135zm13.691 0c2.338-1.166 4.578-3.765 5.08-6.28.503-2.516 1.248-6.188 4.574-6.083 0 0-2.837 1.922-2.738 5.186.068 2.27 1.022 5.067-.705 6.989-1.727 1.921-3.354 3.72-3.354 5.828a6.125 6.125 0 00.705 2.995h-.011a16.032 16.032 0 00-7.897-3.5s1.384-3.668 4.346-5.135zm-.012 43.868c2.341 1.111 4.584 3.587 5.09 5.983.505 2.396 1.247 5.893 4.576 5.781 0 0-2.838-1.83-2.741-4.938.068-2.164 1.023-4.828-.706-6.658-1.73-1.83-3.358-3.544-3.358-5.55a5.588 5.588 0 01.706-2.851h-.012A16.457 16.457 0 0143 57.742s1.372 3.505 4.334 4.909zm-13.679.006c-2.35 1.11-4.577 3.584-5.082 5.98-.506 2.394-1.246 5.89-4.573 5.778 0 0 2.836-1.829 2.738-4.936-.069-2.162-1.023-4.825.704-6.654 1.727-1.83 3.372-3.543 3.372-5.549a5.576 5.576 0 00-.705-2.858h.014A16.42 16.42 0 0038 57.741s-1.384 3.512-4.345 4.915zM30 27.234a167.522 167.522 0 00-14.075-11.652L13 13.417l2.163 2.925c3.625 4.9 7.514 9.599 11.651 14.075a16.35 16.35 0 011.478-1.704A16.616 16.616 0 0130 27.233v0zm21 27.364a167.143 167.143 0 0014.075 11.654L68 68.417l-2.168-2.925A167.52 167.52 0 0054.18 51.417 16.243 16.243 0 0151 54.598zm3.183-24.181a167.522 167.522 0 0011.652-14.075L68 13.417l-2.927 2.163A167.506 167.506 0 0051 27.23a16.08 16.08 0 013.183 3.186v0zm-27.366 21a167.144 167.144 0 00-11.652 14.075L13 68.417l2.925-2.168c4.9-3.625 9.599-7.515 14.075-11.653a16.364 16.364 0 01-3.183-3.179v0zm35.828-17.345c1.163-2.343 3.761-4.587 6.279-5.091 2.517-.504 6.186-1.241 6.073-4.564 0 0-1.923 2.842-5.186 2.743-2.27-.068-5.067-1.024-6.988.707-1.92 1.73-3.712 3.36-5.829 3.36A6.1 6.1 0 0154 30.521a16.058 16.058 0 013.49 7.896s3.679-1.368 5.155-4.345zm.002 13.676c1.163 2.342 3.762 4.585 6.28 5.091 2.518.506 6.188 1.248 6.07 4.578 0 0-1.924-2.839-5.187-2.742-2.271.068-5.068 1.024-6.99-.706-1.921-1.73-3.708-3.366-5.825-3.366a6.105 6.105 0 00-2.995.706 16.045 16.045 0 003.491-7.892s3.68 1.367 5.156 4.33zm-43.882.003c-1.108 2.341-3.586 4.584-5.981 5.087-2.396.504-5.893 1.25-5.781 4.579 0 0 1.83-2.84 4.94-2.741 2.163.068 4.824 1.023 6.657-.706 1.832-1.73 3.54-3.358 5.548-3.358a5.59 5.59 0 012.852.706v-.012a16.436 16.436 0 01-3.325-7.889s-3.513 1.37-4.91 4.334zm0-13.679c-1.108-2.343-3.586-4.587-5.981-5.094-2.396-.506-5.893-1.238-5.781-4.561 0 0 1.83 2.84 4.94 2.743 2.163-.068 4.824-1.024 6.657.707 1.832 1.73 3.54 3.36 5.548 3.36A5.58 5.58 0 0027 30.521v0a16.458 16.458 0 00-3.325 7.896s-3.513-1.37-4.91-4.345z" stroke="#2E1A1E" stroke-width=".7" stroke-linecap="round" stroke-linejoin="round"/></svg>