<svg width="62" height="66" fill="none" xmlns="http://www.w3.org/2000/svg"><g clip-path="url(#clip0_1_397)"><path d="M50.247 65.773c-.464 0-1.213-.01-1.56-.057-.42-.057-.665-.073-1.468-.184-.874-.12-1.075-.317-1.394-.645a38.78 38.78 0 01-2.666-3.064 63.33 63.33 0 01-1.651-2.229c-.522-.733-.975-1.39-1.275-1.829-.724-1.06-.713-1.068-.156-1.483l.007-.006c.526-.39-.03.024.134-.099.415-.311 1.074-.805 1.464-1.043.296-.18.481-.246.76-.076.203.125.43.4.824.913l.171.223.171-.143a29.511 29.511 0 001.435-1.287c.26-.245.519-.5.743-.726a18.302 18.302 0 001.125-1.228 28.29 28.29 0 001.085-1.364 23.074 23.074 0 00.962-1.388c.159-.247.318-.503.478-.77.162-.276.329-.572.502-.897a31.76 31.76 0 001.04-2.146 24.09 24.09 0 001.675-5.576 26.364 26.364 0 00.338-2.703c.036-.48.061-.96.073-1.413a23.22 23.22 0 00-.09-2.747 26.103 26.103 0 00-.496-3.187 28.723 28.723 0 00-1.004-3.494 22.15 22.15 0 00-.653-1.623 21.357 21.357 0 00-.844-1.663 31.228 31.228 0 00-2.431-3.694 27.018 27.018 0 00-2.795-3.1 24.762 24.762 0 00-2.572-2.14 27.94 27.94 0 00-2.582-1.669 6.692 6.692 0 01-.6-.371.881.881 0 01-.109-.096 37.771 37.771 0 01-.298-.112 26.27 26.27 0 01-1.022-.42l-.347-.146a24.576 24.576 0 00-2.382-.868 23.77 23.77 0 00-2.288-.577 28.341 28.341 0 00-1.776-.313 22.26 22.26 0 00-.874-.103 30.06 30.06 0 00-2.769-.141 27.805 27.805 0 00-1.606.045 21.854 21.854 0 00-1.362.124c-.253.03-.499.064-.757.104a32.242 32.242 0 00-1.79.332 24.751 24.751 0 00-3.346.974 29.63 29.63 0 00-2.246.936 28.476 28.476 0 00-.937.465c-.118.062-.24.13-.385.21-.154.088-.317.18-.472.27-.169.097-.33.192-.465.273l-.087.052c-.267.16-.468.28-.641.318a.456.456 0 01-.202.005c-.08.09-.161.18-.247.269-.277.288-.53.482-.849.727l-.166.127c-.197.153-.434.34-.692.552a30.321 30.321 0 00-1.323 1.149 24.856 24.856 0 00-2.304 2.435c-.18.217-.358.442-.555.701a30.007 30.007 0 00-1.213 1.718 24.489 24.489 0 00-1.607 2.85 28.62 28.62 0 00-.465 1.005c-.143.325-.267.62-.38.915-.113.296-.227.616-.347.98a32.318 32.318 0 00-.678 2.363 22.817 22.817 0 00-.43 2.204 26.246 26.246 0 00-.271 3.418c-.004.395.004.819.024 1.276a31.355 31.355 0 00.268 2.916 23.954 23.954 0 00.916 4.006 26.212 26.212 0 00.973 2.584c.187.426.386.846.595 1.26a27.261 27.261 0 001.366 2.397 24.03 24.03 0 001.474 2.058 26.136 26.136 0 001.737 1.96 34.757 34.757 0 001.928 1.807c.167.145.323.276.474.4.222-.293.418-.547.564-.732.577-.719.64-.673 1.086-.35l.016.01.127.09c.323.232.794.568 1.016.805.347.374.26.499-.416 1.443l-.13.184-.08.112.15.095c.247-.354.43-.606.598-.801.186-.226.41-.419.659-.571.309-.192.643-.339.994-.438a3.178 3.178 0 011.013-.117c.633.035 1.268.284 1.979.565.157.061.317.124.465.18a24.765 24.765 0 002.877.892 24.455 24.455 0 002.855.51 19.142 19.142 0 002.384.136c.366 0 .744-.011 1.114-.03.4-.018.782-.043 1.13-.075.328-.03.631-.065.933-.107a20.427 20.427 0 001.914-.372 23.472 23.472 0 002.049-.592 24.37 24.37 0 001.94-.749c.267-.116.521-.234.745-.34.145-.07.269-.028.268-.077 0-.02-.139 0-.53-.092-.143-.033-.29-.064-.454-.098-1.207-.25-3.263-.676-4.843-2.056-.843-.739-1.533-1.728-2.21-2.702-.754-1.082-1.492-2.143-2.378-2.755-1.375-.95-3.188-.875-4.337-.826-.239.01-.45.019-.632.017-.652-.005-.915-.157-.913-.521 0-.287.255-.663.639-1.233l.046-.068c.4-.595.99-1.483 1.558-2.339l1.095-1.646.244-.364c.564-.846.833-1.244 1.056-1.713.217-.46.4-.993.529-1.375l.059-.174.056-.161.051-.148-.065-.019a2.49 2.49 0 01-.435-.178l-.068-.036c-.087-.047-.145-.08-.22-.027a2.199 2.199 0 00-.334.33 8.598 8.598 0 00-.347.432c-.11.14-.203.29-.28.45-.14.275-.355.731-.75 1.593a285.646 285.646 0 00-1.925 4.293c-.504 1.15-1.013 2.34-1.448 3.41-.36.887-.665 1.683-.936 2.39-.525 1.37-.926 2.415-1.366 3.181-.326.57-.674.985-1.027 1.271-.407.33-.822.49-1.22.517-.383.024-.74-.073-1.12-.27-.357-.187-.734-.464-1.173-.813a31.45 31.45 0 01-1.553-1.333c-.473-.435-.953-.9-1.404-1.377a23.355 23.355 0 01-2.575-3.273 21.872 21.872 0 01-2.941-6.808 21.36 21.36 0 01-.363-1.817c-.096-.62-.167-1.26-.21-1.917a24.41 24.41 0 01-.047-2.058c.012-.686.053-1.376.123-2.051a22.148 22.148 0 01.782-3.977 24.837 24.837 0 011.374-3.597 20.2 20.2 0 01.782-1.489 21.812 21.812 0 012.696-3.694 25.485 25.485 0 012.161-2.117 17.906 17.906 0 012.277-1.691c.442-.28.941-.573 1.458-.86.5-.277 1.01-.542 1.49-.772a19.22 19.22 0 011.417-.614 19.19 19.19 0 011.412-.48 23.274 23.274 0 013.18-.714c.556-.084 1.135-.15 1.702-.202a55.002 55.002 0 011.588-.122c.49-.03.932-.054 1.39-.051.487.001.973.037 1.454.105.515.072 1.093.188 1.702.335.63.153 1.295.34 1.954.552a33.124 33.124 0 013.604 1.384c.521.24.977.473 1.43.735.451.263.898.555 1.387.905A32.717 32.717 0 0143 19.76a21.544 21.544 0 014.506 6.042 22.03 22.03 0 011.115 2.659c.162.464.313.944.448 1.434a21.787 21.787 0 01.633 3.189 23.783 23.783 0 01-.256 7.34 21.471 21.471 0 01-.975 3.47 24.352 24.352 0 01-1.497 3.254 21.55 21.55 0 01-2.763 3.907 23.087 23.087 0 01-2.09 2.091c-.367.324-.73.625-1.086.901a25.9 25.9 0 01-.972.723c-.296.21-.565.39-.764.525l-.04.026c-.324.217-.456.304-.564.624-.09.269-.13.552-.118.835.013.212.065.422.185.59.133.189.369.352.581.499.333.23.621.43.602.752-.015.264-.276.521-.654.762-.33.211-.755.42-1.168.612a24.812 24.812 0 01-3.643 1.352 26.576 26.576 0 01-2.524.591c-.43.078-.869.145-1.32.203a30.765 30.765 0 01-2.688.221 21.952 21.952 0 01-2.28-.026 27.203 27.203 0 01-4.034-.566 26.853 26.853 0 01-2.771-.746 25.803 25.803 0 01-3.507-1.443 25.98 25.98 0 01-1.833-1.01l-.834 1.22c-.559.818-1.156 1.694-1.554 2.26-.608.864-.772 1.03-1.185 1.455l-.078.08-.267.275c-.46.474-1.06 1.096-1.443 1.446-.245.224-.405.339-.533.4a.734.734 0 01-.372.075c-.169 0-.388 0-.622-.087a7.074 7.074 0 01-.409.037c-.79.05.945.05-1.728.05H3.65v-.47h.854c2.515 0 .77 0 1.558-.04a.956.956 0 01-.191-.347c-.06-.232.012-.362.23-.754.06-.108.134-.242.232-.425.119-.226.26-.507.42-.818.333-.655.732-1.442 1.108-2.098.281-.492.553-.917.842-1.339.283-.412.586-.825.933-1.295.335-.454.718-.97 1.086-1.459l.06-.08a32.915 32.915 0 01-1.507-1.332 32.528 32.528 0 01-.946-.921 26.125 26.125 0 01-2.54-3.015 27.658 27.658 0 01-2.73-4.803 26.136 26.136 0 01-1.685-5.307 23.46 23.46 0 01-.238-1.406 30.814 30.814 0 01-.17-1.47 31.429 31.429 0 01-.103-1.49 23.09 23.09 0 01.017-2.489 27.257 27.257 0 01.233-2.291 23.828 23.828 0 01.44-2.25 33.063 33.063 0 01.687-2.396 20.328 20.328 0 01.742-1.938 29.407 29.407 0 01.981-2.015A25.444 25.444 0 015.69 20.75a25.717 25.717 0 011.2-1.584 26.029 26.029 0 013.025-3.09c.227-.196.458-.39.667-.562.24-.195.482-.388.704-.559l.167-.13c.304-.233.544-.418.796-.68.067-.069.141-.151.217-.239a6.112 6.112 0 01-.256-.369 37.2 37.2 0 01-.68-1.086c-.206-.343-.402-.68-.53-.92a7.372 7.372 0 01-.086-.17c-.302.108-.745.305-1.47.7-1.287.707-3.42 2.023-4.984 2.989l-.997.614c-.773.474-1.195.722-1.48.801-.403.112-.555-.03-.76-.348a7.792 7.792 0 01-.564-1.105 8.242 8.242 0 01-.404-1.178 5.98 5.98 0 01-.176-1.275 6.56 6.56 0 01.282-2.096 4.49 4.49 0 01.369-.844c.162-.288.361-.554.592-.79a7.838 7.838 0 011.073-.896 33.32 33.32 0 011.658-1.095c.568-.356 1.145-.703 1.554-.95l.06-.035c.68-.409.798-.478.817-.55a.838.838 0 00.014-.081c-.027-.04-.055-.087-.087-.135-.114-.187-.285-.47-.442-.741a15.07 15.07 0 01-.31-.555c-.111-.212-.16-.342-.14-.478.022-.16.109-.244.266-.368.124-.098.314-.237.54-.39a8.53 8.53 0 01.561-.348 7.02 7.02 0 01.673-.339 2.91 2.91 0 01.554-.186c.201-.038.335-.011.459.079.104.076.167.177.256.318l.26.423c.093.153.18.302.231.407.196.39.144.422-.454.77l-.008.005c-.213.124-.522.304-.829.5-.298.192-.59.395-.772.565a1.21 1.21 0 00-.11.117c.11-.056.253-.136.44-.242.352-.2.868-.5 1.444-.837.77-.449 1.656-.965 2.488-1.434a68.953 68.953 0 011.755-.959c.553-.29 1-.51 1.333-.66.333-.15.568-.237.786-.282.22-.043.447-.053.67-.03a8.067 8.067 0 011.955.382c.387.132.76.302 1.114.509.346.201.669.438.965.707a7.8 7.8 0 01.835.913c.238.301.434.583.572.784.162.24.253.387.247.562-.008.193-.12.327-.367.512a14.6 14.6 0 01-.949.626c-.42.26-1.07.657-1.98 1.21L15.495 8.42l-2.838 1.721c.331-.078.454.104.777.583l.009.012.011.018c.305.447.8 1.184.865 1.656.052.38-.113.572-.351.75l.025-.015a26.73 26.73 0 01.875-.49 25.39 25.39 0 01.957-.472 25.576 25.576 0 011.477-.644 28.378 28.378 0 011.64-.602c.265-.087.544-.174.837-.26a24.966 24.966 0 012.638-.621c.31-.058.627-.112.917-.157a23.233 23.233 0 012.163-.233 27.99 27.99 0 013.481.018c.325.021.652.048.966.08a23.245 23.245 0 012.699.424c.315.067.628.136.921.206a20.864 20.864 0 011.407.382 23.368 23.368 0 011.8.629 29.183 29.183 0 01.977.403c.298.126.608.26 1.005.411l.094.036c.043-.114.116-.258.22-.457.163-.315.423-.8.683-1.271a20.315 20.315 0 01.58-.993 35.408 35.408 0 00-1.395-.772c-.629-.339-1.095-.588-1.598-.857a532.44 532.44 0 01-4.334-2.337c-.762-.42-1.168-.66-1.378-.843-.304-.266-.286-.435-.186-.696.1-.234.22-.458.36-.67a8.19 8.19 0 01.545-.753c.215-.266.45-.515.705-.744.28-.25.583-.472.906-.661.34-.197.695-.368 1.062-.512.374-.15.759-.272 1.15-.366a3.04 3.04 0 01.992-.087c.34.031.717.13 1.224.317.495.182 1.12.453 1.738.734.608.277 1.223.569 1.694.793l.014.007c.898.427 1.26.6 1.504.614h.023l.023-.043c.098-.178.246-.444.364-.652.142-.25.287-.497.39-.656.147-.224.25-.332.445-.348.158-.015.313.053.582.183.27.13.67.328 1.053.529.279.146.54.289.714.397.592.369.53.497.337.89l-.006.012c-.127.26-.333.68-.478.883-.125.174-.23.248-.428.225-.13-.016-.27-.087-.503-.208l-.095-.05c-.422-.224-1.095-.58-1.517-.696a1.341 1.341 0 00-.274-.046c.138.082.364.202.724.396.646.347 1.616.866 2.38 1.278.92.496 1.875 1.014 2.604 1.417.739.408 1.257.704 1.654.968.408.272.687.508.935.79.245.282.456.594.627.927.185.357.333.732.44 1.119a5.379 5.379 0 01.125 2.41 9.9 9.9 0 01-.265 1.126c-.149.51-.316.974-.435 1.283-.118.31-.202.481-.337.582-.174.13-.341.113-.606.008-.328-.13-.858-.417-2.185-1.133l-.745-.4-3.197-1.719-3.367-1.809-.08-.043c-.679-.367-1.024-.553-1.226-.605v.015a.217.217 0 00.078.191c.12.108.374.246.597.367.136.073.261.14.348.198.39.252.344.344.083.852l-.054.107-.19.383c-.22.446-.489.992-.675 1.277-.13.201-.23.309-.33.352a28.265 28.265 0 011.585 1.07 25.761 25.761 0 012.62 2.181 27.602 27.602 0 012.841 3.153 31.89 31.89 0 012.47 3.752 21.488 21.488 0 011.53 3.356 30.054 30.054 0 011.02 3.553 26.286 26.286 0 01.594 4.663c.016.46.016.912.004 1.382a28.944 28.944 0 01-.217 2.865 27.122 27.122 0 01-.764 3.797 25.405 25.405 0 01-.705 2.136c-.134.351-.276.697-.439 1.07a31.512 31.512 0 01-1.057 2.178 24.725 24.725 0 01-1.474 2.416c-.16.23-.326.461-.503.699a30.604 30.604 0 01-1.102 1.385c-.174.208-.347.407-.542.618-.194.211-.387.415-.608.639a35.695 35.695 0 01-2.21 2.042l-.188.157a88.14 88.14 0 011.322 1.794c.482.673.974 1.383 1.4 2.043.438.678.788 1.274 1.06 1.781.272.493.513 1.003.722 1.526.097.255.145.438.146.55a.299.299 0 01-.105.25c-.087.072-.19.08-.304.027-.082-.038-.188-.13-.315-.269-.335-.37-.903-1.157-1.76-2.346l-.08-.112-.055-.076c-.894-1.24-2.064-2.864-2.596-3.741-.635-1.048-.463-1.198-.082-1.505l-.177-.232c-.362-.469-.562-.715-.7-.8-.065-.04-.14-.005-.272.076-.377.229-1.022.712-1.428 1.015-.26.195.311-.23-.133.102l-.008.005c-.204.152-.208.155.263.844.304.442.758 1.103 1.269 1.821a63.41 63.41 0 001.638 2.213 38.516 38.516 0 002.633 3.025c.249.256.407.41 1.121.508.785.108.682.18 1.411.18 1.398 0 1.207.056 1.807.056v.47h-.252zm-5.585-7.135a92.623 92.623 0 00-1.303-1.773c-.156.127-.213.211.198.89.52.857 1.686 2.476 2.576 3.71l.054.075.08.113c.596.825 1.05 1.455 1.377 1.878-.13-.3-.313-.677-.552-1.121a25.211 25.211 0 00-1.042-1.75 51.755 51.755 0 00-1.39-2.022h.002zm-5.18-46.622c-.098.19-.163.318-.197.403l.066.024c.391.143.775.284 1.043.404.062.027.102.046.138.063.137.065.18.087.274-.06.17-.26.435-.794.648-1.229l.191-.386.056-.11c.098-.188.115-.222.08-.245a5.915 5.915 0 00-.317-.18c-.248-.134-.53-.286-.692-.434a.71.71 0 01-.188-.251 26.37 26.37 0 00-.424.739 57.71 57.71 0 00-.676 1.26l-.002.002zm1.186-2.822c.275-.104.69.12 1.788.713l.08.044c.834.45 2.09 1.124 3.367 1.81l3.198 1.718.744.4c1.315.71 1.84.994 2.135 1.11.05.025.1.043.154.054.043-.031.094-.155.182-.378.118-.305.281-.756.423-1.243.105-.352.189-.71.252-1.071a4.875 4.875 0 00-.113-2.209 5.376 5.376 0 00-.404-1.025c-.154-.3-.344-.58-.564-.834a4.054 4.054 0 00-.843-.71c-.382-.253-.892-.544-1.62-.947a549.419 549.419 0 00-4.979-2.693c-.767-.411-1.108-.594-1.209-.766-.325-.035-.718-.222-1.628-.655l-.014-.007c-.465-.22-1.07-.508-1.688-.789a27.362 27.362 0 00-1.707-.722c-.47-.174-.81-.263-1.105-.29a2.534 2.534 0 00-.845.076c-.369.088-.73.203-1.083.344a7.273 7.273 0 00-.999.48 5.155 5.155 0 00-.83.606 5.993 5.993 0 00-.652.692 7.666 7.666 0 00-.514.708c-.124.186-.23.383-.317.589-.024.06-.026.102.057.174.177.154.562.38 1.296.784 1.098.606 2.856 1.547 4.328 2.335l1.6.857c.773.417 1.199.65 1.434.794l.078.05-.002.001zm3.483-6.952c-.087.157-.166.294-.231.411.15.002.299.025.443.067.474.13 1.173.501 1.611.733l.095.05c.183.097.29.151.337.157.021 0-.02-.012-.005-.032.13-.18.321-.573.44-.815l.007-.014c.051-.105.068-.14-.166-.285-.174-.108-.42-.244-.683-.381-.363-.19-.767-.391-1.04-.522-.193-.093-.298-.142-.337-.139 0 0-.031.044-.093.14a13.35 13.35 0 00-.378.63zM12.605 13.28c.073.11.13.198.182.268a4.17 4.17 0 01.484-.465c.087-.068.171-.125.251-.18.198-.134.36-.244.335-.429-.05-.361-.51-1.043-.79-1.457L13.056 11l-.009-.013c-.205-.304-.269-.398-.356-.366a2.973 2.973 0 00-.4.208c-.212.122-.441.254-.652.327a2.585 2.585 0 01-.26.07 21.296 21.296 0 00.56.98c.237.391.49.797.67 1.073h-.004zm-1.722-2.404a.805.805 0 01.123-.178c.18-.206.557-.435 1.28-.876l2.968-1.8 2.958-1.792c.853-.518 1.476-.896 1.975-1.208.458-.286.738-.47.916-.602.123-.093.179-.139.18-.155 0-.034-.06-.125-.167-.283a11.65 11.65 0 00-.552-.757 7.35 7.35 0 00-.785-.856 5.227 5.227 0 00-.886-.652 5.66 5.66 0 00-1.025-.468 6.781 6.781 0 00-.88-.233A7.658 7.658 0 0016.04.89a1.932 1.932 0 00-.546.021c-.177.037-.381.114-.687.251-.335.151-.776.368-1.309.647-.502.264-1.085.583-1.742.952-.759.428-1.68.965-2.482 1.434-.569.332-1.076.627-1.449.84-.46.26-.704.383-.886.401-.07.245-.217.334-1.025.82l-.06.036c-.391.236-.95.572-1.547.946-.583.364-1.178.75-1.632 1.076-.455.326-.77.59-1.008.838a3.345 3.345 0 00-.521.697c-.136.24-.247.493-.33.756a6.14 6.14 0 00-.26 1.938c.011.396.066.789.162 1.173.099.38.225.75.38 1.11.147.358.323.705.525 1.035.08.123.13.18.242.15.227-.063.624-.298 1.36-.75.377-.23.673-.413.996-.613 1.575-.972 3.723-2.297 5.004-2.998.848-.464 1.335-.667 1.66-.773l-.002-.002zM6.382 4.11c.113.194.232.394.332.56.068-.095.145-.182.23-.26.207-.196.521-.417.84-.62.311-.2.629-.385.847-.512l.008-.005.27-.156a6.1 6.1 0 00-.213-.374 21.431 21.431 0 00-.258-.418.91.91 0 00-.133-.187c-.011-.008-.039-.008-.098.003-.157.037-.31.09-.455.157a6.547 6.547 0 00-.627.314 8.386 8.386 0 00-.531.331c-.208.14-.391.273-.512.37-.06.048-.09.054-.092.063-.001.009.027.075.09.197.071.134.182.33.302.537zm5.047 52.458c.217.17.427.324.644.478.245.174.506.355.782.537l.091-.13.13-.186c-.03.044-.008.012 0 0 .479-.668.542-.756.455-.85-.186-.2-.637-.522-.946-.742l-.13-.093-.016-.01c-.13-.096-.15-.11-.449.264-.152.19-.347.442-.565.73l.004.002zm.373.86c-.227-.162-.44-.32-.655-.486l-.052.068a265.8 265.8 0 00-1.083 1.457c-.339.46-.636.865-.922 1.28-.28.409-.544.826-.821 1.308-.377.659-.77 1.434-1.098 2.076-.16.317-.304.602-.423.826-.09.169-.171.315-.237.434-.15.27-.2.359-.187.41a.565.565 0 00.13.204c.073.08.158.148.252.201.28-.049.382-.12.5-.23.375-.347.925-1.012 1.356-1.535.203-.245-.07.084.135-.164l.12-.145c.385-.464.67-.807 1.366-1.773a353.58 353.58 0 001.684-2.377l.717-1.015c-.272-.18-.534-.361-.782-.539zm1.33.89a12.217 12.217 0 01-.155-.096c-.217.304-.466.66-.726 1.029a269.99 269.99 0 01-1.688 2.38 27.264 27.264 0 01-1.384 1.8l-.12.144c-.291.353-.026.03-.135.163-.265.321-.575.695-.865 1.024a57.68 57.68 0 001.216-1.234l.267-.277.077-.08c.394-.403.548-.564 1.138-1.398.4-.57.995-1.44 1.55-2.254l.822-1.2h.002zm.665-.139a25.968 25.968 0 001.773.974 26.497 26.497 0 002.213.978 25.514 25.514 0 002.553.835 28.189 28.189 0 002.82.607c.434.071.858.13 1.266.174.451.05.88.087 1.28.114.388.025.744.04 1.1.043.356.004.728 0 1.132-.016a31.739 31.739 0 002.647-.218 24.728 24.728 0 003.775-.781c.408-.117.818-.245 1.213-.38a23.603 23.603 0 002.363-.946c.4-.186.808-.387 1.113-.58.256-.164.434-.305.437-.394.004-.063-.183-.192-.4-.342-.243-.168-.514-.356-.697-.614a1.59 1.59 0 01-.27-.832 2.818 2.818 0 01.14-1.01c.158-.474.33-.588.749-.868l.04-.027c.2-.134.461-.31.75-.516.29-.205.624-.45.956-.71a22.382 22.382 0 002.07-1.826c.347-.347.697-.718 1.042-1.109.336-.381.66-.773.967-1.173a20.559 20.559 0 001.737-2.65 24.785 24.785 0 001.47-3.192 20.84 20.84 0 00.953-3.395 23.667 23.667 0 00.408-3.656 22.924 22.924 0 00-.417-5.148 21.625 21.625 0 00-.798-2.917c-.167-.48-.344-.942-.529-1.379-.18-.428-.367-.834-.564-1.225-.198-.392-.4-.768-.621-1.148a20.272 20.272 0 00-1.525-2.27 20.48 20.48 0 00-2.262-2.49 30.801 30.801 0 00-3.048-2.503 16.738 16.738 0 00-1.346-.88 16.211 16.211 0 00-1.39-.715 29.74 29.74 0 00-1.715-.72 33.6 33.6 0 00-1.837-.646 28.947 28.947 0 00-1.925-.542 17.442 17.442 0 00-1.657-.326c-.46-.066-.924-.1-1.39-.102a20.2 20.2 0 00-1.36.052c-.487.03-1.033.07-1.575.12-.542.05-1.11.115-1.674.2a22.594 22.594 0 00-3.116.698 18.9 18.9 0 00-1.378.468c-.447.173-.905.37-1.383.6a28.23 28.23 0 00-1.467.76c-.498.275-.99.564-1.433.846-.432.273-.812.534-1.173.802-.36.268-.699.545-1.05.85a24.866 24.866 0 00-2.12 2.079 20.926 20.926 0 00-3.4 5.069 24.666 24.666 0 00-1.348 3.526 21.917 21.917 0 00-.766 3.891 23.81 23.81 0 00-.075 4.033c.043.652.111 1.272.205 1.875a21.75 21.75 0 002.27 6.817c.286.54.608 1.081.96 1.625a22.907 22.907 0 002.525 3.207c.45.478.92.933 1.378 1.353.538.493 1.068.942 1.53 1.311.415.332.77.593 1.097.763.304.16.585.238.873.218.305-.02.63-.148.956-.412.31-.25.62-.623.916-1.14.422-.737.817-1.767 1.334-3.116.272-.71.578-1.507.94-2.399.428-1.054.941-2.252 1.453-3.422.73-1.665 1.457-3.269 1.93-4.301.4-.877.619-1.34.758-1.613.09-.185.199-.36.326-.521.099-.13.23-.296.366-.452.124-.151.264-.287.418-.407l.014-.01a.967.967 0 01-.113-.148 2.74 2.74 0 01-.157-.271 1.85 1.85 0 01-.212-.811 1.988 1.988 0 01.04-.45c.031-.159.08-.313.147-.46a1.98 1.98 0 01.24-.406c.137-.162.29-.31.459-.438l.135-.116.077-.069c-.056-.148-.09-.355-.14-.667l-.013-.078-.063-.377a66.698 66.698 0 01-.22-1.388 5.327 5.327 0 01-.055-.825c-.003-.403.007-1.043.027-2.235s.05-2.944.087-4.677c.035-1.742.077-3.473.119-4.624.043-1.168.087-1.757.127-2.034.148-.989.361-.687.562-.21.043.101.078.245.13.675.052.412.123 1.09.239 2.264a1736.614 1736.614 0 01.845 8.941c.104 1.116.155 1.686.176 2.028.02.251.018.503-.005.753-.017.25-.043.609-.073.935-.03.343-.063.684-.096.917-.043.298-.091.458-.159.541a1.868 1.868 0 01.618.288c.15.107.286.234.404.376.144.175.265.366.36.571.091.19.152.394.18.603.024.204.007.411-.05.608a2.131 2.131 0 01-.237.522c-.104.172-.228.33-.37.472a1.817 1.817 0 01-.45.327c-.17.084-.352.143-.54.174-.169.028-.34.037-.512.027-.02.065-.046.139-.077.227l-.054.159c-.039.113-.05.144-.059.174-.134.396-.32.947-.549 1.426-.234.492-.508.902-1.09 1.772l-.245.365c-.263.393-.672 1.01-1.093 1.644-.546.822-1.113 1.676-1.56 2.34l-.043.069c-.337.5-.56.83-.56.976 0 .033.13.048.448.05.164 0 .374-.007.61-.017 1.21-.05 3.117-.13 4.621.91.959.662 1.72 1.755 2.497 2.872.662.952 1.337 1.921 2.134 2.617 1.487 1.3 3.466 1.71 4.628 1.95.18.038.341.072.464.1.655.151.89.33.894.541.004.24-.241.368-.534.507a23.992 23.992 0 01-2.738 1.111 23.812 23.812 0 01-4.047.984 17.41 17.41 0 01-.956.11 27.088 27.088 0 01-2.282.106c-.398 0-.786-.007-1.182-.03a20.991 20.991 0 01-1.256-.108 25.478 25.478 0 01-1.471-.217 23.368 23.368 0 01-1.44-.305 24.988 24.988 0 01-2.933-.908 20.744 20.744 0 01-.471-.181c-.674-.265-1.277-.502-1.834-.532a2.686 2.686 0 00-.863.1c-.307.087-.6.217-.871.385-.208.128-.394.29-.55.478-.152.18-.324.414-.553.743v-.005zm13.03-20.883c.141.008.283.001.423-.022s.277-.067.405-.13c.123-.064.235-.146.333-.243a1.986 1.986 0 00.484-.789 1.09 1.09 0 00.037-.425 1.567 1.567 0 00-.14-.462 2.163 2.163 0 00-.295-.468 1.635 1.635 0 00-.314-.292 1.421 1.421 0 00-.702-.258 2.316 2.316 0 00-.325-.009l-.096.006c-.143.008-.27.014-.384-.018a1.837 1.837 0 01-.1.094c-.026.022-.088.072-.147.123-.142.11-.271.235-.386.373a1.507 1.507 0 00-.184.308 1.714 1.714 0 00-.117.36 1.524 1.524 0 00-.03.348 1.396 1.396 0 00.163.615c.04.077.083.152.13.224.02.032.042.061.068.087a.173.173 0 00.07.024c.044.01.102.017.164.026.16.016.316.049.468.098a.92.92 0 01.31.19.673.673 0 01.165.237v.003zm-.586-4.178c.03.185.053.324.073.423a1.01 1.01 0 01.109-.055 1.18 1.18 0 01.37-.084c.1-.006.2-.005.299.003h.011c.02 0-.028 0 .003-.217.03-.217.063-.548.092-.891.032-.359.057-.696.074-.927.02-.23.022-.462.004-.693a80.749 80.749 0 00-.174-2.013c-.114-1.236-.298-3.188-.477-5.11-.134-1.41-.267-2.794-.368-3.828l-.112-1.117-.015.393a312.728 312.728 0 00-.119 4.616c-.036 1.741-.066 3.485-.087 4.675-.02 1.19-.03 1.829-.027 2.225-.003.256.014.513.051.767.052.367.143.915.217 1.377l.063.377.012.078zM13.08 57.269c.002-.004.003-.006 0 0z" fill="#2E1A1E"/><path d="M13.077 57.266l-.13.186c-.03.043-.06.087-.092.13a29.833 29.833 0 01-.782-.537 17.039 17.039 0 01-.644-.478l-.004-.002c.218-.288.413-.54.565-.73.299-.373.319-.36.45-.265l.015.011.13.093c.309.22.76.542.946.742.087.094.024.182-.454.85zm0 0c-.008.012-.03.044 0 0zm37.17 8.507c-.464 0-1.213-.01-1.56-.057-.42-.057-.665-.073-1.468-.184-.874-.12-1.075-.317-1.394-.645a38.78 38.78 0 01-2.666-3.064 63.204 63.204 0 01-1.651-2.229c-.522-.733-.975-1.39-1.275-1.829-.724-1.06-.713-1.068-.156-1.483l.007-.006c.526-.39-.03.024.134-.099.415-.311 1.074-.805 1.464-1.043.296-.18.481-.246.76-.076.203.125.43.4.824.913l.171.223.171-.143a29.511 29.511 0 001.435-1.287c.26-.245.519-.5.743-.726a18.302 18.302 0 001.125-1.228 28.29 28.29 0 001.085-1.364 23.074 23.074 0 00.962-1.388c.159-.247.318-.503.478-.77.162-.276.329-.572.502-.897a31.573 31.573 0 001.04-2.146 24.09 24.09 0 001.675-5.576 26.364 26.364 0 00.338-2.703c.036-.48.061-.96.073-1.413a23.22 23.22 0 00-.09-2.747 26.103 26.103 0 00-.496-3.187 28.723 28.723 0 00-1.004-3.494 22.15 22.15 0 00-.653-1.623 21.357 21.357 0 00-.844-1.663 31.228 31.228 0 00-2.431-3.694 27.018 27.018 0 00-2.795-3.1 24.762 24.762 0 00-2.572-2.14 27.94 27.94 0 00-2.582-1.669 6.692 6.692 0 01-.6-.371.881.881 0 01-.109-.096 37.771 37.771 0 01-.298-.112 26.27 26.27 0 01-1.022-.42l-.347-.146a24.576 24.576 0 00-2.382-.868 23.77 23.77 0 00-2.288-.577 28.341 28.341 0 00-1.776-.313 22.26 22.26 0 00-.874-.103 30.06 30.06 0 00-2.769-.141 27.805 27.805 0 00-1.606.045 21.854 21.854 0 00-1.362.124c-.253.03-.499.064-.757.104a32.242 32.242 0 00-1.79.332 24.751 24.751 0 00-3.346.974 29.63 29.63 0 00-2.246.936 28.476 28.476 0 00-.937.465c-.118.062-.24.13-.385.21-.154.088-.317.18-.472.27-.169.097-.33.192-.465.273l-.087.052c-.267.16-.468.28-.641.318a.456.456 0 01-.202.005c-.08.09-.161.18-.247.269-.277.288-.53.482-.849.727l-.166.127c-.197.153-.434.34-.692.552a30.321 30.321 0 00-1.323 1.149 24.856 24.856 0 00-2.304 2.435c-.18.217-.358.442-.555.701a30.007 30.007 0 00-1.213 1.718 24.489 24.489 0 00-1.607 2.85 28.62 28.62 0 00-.465 1.005c-.143.325-.267.62-.38.915-.113.296-.227.616-.347.98a32.318 32.318 0 00-.678 2.363 22.817 22.817 0 00-.43 2.204 26.246 26.246 0 00-.271 3.418c-.004.395.004.819.024 1.276a31.355 31.355 0 00.268 2.916 23.954 23.954 0 00.916 4.006 26.212 26.212 0 00.973 2.584c.187.426.386.846.595 1.26a27.261 27.261 0 001.366 2.397 24.03 24.03 0 001.474 2.058 26.136 26.136 0 001.737 1.96 34.757 34.757 0 001.928 1.807c.167.145.323.276.474.4.222-.293.418-.547.564-.732.577-.719.64-.673 1.086-.35l.016.01.127.09c.323.232.794.568 1.016.805.347.374.26.499-.416 1.443l-.13.184-.08.112.15.095c.247-.354.43-.606.598-.801.186-.226.41-.419.659-.571.309-.192.643-.339.994-.438a3.178 3.178 0 011.013-.117c.633.035 1.268.284 1.979.565.157.061.317.124.465.18a24.765 24.765 0 002.877.892 24.455 24.455 0 002.855.51 19.142 19.142 0 002.384.136c.366 0 .744-.011 1.114-.03.4-.018.782-.043 1.13-.075.328-.03.631-.065.933-.107a20.427 20.427 0 001.914-.372 23.472 23.472 0 002.049-.592 24.37 24.37 0 001.94-.749c.267-.116.521-.234.745-.34.145-.07.269-.028.268-.077 0-.02-.139 0-.53-.092-.143-.033-.29-.064-.454-.098-1.207-.25-3.263-.676-4.843-2.056-.843-.739-1.533-1.728-2.21-2.702-.754-1.082-1.492-2.143-2.378-2.755-1.375-.95-3.188-.875-4.337-.826-.239.01-.45.019-.632.017-.652-.005-.915-.157-.913-.521 0-.287.255-.663.639-1.233l.046-.068c.4-.595.99-1.483 1.558-2.339l1.095-1.646.244-.364c.564-.846.833-1.244 1.056-1.713.217-.46.4-.993.529-1.375l.059-.174.056-.161.051-.148-.065-.019a2.49 2.49 0 01-.435-.178l-.068-.036c-.087-.047-.145-.08-.22-.027a2.199 2.199 0 00-.334.33 8.598 8.598 0 00-.347.432c-.11.14-.203.29-.28.45-.14.275-.355.731-.75 1.593a285.646 285.646 0 00-1.925 4.293c-.504 1.15-1.013 2.34-1.448 3.41-.36.887-.665 1.683-.936 2.39-.525 1.37-.926 2.415-1.366 3.181-.326.57-.674.985-1.027 1.271-.407.33-.822.49-1.22.517-.383.024-.74-.073-1.12-.27-.357-.187-.734-.464-1.173-.813a31.45 31.45 0 01-1.553-1.333c-.473-.435-.953-.9-1.404-1.377a23.355 23.355 0 01-2.575-3.273 21.872 21.872 0 01-2.941-6.808 21.36 21.36 0 01-.363-1.817c-.096-.62-.167-1.26-.21-1.917a24.41 24.41 0 01-.047-2.058c.012-.686.053-1.376.123-2.051a22.148 22.148 0 01.782-3.977 24.837 24.837 0 011.374-3.597 20.2 20.2 0 01.782-1.489 21.812 21.812 0 012.696-3.694 25.485 25.485 0 012.161-2.117 17.906 17.906 0 012.277-1.691c.442-.28.941-.573 1.458-.86.5-.277 1.01-.542 1.49-.772a19.22 19.22 0 011.417-.614 19.19 19.19 0 011.412-.48 23.274 23.274 0 013.18-.714c.556-.084 1.135-.15 1.702-.202a55.002 55.002 0 011.588-.122c.49-.03.932-.054 1.39-.051.487.001.973.037 1.454.105.515.072 1.093.188 1.702.335.63.153 1.295.34 1.954.552a33.124 33.124 0 013.604 1.384c.521.24.977.473 1.43.735.451.263.898.555 1.387.905A32.717 32.717 0 0143 19.76a21.544 21.544 0 014.506 6.042 22.03 22.03 0 011.115 2.659c.162.464.313.944.448 1.434a21.787 21.787 0 01.633 3.189 23.783 23.783 0 01-.256 7.34 21.471 21.471 0 01-.975 3.47 24.352 24.352 0 01-1.497 3.254 21.55 21.55 0 01-2.763 3.907 23.087 23.087 0 01-2.09 2.091c-.367.324-.73.625-1.086.901a25.9 25.9 0 01-.972.723c-.296.21-.565.39-.764.525l-.04.026c-.324.217-.456.304-.564.624-.09.269-.13.552-.118.835.013.212.065.422.185.59.133.189.369.352.581.499.333.23.621.43.602.752-.015.264-.276.521-.654.762-.33.211-.755.42-1.168.612a24.812 24.812 0 01-3.643 1.352 26.576 26.576 0 01-2.524.591c-.43.078-.869.145-1.32.203a30.765 30.765 0 01-2.688.221 21.952 21.952 0 01-2.28-.026 27.203 27.203 0 01-4.034-.566 26.853 26.853 0 01-2.771-.746 25.803 25.803 0 01-3.507-1.443 25.98 25.98 0 01-1.833-1.01l-.834 1.22c-.559.818-1.156 1.694-1.554 2.26-.608.864-.772 1.03-1.185 1.455l-.078.08-.267.275c-.46.474-1.06 1.096-1.443 1.446-.245.224-.405.339-.533.4a.734.734 0 01-.372.075c-.169 0-.388 0-.622-.087a6.986 6.986 0 01-.409.037c-.79.05.945.05-1.728.05H3.65v-.47h.854c2.515 0 .77 0 1.558-.04a.956.956 0 01-.191-.347c-.06-.232.012-.362.23-.754.06-.108.134-.242.232-.425.119-.226.26-.507.42-.818.333-.655.732-1.442 1.108-2.098.281-.492.553-.917.842-1.339.283-.412.586-.825.933-1.295.335-.454.718-.97 1.086-1.459l.06-.08a32.904 32.904 0 01-1.507-1.332 32.528 32.528 0 01-.946-.921 26.125 26.125 0 01-2.54-3.015 27.658 27.658 0 01-2.73-4.803 26.136 26.136 0 01-1.685-5.307 23.46 23.46 0 01-.238-1.406 30.814 30.814 0 01-.17-1.47 31.428 31.428 0 01-.103-1.49 23.09 23.09 0 01.017-2.489 27.257 27.257 0 01.233-2.291 23.828 23.828 0 01.44-2.25 33.063 33.063 0 01.687-2.396 20.328 20.328 0 01.742-1.938 29.407 29.407 0 01.981-2.015A25.444 25.444 0 015.69 20.75a25.717 25.717 0 011.2-1.584 26.029 26.029 0 013.025-3.09c.227-.196.458-.39.667-.562.24-.195.482-.388.704-.559l.167-.13c.304-.233.544-.418.796-.68.067-.069.141-.151.217-.239a6.112 6.112 0 01-.256-.369 37.2 37.2 0 01-.68-1.086c-.206-.343-.402-.68-.53-.92a7.372 7.372 0 01-.086-.17c-.302.108-.745.305-1.47.7-1.287.707-3.42 2.023-4.984 2.989l-.997.614c-.773.474-1.195.722-1.48.801-.403.112-.555-.03-.76-.348a7.792 7.792 0 01-.564-1.105 8.242 8.242 0 01-.404-1.178 5.98 5.98 0 01-.176-1.275 6.56 6.56 0 01.282-2.096 4.49 4.49 0 01.369-.844c.162-.288.361-.554.592-.79a7.838 7.838 0 011.073-.896 33.32 33.32 0 011.658-1.095c.568-.356 1.145-.703 1.554-.95l.06-.035c.68-.409.798-.478.817-.55a.838.838 0 00.014-.081c-.027-.04-.055-.087-.087-.135-.114-.187-.285-.47-.442-.741a15.07 15.07 0 01-.31-.555c-.111-.212-.16-.342-.14-.478.022-.16.109-.244.266-.368.124-.098.314-.237.54-.39a8.53 8.53 0 01.561-.348 7.02 7.02 0 01.673-.339 2.91 2.91 0 01.554-.186c.201-.038.335-.011.459.079.104.076.167.177.256.318l.26.423c.093.153.18.302.231.407.196.39.144.422-.454.77l-.008.005c-.213.124-.522.304-.829.5-.298.192-.59.395-.772.565a1.21 1.21 0 00-.11.117c.11-.056.253-.136.44-.242.352-.2.868-.5 1.444-.837.77-.449 1.656-.965 2.488-1.434a68.953 68.953 0 011.755-.959c.553-.29 1-.51 1.333-.66.333-.15.568-.237.786-.282.22-.043.447-.053.67-.03a8.067 8.067 0 011.955.382c.387.132.76.302 1.114.509.346.201.669.438.965.707a7.8 7.8 0 01.835.913c.238.301.434.583.572.784.162.24.253.387.247.562-.008.193-.12.327-.367.512a14.6 14.6 0 01-.949.626c-.42.26-1.07.657-1.98 1.21L15.495 8.42l-2.838 1.721c.331-.078.454.104.777.583l.009.012.011.018c.305.447.8 1.184.865 1.656.052.38-.113.572-.351.75l.025-.015a26.73 26.73 0 01.875-.49 25.39 25.39 0 01.957-.472 25.576 25.576 0 011.477-.644 28.378 28.378 0 011.64-.602c.265-.087.544-.174.837-.26a24.966 24.966 0 012.638-.621c.31-.058.627-.112.917-.157a23.233 23.233 0 012.163-.233 27.99 27.99 0 013.481.018c.325.021.652.048.966.08a23.245 23.245 0 012.699.424c.315.067.628.136.921.206a20.864 20.864 0 011.407.382 23.368 23.368 0 011.8.629 29.183 29.183 0 01.977.403c.298.126.608.26 1.005.411l.094.036c.043-.114.116-.258.22-.457.163-.315.423-.8.683-1.271a20.315 20.315 0 01.58-.993 35.408 35.408 0 00-1.395-.772c-.629-.339-1.095-.588-1.598-.857a532.44 532.44 0 01-4.334-2.337c-.762-.42-1.168-.66-1.378-.843-.304-.266-.286-.435-.186-.696.1-.234.22-.458.36-.67a8.19 8.19 0 01.545-.753c.215-.266.45-.515.705-.744.28-.25.583-.472.906-.661.34-.197.695-.368 1.062-.512.374-.15.759-.272 1.15-.366a3.04 3.04 0 01.992-.087c.34.031.717.13 1.224.317.495.182 1.12.453 1.738.734.608.277 1.223.569 1.694.793l.014.007c.898.427 1.26.6 1.504.614h.023l.023-.043c.098-.178.246-.444.364-.652.142-.25.287-.497.39-.656.147-.224.25-.332.445-.348.158-.015.313.053.582.183.27.13.67.328 1.053.529.279.146.54.289.714.397.592.369.53.497.337.89l-.006.012c-.127.26-.333.68-.478.883-.125.174-.23.248-.428.225-.13-.016-.27-.087-.503-.208l-.095-.05c-.422-.224-1.095-.58-1.517-.696a1.341 1.341 0 00-.274-.046c.138.082.364.202.724.396.646.347 1.616.866 2.38 1.278.92.496 1.875 1.014 2.604 1.417.739.408 1.257.704 1.654.968.408.272.687.508.935.79.245.282.456.594.627.927.185.357.333.732.44 1.119a5.372 5.372 0 01.125 2.41 9.9 9.9 0 01-.265 1.126c-.149.51-.316.974-.435 1.283-.118.31-.202.481-.337.582-.174.13-.341.113-.606.008-.328-.13-.858-.417-2.185-1.133l-.745-.4-3.197-1.719-3.367-1.809-.08-.043c-.679-.367-1.024-.553-1.226-.605v.015a.217.217 0 00.078.191c.12.108.374.246.597.367.136.073.261.14.348.198.39.252.344.344.083.852l-.054.107-.19.383c-.22.446-.489.992-.675 1.277-.13.201-.23.309-.33.352a28.265 28.265 0 011.585 1.07 25.713 25.713 0 012.62 2.181 27.602 27.602 0 012.841 3.153 31.89 31.89 0 012.47 3.752 21.488 21.488 0 011.53 3.356 30.054 30.054 0 011.02 3.553 26.286 26.286 0 01.594 4.663c.016.46.016.912.004 1.382a28.944 28.944 0 01-.217 2.865 27.122 27.122 0 01-.764 3.797 25.405 25.405 0 01-.705 2.136c-.134.351-.276.697-.439 1.07a31.512 31.512 0 01-1.057 2.178 24.644 24.644 0 01-1.474 2.416c-.16.23-.326.461-.503.699a30.322 30.322 0 01-1.102 1.385c-.174.208-.347.407-.542.618-.194.211-.387.415-.608.639a35.695 35.695 0 01-2.21 2.042l-.188.157a88.14 88.14 0 011.322 1.794c.482.673.974 1.383 1.4 2.043.438.678.788 1.274 1.06 1.781.272.493.513 1.003.722 1.526.097.255.145.438.146.55a.299.299 0 01-.105.25c-.087.072-.19.08-.304.027-.082-.038-.188-.13-.315-.269-.335-.37-.903-1.157-1.76-2.346l-.08-.112-.055-.076c-.894-1.24-2.064-2.864-2.596-3.741-.635-1.048-.463-1.198-.082-1.505l-.177-.232c-.362-.469-.562-.715-.7-.8-.065-.04-.14-.005-.272.076-.377.229-1.022.712-1.428 1.015-.26.195.311-.23-.133.102l-.008.005c-.204.152-.208.155.263.844.304.442.758 1.103 1.269 1.821a63.41 63.41 0 001.638 2.213 38.516 38.516 0 002.633 3.025c.249.256.407.41 1.121.508.785.108.682.18 1.411.18 1.398 0 1.207.056 1.807.056v.47h-.252zm-5.585-7.135a92.623 92.623 0 00-1.303-1.773c-.156.127-.213.211.198.89.52.857 1.686 2.476 2.576 3.71l.054.075.08.113c.596.825 1.05 1.455 1.377 1.878-.13-.3-.313-.677-.552-1.121a25.211 25.211 0 00-1.042-1.75 51.755 51.755 0 00-1.39-2.022h.002zm-5.18-46.622c-.098.19-.163.318-.197.403l.066.024c.391.143.775.284 1.043.404.062.027.102.046.138.063.137.065.18.087.274-.06.17-.26.435-.794.648-1.229l.191-.386.056-.11c.098-.188.115-.222.08-.245a5.915 5.915 0 00-.317-.18c-.248-.134-.53-.286-.692-.434a.71.71 0 01-.188-.251 26.37 26.37 0 00-.424.739 57.71 57.71 0 00-.676 1.26l-.002.002zm1.186-2.822c.275-.104.69.12 1.788.713l.08.044c.834.45 2.09 1.124 3.367 1.81l3.198 1.718.744.4c1.315.71 1.84.994 2.135 1.11.05.025.1.043.154.054.043-.031.094-.155.182-.378.118-.305.281-.756.423-1.243.105-.352.189-.71.252-1.071a4.875 4.875 0 00-.113-2.209 5.376 5.376 0 00-.404-1.025c-.154-.3-.344-.58-.564-.834a4.054 4.054 0 00-.843-.71c-.382-.253-.892-.544-1.62-.947a549.419 549.419 0 00-4.979-2.693c-.767-.411-1.108-.594-1.209-.766-.325-.035-.718-.222-1.628-.655l-.014-.007c-.465-.22-1.07-.508-1.688-.789a27.362 27.362 0 00-1.707-.722c-.47-.174-.81-.263-1.105-.29a2.534 2.534 0 00-.845.076c-.369.088-.73.203-1.083.344a7.273 7.273 0 00-.999.48 5.155 5.155 0 00-.83.606 5.993 5.993 0 00-.652.692 7.666 7.666 0 00-.514.708c-.124.186-.23.383-.317.589-.024.06-.026.102.057.174.177.154.562.38 1.296.784 1.098.606 2.856 1.547 4.328 2.335l1.6.857c.773.417 1.199.65 1.434.794l.078.05-.002.001zm3.483-6.952c-.087.157-.166.294-.231.411.15.002.299.025.443.067.474.13 1.173.501 1.611.733l.095.05c.183.097.29.151.337.157.021 0-.02-.012-.005-.032.13-.18.321-.573.44-.815l.007-.014c.051-.105.068-.14-.166-.285-.174-.108-.42-.244-.683-.381-.363-.19-.767-.391-1.04-.522-.193-.093-.298-.142-.337-.139 0 0-.031.044-.093.14-.105.16-.244.395-.378.63zM12.605 13.28c.073.11.13.198.182.268a4.17 4.17 0 01.484-.465c.087-.068.171-.125.251-.18.198-.134.36-.244.335-.429-.05-.361-.51-1.043-.79-1.457L13.056 11l-.009-.013c-.205-.304-.269-.398-.356-.366a2.973 2.973 0 00-.4.208c-.212.122-.441.254-.652.327a2.585 2.585 0 01-.26.07 21.296 21.296 0 00.56.98c.237.391.49.797.67 1.073h-.004zm-1.722-2.404a.805.805 0 01.123-.178c.18-.206.557-.435 1.28-.876l2.968-1.8 2.958-1.792c.853-.518 1.476-.896 1.975-1.208.458-.286.738-.47.916-.602.123-.093.179-.139.18-.155 0-.034-.06-.125-.167-.283a11.65 11.65 0 00-.552-.757 7.35 7.35 0 00-.785-.856 5.227 5.227 0 00-.886-.652 5.66 5.66 0 00-1.025-.468 6.781 6.781 0 00-.88-.233A7.658 7.658 0 0016.04.89a1.932 1.932 0 00-.546.021c-.177.037-.381.114-.687.251-.335.151-.776.368-1.309.647-.502.264-1.085.583-1.742.952-.759.428-1.68.965-2.482 1.434-.569.332-1.076.627-1.449.84-.46.26-.704.383-.886.401-.07.245-.217.334-1.025.82l-.06.036c-.391.236-.95.572-1.547.946-.583.364-1.178.75-1.632 1.076-.455.326-.77.59-1.008.838a3.345 3.345 0 00-.521.697c-.136.24-.247.493-.33.756a6.14 6.14 0 00-.26 1.938c.011.396.066.789.162 1.173.099.38.225.75.38 1.11.147.358.323.705.525 1.035.08.123.13.18.242.15.227-.063.624-.298 1.36-.75.377-.23.673-.413.996-.613 1.575-.972 3.723-2.297 5.004-2.998.848-.464 1.335-.667 1.66-.773l-.002-.002zM6.382 4.11c.113.194.232.394.332.56.068-.095.145-.182.23-.26.207-.196.521-.417.84-.62.311-.2.629-.385.847-.512l.008-.005.27-.156a6.1 6.1 0 00-.213-.374 21.431 21.431 0 00-.258-.418.91.91 0 00-.133-.187c-.011-.008-.039-.008-.098.003-.157.037-.31.09-.455.157a6.547 6.547 0 00-.627.314 8.386 8.386 0 00-.531.331c-.208.14-.391.273-.512.37-.06.048-.09.054-.092.063-.001.009.027.075.09.197.071.134.182.33.302.537zm5.42 53.318c-.227-.162-.44-.32-.655-.486l-.052.068a265.8 265.8 0 00-1.083 1.457c-.339.46-.636.865-.922 1.28-.28.409-.544.826-.821 1.308-.377.659-.77 1.434-1.098 2.076-.16.317-.304.602-.423.826-.09.169-.171.315-.237.434-.15.27-.2.359-.187.41a.565.565 0 00.13.204c.073.08.158.148.252.201.28-.049.382-.12.5-.23.375-.347.925-1.012 1.356-1.535.203-.245-.07.084.135-.164l.12-.145c.385-.464.67-.807 1.366-1.773a353.58 353.58 0 001.684-2.377l.717-1.015c-.272-.18-.534-.361-.782-.539zm1.33.89a12.217 12.217 0 01-.155-.096c-.217.304-.466.66-.726 1.029a269.99 269.99 0 01-1.688 2.38 27.264 27.264 0 01-1.384 1.8l-.12.144c-.291.353-.026.03-.135.163-.265.321-.575.695-.865 1.024a57.68 57.68 0 001.216-1.234l.267-.277.077-.08c.394-.403.548-.564 1.138-1.398.4-.57.995-1.44 1.55-2.254l.822-1.2h.002zm.665-.139a25.968 25.968 0 001.773.974 26.497 26.497 0 002.213.978 25.514 25.514 0 002.553.835 28.189 28.189 0 002.82.607c.434.071.858.13 1.266.174.451.05.88.087 1.28.114.388.025.744.04 1.1.043.356.004.728 0 1.132-.016a31.739 31.739 0 002.647-.218 24.728 24.728 0 003.775-.781 26.236 26.236 0 002.39-.814c.386-.155.777-.323 1.186-.512.4-.186.808-.387 1.113-.58.256-.164.434-.305.437-.394.004-.063-.183-.192-.4-.342-.243-.168-.514-.356-.697-.614a1.59 1.59 0 01-.27-.832 2.818 2.818 0 01.14-1.01c.158-.474.33-.588.749-.868l.04-.027c.2-.134.461-.31.75-.516.29-.204.624-.45.956-.71a22.382 22.382 0 002.07-1.826c.347-.347.697-.718 1.042-1.109.336-.381.66-.773.967-1.173a20.559 20.559 0 001.737-2.65 24.785 24.785 0 001.47-3.192 20.84 20.84 0 00.953-3.395 23.667 23.667 0 00.408-3.656 22.924 22.924 0 00-.417-5.148 21.625 21.625 0 00-.798-2.917c-.167-.48-.344-.942-.529-1.379-.18-.428-.367-.834-.564-1.225-.198-.392-.4-.768-.621-1.148a20.272 20.272 0 00-1.525-2.27 20.48 20.48 0 00-2.262-2.49 30.757 30.757 0 00-3.048-2.503 16.738 16.738 0 00-1.346-.88 16.211 16.211 0 00-1.39-.715 29.74 29.74 0 00-1.715-.72 33.6 33.6 0 00-1.837-.646 28.947 28.947 0 00-1.925-.542 17.442 17.442 0 00-1.657-.326c-.46-.066-.924-.1-1.39-.102a20.2 20.2 0 00-1.36.052c-.487.03-1.033.07-1.575.12-.542.05-1.11.115-1.674.2a22.594 22.594 0 00-3.116.698 18.9 18.9 0 00-1.378.468c-.447.173-.905.37-1.383.6a28.23 28.23 0 00-1.467.76c-.498.275-.99.564-1.433.846-.432.273-.812.534-1.173.802-.36.268-.699.545-1.05.85a24.866 24.866 0 00-2.12 2.079 20.926 20.926 0 00-3.4 5.069 24.666 24.666 0 00-1.348 3.526 21.917 21.917 0 00-.766 3.891 23.81 23.81 0 00-.075 4.033c.043.652.111 1.272.205 1.875a21.75 21.75 0 002.27 6.817c.286.54.608 1.081.96 1.625a22.907 22.907 0 002.525 3.207c.45.478.92.933 1.378 1.353.538.493 1.068.942 1.53 1.311.415.332.77.593 1.097.763.304.16.585.238.873.218.305-.02.63-.148.956-.412.31-.25.62-.623.916-1.14.422-.737.817-1.767 1.334-3.116.272-.71.578-1.507.94-2.399.428-1.054.941-2.252 1.453-3.422.73-1.665 1.457-3.269 1.93-4.301.4-.877.619-1.34.758-1.613.09-.185.199-.36.326-.521.099-.13.23-.296.366-.452.124-.151.264-.287.418-.407l.014-.01a.967.967 0 01-.113-.148 2.74 2.74 0 01-.157-.271 1.85 1.85 0 01-.212-.811 1.988 1.988 0 01.04-.45c.031-.159.08-.313.147-.46a1.98 1.98 0 01.24-.406c.137-.162.29-.31.459-.438l.135-.116.077-.069c-.056-.148-.09-.355-.14-.667l-.013-.078-.063-.377a66.698 66.698 0 01-.22-1.388 5.327 5.327 0 01-.055-.825c-.003-.403.007-1.043.027-2.235s.05-2.944.087-4.677c.035-1.742.077-3.473.119-4.624.043-1.168.087-1.757.127-2.034.148-.989.361-.687.562-.21.043.101.078.245.13.675.052.412.123 1.09.239 2.264a1736.614 1736.614 0 01.845 8.941c.104 1.116.155 1.686.176 2.028.02.251.018.503-.005.753-.017.25-.043.609-.073.935-.03.343-.063.684-.096.917-.043.298-.091.458-.159.541a1.868 1.868 0 01.618.288c.15.107.286.234.404.376.144.175.265.366.36.571.091.19.152.394.18.603.024.204.007.411-.05.608a2.131 2.131 0 01-.237.522c-.104.172-.228.33-.37.472a1.817 1.817 0 01-.45.327c-.17.084-.352.143-.54.174-.169.028-.34.037-.512.027-.02.065-.046.139-.077.227l-.054.159c-.039.113-.05.144-.059.174-.134.396-.32.947-.549 1.426-.234.492-.508.902-1.09 1.772l-.245.365c-.263.393-.672 1.01-1.093 1.644-.546.822-1.113 1.676-1.56 2.34l-.043.069c-.337.5-.56.83-.56.976 0 .033.13.048.448.05.164 0 .374-.007.61-.017 1.21-.05 3.117-.13 4.621.91.959.662 1.72 1.755 2.497 2.872.662.952 1.337 1.921 2.134 2.617 1.487 1.3 3.466 1.71 4.628 1.95.18.038.341.072.464.1.655.151.89.33.894.541.004.24-.241.368-.534.507a23.992 23.992 0 01-2.738 1.111 23.812 23.812 0 01-4.047.984 17.41 17.41 0 01-.956.11 27.088 27.088 0 01-2.282.106c-.398 0-.786-.007-1.182-.03a20.991 20.991 0 01-1.256-.108 25.478 25.478 0 01-1.471-.217 23.368 23.368 0 01-1.44-.305 24.988 24.988 0 01-2.933-.908 20.744 20.744 0 01-.471-.181c-.674-.265-1.277-.502-1.834-.532a2.686 2.686 0 00-.863.1c-.307.087-.6.217-.871.385-.208.128-.394.29-.55.478-.152.18-.324.414-.553.743v-.005zm13.03-20.883c.141.008.283.001.423-.022s.277-.067.405-.13c.123-.064.235-.146.333-.243a1.986 1.986 0 00.484-.789 1.09 1.09 0 00.037-.425 1.567 1.567 0 00-.14-.462 2.163 2.163 0 00-.295-.468 1.635 1.635 0 00-.314-.292 1.421 1.421 0 00-.702-.258 2.316 2.316 0 00-.325-.009l-.096.006c-.143.008-.27.014-.384-.018a1.837 1.837 0 01-.1.094c-.026.022-.088.072-.147.123-.142.11-.271.235-.386.373a1.507 1.507 0 00-.184.308 1.714 1.714 0 00-.117.36 1.524 1.524 0 00-.03.348 1.396 1.396 0 00.163.615c.04.077.083.152.13.224.02.032.042.061.068.087a.173.173 0 00.07.024c.044.01.102.017.164.026.16.016.316.049.468.098a.92.92 0 01.31.19.673.673 0 01.165.237v.003zm-.586-4.178c.03.185.053.324.073.423a1.01 1.01 0 01.109-.055 1.18 1.18 0 01.37-.084c.1-.006.2-.005.299.003h.011c.02 0-.028 0 .003-.217.03-.217.063-.548.092-.891.032-.359.057-.696.074-.927.02-.23.022-.462.004-.693a80.749 80.749 0 00-.174-2.013c-.114-1.236-.298-3.188-.477-5.11-.134-1.41-.267-2.794-.368-3.828l-.112-1.117-.015.393a312.728 312.728 0 00-.119 4.616c-.036 1.741-.066 3.485-.087 4.675-.02 1.19-.03 1.829-.027 2.225-.003.256.014.513.051.767.052.367.143.915.217 1.377l.063.377.012.078h0zM13.08 57.269c.003-.006.002-.004 0 0z" stroke="#2E1A1E" stroke-width=".4"/></g><defs><clipPath id="clip0_1_397"><path fill="#fff" d="M0 0h62v66H0z"/></clipPath></defs></svg>