<svg width="29" height="25" fill="none" xmlns="http://www.w3.org/2000/svg"><g clip-path="url(#clip0_1_1574)"><path d="M.993 12.19l6.847 3.345a.893.893 0 00.83-.027l6.095-3.472-3.689 3.204a.851.851 0 00-.295.642v7.803c0 .823 1.072 1.17 1.575.516l2.96-3.857 7.32 4.085a.878.878 0 001.29-.576L28.491 1.56c.137-.67-.543-1.217-1.176-.967L1.065 10.624a.852.852 0 00-.072 1.566zm25.468-9.43L22.45 22.351l-6.936-3.871a.888.888 0 00-1.133.23l-1.849 2.409v-4.853l9.976-8.661c.79-.685-.117-1.903-1.02-1.384L8.2 13.793 3.542 11.52l22.92-8.76z" fill="#2E1A1E"/></g><defs><clipPath id="clip0_1_1574"><path fill="#fff" transform="translate(.51)" d="M0 0h28v25H0z"/></clipPath></defs></svg>