<svg width="21" height="21" fill="none" xmlns="http://www.w3.org/2000/svg"><g clip-path="url(#clip0_1_3763)" fill="#2E1A1E"><path d="M20.26 12.156c.627-5.273-.3-8.603-1.974-10.108l.001-.001c-2.7-2.572-11.82-2.953-15.05.115-1.45 1.5-1.962 3.703-2.018 6.43-.056 2.727-.122 7.836 4.639 9.222h.004l-.004 2.117s-.033.857.515 1.03c.627.203.91-.195 2.859-2.523 3.258.283 5.76-.365 6.045-.46.658-.22 4.381-.712 4.983-5.822zM9.553 16.95s-2.062 2.571-2.704 3.24c-.21.216-.44.196-.436-.235 0-.282.015-3.514.015-3.514-4.036-1.156-3.798-5.507-3.754-7.783.043-2.276.46-4.141 1.688-5.397C7.197.603 15.192 1.197 17.23 3.112c2.49 2.207 1.603 8.444 1.609 8.657-.512 4.265-3.53 4.535-4.084 4.72-.237.078-2.438.645-5.201.46z"/><path d="M10.694 3.76c-.337 0-.337.525 0 .53 2.614.02 4.766 1.841 4.79 5.183 0 .352.516.348.512-.005h-.001c-.028-3.6-2.378-5.688-5.3-5.708z"/><path d="M14.132 8.919c-.008.348.508.365.512.012.043-1.985-1.181-3.62-3.481-3.793-.337-.024-.372.505-.036.53 1.995.15 3.046 1.512 3.005 3.25zm-.552 2.258c-.432-.25-.872-.094-1.054.152l-.38.492c-.194.25-.555.217-.555.217-2.638-.697-3.343-3.457-3.343-3.457s-.032-.373.21-.574l.475-.394c.238-.189.389-.644.146-1.09-.647-1.17-1.082-1.574-1.303-1.884-.233-.291-.583-.357-.947-.16H6.82c-.757.443-1.585 1.272-1.32 2.125.452.9 1.283 3.767 3.933 5.933 1.245 1.025 3.216 2.075 4.052 2.317l.008.012c.824.275 1.626-.586 2.053-1.365v-.007c.19-.377.127-.734-.15-.967-.492-.48-1.234-1.01-1.816-1.35z"/><path d="M11.523 7.091c.84.049 1.248.488 1.292 1.39.016.353.528.328.512-.024-.056-1.178-.67-1.834-1.776-1.895-.337-.02-.369.509-.028.529z"/></g><defs><clipPath id="clip0_1_3763"><path fill="#fff" d="M0 0h21v21H0z"/></clipPath></defs></svg>