<svg width="39" height="40" fill="none" xmlns="http://www.w3.org/2000/svg"><g clip-path="url(#clip0_1_1213)"><path d="M.848 30.018c.796 2.826 3.232 3.343 3.395 3.442 4.008 1.093 26.479 1.096 30.548 0 2.787-.806 3.299-3.28 3.395-3.442 1.06-5.65 1.13-13.014-.05-19.424l.05.319c-.797-2.826-3.233-3.343-3.395-3.443-3.955-1.074-26.484-1.115-30.548 0-2.787.809-3.3 3.28-3.395 3.443-1.136 5.937-1.193 12.748 0 19.105zm14.765-3.615v-11.86l10.182 5.94-10.182 5.92z" fill="#E53935"/></g><defs><clipPath id="clip0_1_1213"><path fill="#fff" transform="translate(0 .953)" d="M0 0h39v39.026H0z"/></clipPath></defs></svg>